<svg width="20" height="20" viewBox="0 0 20 20" fill="none" xmlns="http://www.w3.org/2000/svg">
<path d="M9.47159 10.1701C9.7028 7.71082 7.89662 5.52978 5.43737 5.29856C2.97812 5.06735 0.797074 6.87353 0.565862 9.33278C0.334651 11.792 2.14083 13.9731 4.60008 14.2043C7.05933 14.4355 9.24038 12.6293 9.47159 10.1701Z" fill="#FF6D00"/>
<path d="M13.1256 8.31314C13.3569 5.85389 11.5507 3.67284 9.09142 3.44163C6.63218 3.21042 4.45113 5.0166 4.21992 7.47585C3.9887 9.9351 5.79488 12.1161 8.25413 12.3474C10.7134 12.5786 12.8944 10.7724 13.1256 8.31314Z" fill="#AB0738"/>
<path d="M8.91344 11.4538C9.28847 11.4538 9.5925 11.1498 9.5925 10.7748C9.5925 10.3997 9.28847 10.0957 8.91344 10.0957C8.5384 10.0957 8.23438 10.3997 8.23438 10.7748C8.23438 11.1498 8.5384 11.4538 8.91344 11.4538Z" fill="#32313C"/>
<path d="M8.91348 11.5932C8.46223 11.5932 8.09473 11.2264 8.09473 10.7748C8.09473 10.3232 8.46223 9.95605 8.91348 9.95605C9.36473 9.95605 9.73223 10.3236 9.73223 10.7748C9.73223 11.2261 9.36504 11.5936 8.91348 11.5936V11.5932ZM8.91348 10.2357C8.61629 10.2357 8.37441 10.4776 8.37441 10.7748C8.37441 11.072 8.61629 11.3139 8.91348 11.3139C9.21066 11.3139 9.45285 11.072 9.45285 10.7748C9.45285 10.4776 9.21066 10.2357 8.91348 10.2357Z" fill="#231F20"/>
<path d="M9.2437 15.9861L10.1399 16.513L11.0574 16.4671L11.2409 16.4764L9.80338 15.7202L8.72088 15.5364L7.3262 15.4814L6.61995 15.4908L6.57401 15.2521L6.75745 14.5364L6.86745 13.9218L7.3537 13.353L7.54651 13.1236L7.77588 13.1877L8.2712 13.2977L8.84932 13.3896H9.28963L9.69588 13.5249L9.90213 13.6108L10.2531 13.2152L10.7071 12.3896L10.9728 11.7796L10.7209 10.9858L10.2943 10.6693L9.64745 10.573L9.08307 10.7105L8.5787 11.2199L8.45026 11.5636L8.25745 11.5777L7.89963 11.0133L7.28026 10.683L6.9087 10.4355L5.25745 11.3299L4.95463 12.7474L5.58088 13.2289L5.80776 13.5321L5.44995 14.5777L5.33995 15.7749L5.49713 16.4518L6.6887 16.3943L8.25745 16.1052L9.2437 15.9861ZM2.75745 6.05926L4.04182 5.41676L4.83088 4.79301L5.80338 4.02238L6.81276 3.53613L7.08776 3.54551L7.06026 3.67832L6.46401 4.5177L6.17026 5.41676L5.89526 5.61863L5.57401 5.56363L5.3262 5.36176L4.90432 5.78363L4.15182 6.49926L2.75745 6.05926Z" fill="#EDB29F"/>
<path d="M7.13373 10.8205C6.90039 10.7795 6.66007 10.8114 6.4456 10.9121C5.9731 11.1396 5.84998 11.6202 5.83091 11.7012C5.81779 11.7568 5.71685 12.2084 5.94091 12.5452C6.0181 12.6615 6.28373 12.9852 6.19779 12.8755L6.06029 13.0865L5.83998 13.4259L5.45466 13.2609L5.38123 11.6646L6.03279 10.4902L6.76654 10.334L7.03279 10.4627L7.39904 10.7277L7.7531 10.984L7.99591 11.1599C8.01529 11.2018 8.03873 11.2593 8.05904 11.3296C8.05904 11.3296 8.1106 11.5087 8.10591 11.6805C8.0956 12.0796 7.65591 12.4712 7.66591 12.4787L7.68404 12.4718L7.6381 12.1484C7.69904 12.0934 7.8781 11.9165 7.89966 11.6462C7.93341 11.228 7.56091 10.9546 7.50748 10.9168C7.43759 10.8674 7.36112 10.828 7.28029 10.7999L7.13341 10.8205H7.13373Z" fill="#32313C"/>
<path d="M14.0969 6.82986L14.3725 7.92143L15.7304 7.55455L16.2625 7.58205L16.7579 7.71955L17.1707 7.9308L17.6754 7.70143L18.0879 7.25174L18.9322 6.92143L19.2716 6.75643L19.3016 6.58205C19.3016 6.58205 18.8222 6.52705 18.7763 6.52705C18.7304 6.52705 17.7579 6.45361 17.7579 6.45361L16.1797 6.72861L14.5835 6.86643L14.0972 6.82986H14.0969Z" fill="#EDB29F"/>
<path d="M14.354 6.86635L14.4822 7.82041L13.62 8.04072L12.2072 8.05916L10.9412 7.72885L10.1153 7.85697L8.42716 8.26104L7.83997 8.68291L4.4456 8.71979L4.56247 8.50885L2.95935 8.42604L1.87653 8.16916L1.28935 7.74729L1.24341 7.04979L1.5831 6.73791L3.03247 5.96729L4.29872 6.44447L4.05091 6.71947L4.86747 6.60947L7.03278 6.59104L8.75778 6.27916L10.5922 6.16916L12.1153 6.55447L14.354 6.86635Z" fill="#32313C"/>
<path d="M6.11749 12.9606C6.06249 12.9537 5.82155 12.9396 5.74593 13.0087C5.6703 13.0774 5.58093 13.2287 5.58093 13.2287C5.58093 13.2287 4.73437 12.5337 4.7278 12.4993C4.72062 12.4649 4.59687 11.9284 4.59687 11.9284L4.30093 11.309L4.0603 10.1599L4.31718 8.88463L4.56249 8.5087C4.6328 8.20182 4.77812 7.78057 5.09218 7.37307C5.29343 7.11276 5.62562 6.68245 6.1153 6.64588C6.15093 6.64338 6.1803 6.64338 6.19999 6.6437C6.22187 6.9064 6.2846 7.16408 6.38593 7.40745C6.48249 7.63901 6.63905 8.00213 7.01218 8.26776C7.14874 8.36463 7.50593 8.61932 7.8378 8.49463C7.92843 8.46057 7.99405 8.40713 8.03749 8.36401L7.33562 9.10463L6.20999 9.1587L6.04187 9.5637L7.16124 10.5728C7.02049 10.5575 6.87825 10.5638 6.73937 10.5912C6.64155 10.6106 5.98624 10.7528 5.71155 11.3849C5.6928 11.4284 5.45843 11.9934 5.75749 12.5453C5.86999 12.7524 6.0178 12.8853 6.11749 12.9606Z" fill="#AB0738"/>
<path d="M4.53908 11.9154C4.51581 11.9155 4.4929 11.9097 4.47244 11.8986C4.45197 11.8875 4.4346 11.8715 4.4219 11.852C4.09393 11.3485 3.91975 10.7604 3.92065 10.1595C3.91969 9.62843 4.05574 9.10608 4.31565 8.64295C3.64065 8.62295 1.89815 8.53045 1.43377 8.10732C0.840021 7.56482 1.1069 7.01045 1.11815 6.98701C1.14408 6.92732 1.25158 6.70357 1.42283 6.65764C1.47908 6.64076 1.74971 6.48576 1.94721 6.37232C2.14721 6.25795 2.35783 6.13795 2.50596 6.06232L2.68158 5.97482C3.09815 5.7667 4.0744 5.27982 4.26596 5.09545C4.51377 4.85732 5.17908 4.29388 5.56752 4.06638C5.95627 3.83888 6.62377 3.47576 6.74877 3.4117C6.89721 3.33482 7.08502 3.35857 7.17565 3.4667C7.24596 3.55045 7.2444 3.6667 7.17158 3.76264L7.12377 3.82357C6.98908 3.99295 6.5794 4.5092 6.48377 4.75232C6.4444 4.85264 6.41533 4.96232 6.3869 5.06795C6.32596 5.2967 6.26815 5.51232 6.12221 5.63388C5.90971 5.81138 5.67752 5.82482 5.48658 5.67264C5.40283 5.60545 5.29752 5.59763 5.24158 5.65326C5.13158 5.76295 4.0494 6.85451 4.0494 6.85451L3.85096 6.65764C3.85096 6.65764 4.93377 5.56514 5.04377 5.45545C5.20346 5.29576 5.46315 5.29576 5.66127 5.4542C5.7219 5.50232 5.8019 5.53638 5.94315 5.4192C6.02127 5.3542 6.07002 5.17232 6.1169 4.99576C6.14815 4.87982 6.18033 4.75982 6.22377 4.64982C6.32315 4.39701 6.65971 3.95826 6.9044 3.64982C6.89484 3.65211 6.8856 3.65558 6.8769 3.66014C6.75721 3.7217 6.08627 4.0867 5.70877 4.30763C5.34471 4.52076 4.69252 5.07326 4.46002 5.29701C4.2644 5.48514 3.5494 5.8542 2.80627 6.22514L2.63252 6.31201C2.48752 6.38513 2.28158 6.50326 2.08627 6.61514C1.7344 6.8167 1.57221 6.90701 1.49565 6.92764C1.46752 6.9392 1.40565 7.02732 1.3719 7.10482C1.36158 7.1267 1.18877 7.50482 1.62221 7.90076C2.01877 8.26232 3.88033 8.36107 4.56408 8.36857C4.58923 8.36903 4.61378 8.37624 4.63518 8.38945C4.65658 8.40265 4.67404 8.42136 4.68573 8.44363C4.69743 8.46589 4.70292 8.49089 4.70164 8.516C4.70036 8.54112 4.69235 8.56542 4.67846 8.58638C4.36574 9.05133 4.19923 9.59918 4.20033 10.1595C4.20033 10.7089 4.35783 11.2414 4.65658 11.6995C4.67031 11.7206 4.67808 11.7451 4.67906 11.7703C4.68005 11.7955 4.67422 11.8205 4.66218 11.8426C4.65015 11.8647 4.63236 11.8832 4.6107 11.8961C4.58903 11.909 4.56429 11.9158 4.53908 11.9158V11.9154ZM10.9013 16.6329C10.7325 16.6329 10.5566 16.6308 10.4094 16.6248C10.1003 16.6117 9.76815 16.4211 9.50127 16.2676C9.39033 16.2042 9.2644 16.132 9.21783 16.1229C9.1369 16.1176 8.73908 16.2023 8.38533 16.2811C7.9219 16.3842 7.34471 16.5123 6.89283 16.5651C6.02127 16.6673 5.49815 16.5933 5.47721 16.5895C5.44978 16.5856 5.42412 16.5736 5.40353 16.5551C5.38293 16.5366 5.36833 16.5123 5.36158 16.4854C5.19275 15.8143 5.18348 15.113 5.3345 14.4376C5.48553 13.7623 5.79266 13.1317 6.23127 12.5964C6.25532 12.5694 6.28887 12.5528 6.32491 12.55C6.36094 12.5472 6.39667 12.5584 6.42461 12.5813C6.45255 12.6043 6.47053 12.6371 6.4748 12.673C6.47907 12.7089 6.4693 12.745 6.44752 12.7739C6.0469 13.2626 5.76319 13.8363 5.61805 14.4513C5.47291 15.0663 5.47016 15.7064 5.61002 16.3226C5.79283 16.3379 6.23502 16.3601 6.86065 16.2873C7.29815 16.2361 7.86752 16.1095 8.32471 16.0079C8.92221 15.8754 9.15846 15.8261 9.27002 15.8486C9.36283 15.8661 9.4794 15.9329 9.64033 16.0251C9.86815 16.1561 10.1803 16.3351 10.421 16.3451C10.5622 16.3514 10.7325 16.3533 10.8981 16.3533H10.8994C10.3522 16.1136 9.59158 15.7858 9.38752 15.7251C9.15283 15.6551 7.53815 15.6298 6.51002 15.6298C6.47297 15.6298 6.43744 15.6151 6.41125 15.5889C6.38505 15.5627 6.37033 15.5272 6.37033 15.4901C6.37033 15.4531 6.38505 15.4176 6.41125 15.3914C6.43744 15.3652 6.47297 15.3504 6.51002 15.3504C6.77565 15.3504 9.11815 15.3536 9.46752 15.4573C9.81127 15.5598 11.5278 16.3248 11.601 16.3573C11.6301 16.3701 11.6539 16.3925 11.6686 16.4207C11.6833 16.449 11.6879 16.4813 11.6816 16.5125C11.6754 16.5437 11.6587 16.5718 11.6343 16.5923C11.6099 16.6127 11.5793 16.6242 11.5475 16.6248C11.5288 16.6254 11.2275 16.6329 10.9013 16.6329Z" fill="#231F20"/>
<path d="M5.84442 13.4991C5.8313 13.499 5.81826 13.4971 5.80567 13.4934C5.41404 13.3806 5.067 13.1492 4.81222 12.831C4.55745 12.5129 4.40745 12.1237 4.38285 11.7169C4.38175 11.6985 4.38428 11.6802 4.39028 11.6628C4.39628 11.6455 4.40565 11.6295 4.41784 11.6158C4.43003 11.602 4.4448 11.5908 4.46132 11.5828C4.47784 11.5748 4.49578 11.5701 4.5141 11.5691C4.59223 11.5578 4.65754 11.6234 4.66192 11.7003C4.68313 12.0495 4.81192 12.3835 5.03059 12.6565C5.24926 12.9295 5.54709 13.1281 5.88317 13.225C5.91564 13.2342 5.94368 13.2549 5.9621 13.2832C5.98051 13.3115 5.98805 13.3455 5.98333 13.3789C5.9786 13.4124 5.96192 13.4429 5.93639 13.465C5.91085 13.4871 5.87818 13.4992 5.84442 13.4991ZM8.38129 12.0884C8.34668 12.0884 8.31332 12.0755 8.28764 12.0523C8.26196 12.0291 8.24578 11.9972 8.24223 11.9628C8.24192 11.9603 8.21348 11.7025 8.03192 11.4359C7.94098 11.3028 7.5841 11.0544 7.23942 10.8141C6.86442 10.5531 6.47692 10.2831 6.23192 10.0388C6.02973 9.83625 5.93192 9.63188 5.94129 9.43094C5.95192 9.19781 6.10348 9.06531 6.12067 9.05125C6.13978 9.03529 6.16282 9.02476 6.18739 9.02074C6.21196 9.01673 6.23716 9.01939 6.26035 9.02844C6.4167 9.08902 6.58368 9.11735 6.75126 9.11172C6.91884 9.10609 7.08355 9.06661 7.23547 8.99567C7.3874 8.92473 7.5234 8.82379 7.6353 8.69892C7.7472 8.57405 7.83268 8.42783 7.8866 8.26906C7.89529 8.24364 7.9111 8.22126 7.93216 8.20458C7.95321 8.1879 7.97862 8.17763 8.00535 8.175C8.01098 8.17438 8.56348 8.12063 9.24598 7.99469C9.51192 7.94563 9.71379 7.86594 9.90848 7.78844C10.2138 7.6675 10.5041 7.55375 10.9522 7.58938C11.1947 7.60844 11.4335 7.67875 11.6857 7.75281C12.1904 7.90125 12.7629 8.06906 13.5929 7.90375C13.9752 7.82445 14.3556 7.73557 14.7335 7.63719C15.4944 7.445 16.0438 7.30656 16.4169 7.43094C16.7569 7.54438 16.8669 7.635 16.9329 7.68938C16.9619 7.71313 16.9629 7.71313 16.971 7.71469L17.0141 7.72406C17.1475 7.75375 17.3969 7.81156 17.7107 7.44094C18.1319 6.94313 18.6366 6.80844 19.0297 6.74656C19.0954 6.73594 19.1441 6.71625 19.1638 6.69219C18.9263 6.63969 18.286 6.52875 17.5113 6.63781C17.3291 6.66344 17.1263 6.69813 16.9063 6.73563C15.8844 6.91031 14.485 7.14969 13.0063 6.86594C12.3032 6.73125 11.9082 6.61938 11.6197 6.53781C11.1769 6.41281 10.9547 6.35 10.1569 6.35C9.41004 6.35 8.39192 6.49187 7.49379 6.61719C6.7741 6.71719 6.15254 6.80406 5.78067 6.80406L5.45035 6.80281C4.76848 6.79969 4.12504 6.79469 3.24754 6.96688C2.53004 7.10688 2.23223 7.02094 2.20035 7.01063C2.16775 6.99726 2.14138 6.97211 2.12647 6.94019C2.11156 6.90827 2.1092 6.8719 2.11987 6.83832C2.13054 6.80474 2.15345 6.7764 2.18405 6.75894C2.21465 6.74148 2.2507 6.73617 2.28504 6.74406C2.29317 6.74625 2.55692 6.81719 3.19379 6.69219C4.09848 6.51469 4.75567 6.51938 5.45192 6.52313L5.78067 6.52469C6.13348 6.52469 6.74598 6.43906 7.45567 6.34031C8.36223 6.21375 9.39004 6.07031 10.1569 6.07031C10.9935 6.07031 11.2432 6.14094 11.6957 6.26875C11.9794 6.34906 12.3675 6.45875 13.0591 6.59125C14.4882 6.86531 15.8585 6.63094 16.8591 6.46C17.0822 6.42188 17.2875 6.38688 17.4722 6.36063C18.516 6.21406 19.3072 6.43781 19.34 6.44781C19.3605 6.45372 19.3793 6.46418 19.3951 6.47842C19.4109 6.49266 19.4233 6.51029 19.4313 6.53C19.4375 6.54563 19.4897 6.68625 19.4113 6.82375C19.351 6.93 19.2372 6.99656 19.0735 7.02281C18.7066 7.08063 18.2838 7.19688 17.9241 7.62156C17.501 8.12281 17.1016 8.03094 16.9519 7.99656L16.92 7.98969C16.8397 7.975 16.795 7.93781 16.7554 7.90531C16.701 7.86063 16.6191 7.79313 16.3285 7.69656C16.0319 7.5975 15.4891 7.735 14.8019 7.90813C14.4582 7.99531 14.0682 8.09344 13.6479 8.17781C12.7504 8.35688 12.116 8.17094 11.6066 8.02125C11.3582 7.94813 11.1438 7.885 10.93 7.86813C10.5454 7.83688 10.2975 7.93531 10.0119 8.04875C9.81379 8.12688 9.58942 8.21594 9.29692 8.27C8.90664 8.34152 8.51401 8.39958 8.11973 8.44406C7.97561 8.79736 7.70413 9.0837 7.359 9.24642C7.01387 9.40915 6.62024 9.43641 6.25598 9.32281C6.2339 9.361 6.22155 9.40404 6.22004 9.44812C6.21692 9.56437 6.28879 9.70031 6.42942 9.84094C6.6566 10.0678 7.05129 10.3422 7.39879 10.5847C7.79817 10.8628 8.14285 11.1028 8.26285 11.2784C8.48723 11.6072 8.5191 11.9225 8.52035 11.9359C8.52384 11.9727 8.5126 12.0093 8.48911 12.0378C8.46561 12.0663 8.43178 12.0843 8.39504 12.0878C8.39035 12.0884 8.38567 12.0884 8.38129 12.0884Z" fill="#231F20"/>
<path d="M8.40222 11.8181C8.46941 11.8553 8.57347 11.9015 8.70472 11.9147C8.89878 11.934 9.0266 11.8684 9.50316 11.66C9.88722 11.4919 9.96691 11.4631 10.0947 11.4537C10.2035 11.4453 10.3878 11.4309 10.5697 11.5294C10.651 11.5731 10.7535 11.6831 10.955 11.9009L10.7553 11.1922L10.3425 10.7103L9.50316 10.5659L8.91816 10.855L8.52597 11.2675L8.40222 11.8181Z" fill="#32313C"/>
<path d="M6.61188 15.7108L6.33594 15.6649C6.42531 15.2158 6.49625 14.9361 6.54844 14.8252C6.58063 14.7564 6.6025 14.5414 6.61812 14.3843C6.63312 14.2352 6.64625 14.1064 6.66969 14.0283C6.70344 13.9127 6.87125 13.7114 7.14406 13.3939C7.26656 13.2511 7.38219 13.1161 7.43125 13.0446C7.52813 12.9024 7.52188 12.3527 7.45938 12.1674C7.44836 12.1323 7.45155 12.0944 7.46826 12.0617C7.48497 12.029 7.51386 12.0042 7.54871 11.9926C7.58355 11.981 7.62155 11.9835 7.65453 11.9997C7.68751 12.0158 7.71282 12.0443 7.725 12.0789C7.79125 12.2789 7.83875 12.943 7.6625 13.2021C7.60438 13.2868 7.48969 13.4208 7.35625 13.5758C7.20938 13.7471 6.96375 14.0333 6.9375 14.1083C6.92188 14.1608 6.90938 14.2886 6.89688 14.4124C6.87094 14.6658 6.85062 14.8399 6.80156 14.9443C6.78656 14.9764 6.72813 15.1261 6.61188 15.7108ZM9.85281 13.758C9.77344 13.758 9.67906 13.7252 9.58719 13.613L9.48469 13.4902C9.41281 13.4039 9.32313 13.2971 9.24969 13.2064C9.10406 13.0261 8.99219 12.7574 9.15656 12.5933C9.18296 12.5692 9.21758 12.5561 9.25332 12.5567C9.28907 12.5573 9.32324 12.5715 9.34882 12.5965C9.3744 12.6215 9.38945 12.6553 9.39089 12.691C9.39233 12.7267 9.38005 12.7617 9.35656 12.7886C9.35031 12.8136 9.37156 12.9124 9.46719 13.0308C9.53938 13.1202 9.62781 13.2255 9.69938 13.3105L9.80406 13.4361C9.84125 13.4814 9.85531 13.4783 9.86094 13.4768C9.89156 13.4677 9.89156 13.4677 9.9225 13.443C9.93969 13.4296 9.96125 13.4127 9.9925 13.3899C10.0888 13.2811 10.7909 11.9368 10.8322 11.7996L10.8331 11.7721C10.8553 11.3596 10.5259 11.0252 10.5119 11.0111C10.2528 10.7514 9.84438 10.6349 9.475 10.7139C9.08656 10.7968 8.81563 11.0736 8.70188 11.2858C8.69625 11.2952 8.56813 11.5089 8.53531 11.9086C8.53236 11.9418 8.51764 11.9729 8.49382 11.9962C8.46999 12.0196 8.43862 12.0336 8.40535 12.0359C8.37209 12.0382 8.3391 12.0285 8.31234 12.0086C8.28558 11.9887 8.2668 11.9599 8.25938 11.9274L8.22187 11.7593C8.21502 11.7286 8.21868 11.6965 8.23229 11.6681C8.24589 11.6398 8.26864 11.6168 8.29687 11.603C8.35812 11.3105 8.455 11.1533 8.46031 11.1452C8.60469 10.8764 8.93531 10.5433 9.41656 10.4405C9.88625 10.3405 10.3806 10.4839 10.7097 10.8136C10.7541 10.8574 11.1409 11.2605 11.1122 11.7868L11.1078 11.8443C11.0959 11.9624 10.2872 13.5239 10.1553 13.6177C10.1288 13.6364 10.1103 13.6511 10.0959 13.6624C10.0518 13.701 9.99942 13.729 9.94281 13.7443C9.91368 13.7534 9.88333 13.758 9.85281 13.758Z" fill="#231F20"/>
<path d="M9.6109 13.5748C9.57955 13.5748 9.54909 13.5643 9.52434 13.5451C9.45122 13.4876 9.10872 13.4876 8.99622 13.4876C8.92965 13.4876 8.86809 13.4923 8.80372 13.4973C8.59045 13.5178 8.37556 13.5142 8.16309 13.4867C7.6809 13.4295 7.5159 13.1667 7.4984 13.1373C7.47988 13.1051 7.47484 13.0669 7.48438 13.031C7.49393 12.9951 7.51728 12.9645 7.54934 12.9457C7.5812 12.9275 7.61889 12.9225 7.65438 12.9318C7.68988 12.941 7.72036 12.9637 7.73934 12.9951C7.74653 13.006 7.85747 13.1688 8.1959 13.2088C8.47622 13.2423 8.63122 13.2301 8.78215 13.2185C9.13653 13.1917 9.5234 13.1892 9.69715 13.3248C9.72 13.3428 9.73667 13.3674 9.74487 13.3953C9.75307 13.4232 9.75238 13.453 9.7429 13.4804C9.73341 13.5079 9.71561 13.5318 9.69196 13.5487C9.66831 13.5656 9.63998 13.5747 9.6109 13.5748ZM15.8081 16.6248H2.19465C2.15756 16.6248 2.12199 16.61 2.09577 16.5838C2.06954 16.5576 2.05481 16.522 2.05481 16.4849C2.05481 16.4478 2.06954 16.4123 2.09577 16.3861C2.12199 16.3598 2.15756 16.3451 2.19465 16.3451H15.8081C15.8452 16.3451 15.8807 16.3598 15.907 16.3861C15.9332 16.4123 15.9479 16.4478 15.9479 16.4849C15.9479 16.522 15.9332 16.5576 15.907 16.5838C15.8807 16.61 15.8452 16.6248 15.8081 16.6248Z" fill="#231F20"/>
</svg>
