<svg width="22" height="16" viewBox="0 0 22 16" fill="none" xmlns="http://www.w3.org/2000/svg">
<path d="M19.6667 10.6709H2.33333C1.59695 10.6709 1 11.2679 1 12.0042V14.0042C1 14.7406 1.59695 15.3376 2.33333 15.3376H19.6667C20.403 15.3376 21 14.7406 21 14.0042V12.0042C21 11.2679 20.403 10.6709 19.6667 10.6709Z" fill="#F05542"/>
<path d="M2.66626 5.00439H6.66626V12.3377H2.66626V5.00439ZM15.3329 5.00439H19.3329V12.3377H15.3329V5.00439Z" fill="#CAD1D8" stroke="black" stroke-linecap="round" stroke-linejoin="round"/>
<path d="M4.66675 5.33789V12.0046M17.3334 5.33789V12.0046" stroke="black"/>
<path d="M6.66671 7.6709H15.3334V9.6709H6.66671V7.6709ZM1.33337 7.6709H2.66671V9.6709H1.33337V7.6709ZM19.3334 7.6709H20.6667V9.6709H19.3334V7.6709Z" fill="#CAD1D8" stroke="black" stroke-linecap="round" stroke-linejoin="round"/>
<path d="M4.66653 3V1M6.66787 3L7.2012 1M2.6652 3L1.99854 1M17.3985 3V1M19.3999 3L19.9332 1M15.3972 3L14.7305 1" stroke="black" stroke-linecap="round" stroke-linejoin="round"/>
</svg>
