<svg width="24" height="24" viewBox="0 0 24 24" fill="none" xmlns="http://www.w3.org/2000/svg">
<path d="M12 3.6001C7.36798 3.6001 3.59998 7.3681 3.59998 12.0001C3.59998 16.6321 7.36798 20.4001 12 20.4001C16.632 20.4001 20.4 16.6321 20.4 12.0001C20.4 7.3681 16.632 3.6001 12 3.6001ZM12 16.8001C9.35318 16.8001 7.19998 14.6469 7.19998 12.0001C7.19998 9.3533 9.35318 7.2001 12 7.2001C14.6468 7.2001 16.8 9.3533 16.8 12.0001C16.8 14.6469 14.6468 16.8001 12 16.8001Z" fill="#FFBDCC"/>
<path d="M12 9.9998C11.7792 9.9998 11.6 9.8206 11.6 9.5998C11.6 9.379 11.7792 9.1998 12 9.1998C12.4412 9.1998 12.8 8.841 12.8 8.3998C12.8 7.9586 12.4412 7.5998 12 7.5998C11.7792 7.5998 11.6 7.4206 11.6 7.1998C11.6 6.979 11.7792 6.7998 12 6.7998C12.8824 6.7998 13.6 7.5174 13.6 8.3998C13.6 9.2822 12.8824 9.9998 12 9.9998Z" fill="#53D0A6"/>
<path d="M12 14.8002C10.456 14.8002 9.19995 13.5442 9.19995 12.0002C9.19995 10.4562 10.456 9.2002 12 9.2002C13.544 9.2002 14.8 10.4562 14.8 12.0002C14.8 13.5442 13.544 14.8002 12 14.8002ZM12 10.0002C10.8972 10.0002 9.99995 10.8974 9.99995 12.0002C9.99995 13.103 10.8972 14.0002 12 14.0002C13.1028 14.0002 14 13.103 14 12.0002C14 10.8974 13.1028 10.0002 12 10.0002Z" fill="#53D0A6"/>
<path d="M12 17.1998C9.13285 17.1998 6.80005 14.867 6.80005 11.9998C6.80005 9.1326 9.13285 6.7998 12 6.7998C14.8672 6.7998 17.2 9.1326 17.2 11.9998C17.2 14.867 14.8672 17.1998 12 17.1998ZM12 7.5998C9.57405 7.5998 7.60005 9.5738 7.60005 11.9998C7.60005 14.4258 9.57405 16.3998 12 16.3998C14.426 16.3998 16.4 14.4258 16.4 11.9998C16.4 9.5738 14.426 7.5998 12 7.5998Z" fill="#FFA96B"/>
<path d="M12 7.5999C11.7792 7.5999 11.6 7.4207 11.6 7.1999C11.6 6.9791 11.7792 6.7999 12 6.7999C12.4412 6.7999 12.8 6.4411 12.8 5.9999C12.8 5.5587 12.4412 5.1999 12 5.1999C11.7792 5.1999 11.6 5.0207 11.6 4.7999C11.6 4.5791 11.7792 4.3999 12 4.3999C12.8824 4.3999 13.6 5.1175 13.6 5.9999C13.6 6.8823 12.8824 7.5999 12 7.5999Z" fill="#FFA96B"/>
<path d="M12 22C6.486 22 2 17.514 2 12C2 8.4864 3.792 5.294 6.794 3.46C6.9832 3.3448 7.2288 3.4044 7.344 3.5928C7.4592 3.7816 7.3996 4.0276 7.2112 4.1428C4.4492 5.83 2.8 8.7672 2.8 12C2.8 17.0728 6.9272 21.2 12 21.2C17.0728 21.2 21.2 17.0728 21.2 12C21.2 6.9272 17.0728 2.8 12 2.8C10.8176 2.8 9.6668 3.0208 8.5792 3.4568C8.374 3.5392 8.1412 3.4392 8.0592 3.2344C7.9768 3.0292 8.0764 2.7964 8.2816 2.7144C9.4644 2.2404 10.7152 2 12 2C17.514 2 22 6.486 22 12C22 17.514 17.514 22 12 22Z" fill="#FF6684"/>
<path d="M12 19.5999C7.80922 19.5999 4.40002 16.1907 4.40002 11.9999C4.40002 7.8091 7.80922 4.3999 12 4.3999C16.1908 4.3999 19.6 7.8091 19.6 11.9999C19.6 16.1907 16.1908 19.5999 12 19.5999ZM12 5.1999C8.25042 5.1999 5.20002 8.2503 5.20002 11.9999C5.20002 15.7495 8.25042 18.7999 12 18.7999C15.7496 18.7999 18.8 15.7495 18.8 11.9999C18.8 8.2503 15.7496 5.1999 12 5.1999Z" fill="#FF6684"/>
<path d="M12 5.2C11.7792 5.2 11.6 5.0208 11.6 4.8C11.6 4.5792 11.7792 4.4 12 4.4C12.4412 4.4 12.8 4.0412 12.8 3.6C12.8 3.1588 12.4412 2.8 12 2.8C11.7792 2.8 11.6 2.6208 11.6 2.4C11.6 2.1792 11.7792 2 12 2C12.8824 2 13.6 2.7176 13.6 3.6C13.6 4.4824 12.8824 5.2 12 5.2Z" fill="#FF6684"/>
</svg>
