<svg width="20" height="20" viewBox="0 0 20 20" fill="none" xmlns="http://www.w3.org/2000/svg">
<path d="M17.375 15.7812H2.625C4.34375 17.9688 7 19.375 10 19.375C13 19.375 15.6562 17.9688 17.375 15.7812Z" fill="#00A58C"/>
<path d="M7.5625 7.48438L10.1562 9.46875L15.5312 2.4375C14.5312 1.70313 13.375 1.14062 12.125 0.859375L7.5625 7.48438Z" fill="#FFDE39"/>
<path d="M14.8906 2L9.73438 9.14062L10.1406 9.45312L15.5156 2.42187C15.3125 2.28125 15.1094 2.14062 14.8906 2Z" fill="#FEC632"/>
<path d="M12.5156 6.34375L9.79688 4.23438L7.82812 7.09375L7.57812 7.5L10.1406 9.45312L12.5156 6.34375Z" fill="white"/>
<path opacity="0.2" d="M12.0312 5.96875L9.73438 9.15625L10.1406 9.45312L12.5156 6.34375L12.0312 5.96875Z" fill="#382673"/>
<path d="M15.3906 16.0938H4.60938C4.39062 16.0938 4.21875 15.9219 4.21875 15.7031C4.21875 15.4844 4.39062 15.3125 4.60938 15.3125H15.3906C15.6094 15.3125 15.7812 15.4844 15.7812 15.7031C15.7812 15.9219 15.6094 16.0938 15.3906 16.0938Z" fill="#00C2A9"/>
<path d="M11.2188 11.9531V8.79688C10.1719 8.85938 9.1875 7.78125 8.20312 6.42188L4.78125 9.70312L10.2344 14.8438H14.5312V14.2344C14.5312 13.6562 14.1719 13.1406 13.6406 12.9219L11.2188 11.9531Z" fill="#F15A9E"/>
<path d="M6.8125 11.625C7.29687 11.1406 7.60938 10.4531 7.60938 9.71875C7.60938 8.96875 7.29688 8.28125 6.79687 7.78125C5.90625 8.3125 5.21875 8.95313 4.79688 9.71875L6.8125 11.625Z" fill="#D44A90"/>
<path d="M15 15.0001C15 15.172 14.8594 15.3126 14.6875 15.3126H10.2344C10.1094 15.3126 9.99998 15.2657 9.90623 15.1876L4.34373 9.9376C4.21873 9.8126 4.21873 9.6251 4.3281 9.5001L4.54685 9.26572C4.67185 9.14072 4.85935 9.14072 4.98435 9.2501L10.4219 14.3751H14.6875C14.8594 14.3751 15 14.5157 15 14.6876V15.0001Z" fill="white"/>
<path d="M10.8125 7.96875C10.5312 7.96875 10.3125 8.20313 10.3125 8.46875V11.0312C10.3125 11.5312 10.7188 11.9375 11.25 11.9375V7.96875H10.8125Z" fill="#A72973"/>
<path d="M10.9375 14.375H14.5312V14.2344C14.5312 13.9375 14.4375 13.6562 14.2813 13.4375H11.875C11.3594 13.4375 10.9375 13.8594 10.9375 14.375Z" fill="#D44A90"/>
<path d="M7.99997 13.5312L6.37497 12.0156C6.29685 11.9531 6.31247 11.8281 6.3906 11.7812L7.15622 11.2187C7.21872 11.1719 7.29685 11.1875 7.35935 11.2344L8.73435 12.5156C8.79685 12.5625 8.79685 12.6562 8.7656 12.7187L8.24997 13.5156C8.18747 13.5937 8.0781 13.6094 7.99997 13.5312Z" fill="white"/>
<path opacity="0.2" d="M7.99997 13.5312L6.37497 12.0156C6.29685 11.9531 6.31247 11.8281 6.3906 11.7812L7.15622 11.2187C7.21872 11.1719 7.29685 11.1875 7.35935 11.2344L8.73435 12.5156C8.79685 12.5625 8.79685 12.6562 8.7656 12.7187L8.24997 13.5156C8.18747 13.5937 8.0781 13.6094 7.99997 13.5312Z" fill="#382673"/>
<path d="M7.54688 7.04684L8.0625 6.29684C8.17187 6.14059 8.40625 6.10934 8.54688 6.24996L8.90625 6.60934C8.9375 6.64059 8.95312 6.68746 8.95312 6.73434C8.9375 6.90621 8.90625 7.34371 9.15625 7.59371C8.48437 7.84371 7.54688 7.04684 7.54688 7.04684Z" fill="#D44A90"/>
<path d="M11.2188 9.34375H10.125M11.2188 10.2813H10.125M11.2188 11.2188H10.125" stroke="#D44A90" stroke-width="0.2" stroke-miterlimit="10" stroke-linecap="round" stroke-linejoin="round"/>
</svg>
