<svg width="23" height="23" viewBox="0 0 23 23" fill="none" xmlns="http://www.w3.org/2000/svg">
<path d="M16.425 8.30227C16.5304 8.19679 16.5897 8.05374 16.5897 7.90459C16.5897 7.75543 16.5304 7.61238 16.425 7.5069L14.9929 6.07477C14.941 6.02105 14.8789 5.9782 14.8103 5.94872C14.7417 5.91923 14.6678 5.90372 14.5932 5.90307C14.5185 5.90242 14.4444 5.91665 14.3753 5.94494C14.3061 5.97322 14.2433 6.01499 14.1905 6.0678C14.1377 6.12062 14.0959 6.18342 14.0677 6.25255C14.0394 6.32168 14.0251 6.39575 14.0258 6.47044C14.0264 6.54512 14.042 6.61894 14.0714 6.68756C14.1009 6.75619 14.1438 6.81826 14.1975 6.87015L15.6296 8.30227C15.7351 8.40772 15.8781 8.46697 16.0273 8.46697C16.1765 8.46697 16.3195 8.40772 16.425 8.30227ZM8.78624 15.1434C8.83996 15.1953 8.88282 15.2574 8.9123 15.326C8.94178 15.3946 8.95729 15.4684 8.95794 15.5431C8.95859 15.6178 8.94436 15.6919 8.91608 15.761C8.88779 15.8301 8.84603 15.8929 8.79321 15.9457C8.7404 15.9986 8.67759 16.0403 8.60846 16.0686C8.53934 16.0969 8.46527 16.1111 8.39058 16.1105C8.31589 16.1098 8.24208 16.0943 8.17345 16.0648C8.10482 16.0353 8.04275 15.9925 7.99087 15.9388L6.55987 14.5078C6.45424 14.4023 6.39485 14.2592 6.39474 14.1099C6.39463 13.9607 6.45383 13.8175 6.5593 13.7118C6.66478 13.6062 6.80789 13.5468 6.95716 13.5467C7.10642 13.5466 7.24962 13.6058 7.35524 13.7113L8.78624 15.1434ZM19.3162 3.20265C19.007 2.89343 18.5875 2.71973 18.1502 2.71973C17.7128 2.71973 17.2934 2.89343 16.9841 3.20265L16.2866 3.90015L16.011 3.62565C15.7936 3.40813 15.5307 3.24154 15.2412 3.13789C14.9517 3.03423 14.6428 2.9961 14.3367 3.02623C14.0307 3.05636 13.7351 3.154 13.4714 3.31213C13.2077 3.47025 12.9823 3.68491 12.8115 3.94065C12.2717 3.82346 11.7085 3.8842 11.2062 4.11376C10.7038 4.34333 10.2893 4.72938 10.0246 5.21417C9.7599 5.69896 9.6593 6.25641 9.73783 6.80314C9.81636 7.34986 10.0698 7.85646 10.4602 8.24715L11.2005 8.98627L8.98537 11.2014L8.24512 10.4611C7.85443 10.0707 7.34783 9.81727 6.80111 9.73874C6.25438 9.6602 5.69693 9.7608 5.21214 10.0255C4.72735 10.2902 4.3413 10.7047 4.11173 11.2071C3.88217 11.7094 3.82143 12.2726 3.93862 12.8124C3.68338 12.9836 3.4692 13.2091 3.31143 13.4729C3.15367 13.7366 3.05624 14.032 3.02613 14.3378C2.99602 14.6437 3.03397 14.9524 3.13728 15.2418C3.24058 15.5312 3.40666 15.7942 3.62362 16.0119L3.89924 16.2875L3.18262 17.0041C2.87321 17.3134 2.69932 17.7329 2.69922 18.1704C2.69911 18.6078 2.87279 19.0274 3.18205 19.3368C3.49131 19.6462 3.91082 19.8201 4.34828 19.8202C4.78574 19.8203 5.20533 19.6467 5.51474 19.3374L6.23249 18.6196L6.50699 18.8941C6.72436 19.1117 6.98728 19.2783 7.2768 19.3819C7.56632 19.4856 7.87523 19.5237 8.18126 19.4936C8.4873 19.4634 8.78284 19.3658 9.04658 19.2077C9.31033 19.0495 9.53571 18.8349 9.70649 18.5791C10.2463 18.6963 10.8094 18.6356 11.3118 18.406C11.8142 18.1765 12.2287 17.7904 12.4934 17.3056C12.7581 16.8208 12.8587 16.2634 12.7802 15.7167C12.7016 15.1699 12.4482 14.6633 12.0577 14.2726L11.3175 13.5335L13.5326 11.3195L14.2729 12.0586C14.6636 12.4486 15.1701 12.7015 15.7166 12.7798C16.263 12.858 16.8202 12.7573 17.3047 12.4927C17.7891 12.2281 18.175 11.8139 18.4046 11.3118C18.6341 10.8098 18.6951 10.2469 18.5782 9.7074C18.8335 9.53622 19.0477 9.31068 19.2054 9.04694C19.3632 8.78321 19.4606 8.48782 19.4907 8.18198C19.5208 7.87614 19.4829 7.56742 19.3796 7.27798C19.2763 6.98855 19.1102 6.72556 18.8932 6.5079L18.6176 6.2334L19.3151 5.5359C19.4684 5.38273 19.59 5.20087 19.6729 5.00069C19.7559 4.80052 19.7986 4.58596 19.7986 4.36927C19.7986 4.15259 19.7559 3.93803 19.6729 3.73785C19.59 3.53768 19.4684 3.35581 19.3151 3.20265H19.3162ZM17.8222 5.43802L17.0809 4.69552L17.7784 3.99802C17.8768 3.89956 18.0104 3.84425 18.1496 3.84425C18.2889 3.84425 18.4224 3.89956 18.5209 3.99802C18.6193 4.09648 18.6746 4.23003 18.6746 4.36927C18.6746 4.50852 18.6193 4.64206 18.5209 4.74052L17.8234 5.43802H17.8222ZM12.7372 10.523L10.5221 12.7381L9.78074 11.9968L11.9959 9.78277L12.7372 10.523ZM5.43599 17.8243L4.71937 18.5409C4.62105 18.6394 4.48765 18.6947 4.34851 18.6948C4.20937 18.6949 4.07589 18.6398 3.97743 18.5415C3.87897 18.4431 3.82359 18.3097 3.82349 18.1706C3.82338 18.0315 3.87855 17.898 3.97687 17.7995L4.69574 17.0829L5.43599 17.8243ZM13.8667 4.42102C13.9553 4.33231 14.0606 4.26193 14.1764 4.21391C14.2922 4.1659 14.4164 4.14118 14.5417 4.14118C14.6671 4.14118 14.7913 4.1659 14.9071 4.21391C15.0229 4.26193 15.1281 4.33231 15.2167 4.42102L18.099 7.30327C18.2147 7.41855 18.2988 7.5616 18.3434 7.71872C18.388 7.87584 18.3914 8.04177 18.3535 8.20062C18.3156 8.35947 18.2375 8.50593 18.1267 8.62596C18.016 8.74599 17.8763 8.83558 17.721 8.88615C17.6457 8.91069 17.5764 8.95087 17.5176 9.00405C17.4589 9.05724 17.4121 9.12223 17.3802 9.19477C17.3483 9.26731 17.3322 9.34577 17.3327 9.425C17.3333 9.50423 17.3506 9.58244 17.3835 9.65452C17.5228 9.95976 17.5506 10.3042 17.4619 10.6279C17.3732 10.9515 17.1737 11.2337 16.8982 11.4252C16.6227 11.6167 16.2887 11.7054 15.9544 11.6758C15.6202 11.6462 15.3069 11.5002 15.0694 11.2633L11.2556 7.45065C11.0187 7.21307 10.8726 6.89984 10.8431 6.5656C10.8135 6.23136 10.9022 5.89735 11.0937 5.62183C11.2852 5.34632 11.5674 5.14681 11.891 5.05812C12.2146 4.96942 12.5591 4.99717 12.8644 5.13652C12.9365 5.16961 13.0148 5.18706 13.0942 5.18772C13.1735 5.18839 13.2521 5.17225 13.3248 5.14037C13.3975 5.1085 13.4626 5.0616 13.5159 5.00277C13.5691 4.94394 13.6093 4.8745 13.6339 4.79902C13.6804 4.65635 13.7603 4.5268 13.8667 4.42102ZM5.42587 11.2565C5.69443 10.988 6.05862 10.8372 6.43837 10.8372C6.81811 10.8372 7.1823 10.988 7.45087 11.2565L11.2635 15.0691C11.5004 15.3067 11.6465 15.62 11.6761 15.9542C11.7056 16.2884 11.6169 16.6224 11.4254 16.898C11.2339 17.1735 10.9517 17.373 10.6281 17.4617C10.3045 17.5504 9.95998 17.5226 9.65474 17.3833C9.58261 17.3502 9.50429 17.3327 9.42493 17.3321C9.34557 17.3314 9.26697 17.3475 9.19429 17.3794C9.12161 17.4113 9.0565 17.4582 9.00324 17.517C8.94997 17.5759 8.90976 17.6453 8.88524 17.7208C8.83458 17.8758 8.745 18.0153 8.62506 18.1259C8.50511 18.2365 8.35881 18.3145 8.20014 18.3524C8.04147 18.3903 7.87572 18.3869 7.71874 18.3425C7.56176 18.2981 7.41879 18.2142 7.30349 18.0988L4.42124 15.2165C4.30583 15.1012 4.22191 14.9583 4.1775 14.8013C4.1331 14.6443 4.1297 14.4785 4.16761 14.3199C4.20553 14.1612 4.28351 14.0149 4.39409 13.895C4.50467 13.775 4.64417 13.6854 4.79924 13.6348C4.87472 13.6103 4.94416 13.57 5.00299 13.5168C5.06182 13.4635 5.10871 13.3984 5.14059 13.3257C5.17247 13.253 5.1886 13.1744 5.18794 13.0951C5.18728 13.0157 5.16983 12.9374 5.13674 12.8653C5.01508 12.5996 4.97757 12.3032 5.02925 12.0156C5.08093 11.728 5.21933 11.4632 5.42587 11.2565Z" fill="#7B6F72"/>
</svg>
