<svg width="46" height="46" viewBox="0 0 46 46" fill="none" xmlns="http://www.w3.org/2000/svg">
<circle cx="23" cy="23" r="23" fill="#E5E5E5"/>
<path d="M24.3467 15.3148L24.3148 21.6984L30.6983 21.7304C31.4207 21.734 32.0035 22.3226 31.9999 23.0451C31.9963 23.7675 31.4076 24.3504 30.6852 24.3468L24.3016 24.3148L24.2697 30.6982C24.2661 31.4206 23.6774 32.0035 22.9549 31.9999C22.2326 31.9962 21.6497 31.4075 21.6533 30.6851L21.6853 24.3017L15.3018 24.2697C14.5794 24.2661 13.9965 23.6773 14.0001 22.955C14.0037 22.2325 14.5925 21.6497 15.3149 21.6534L21.6984 21.6853L21.7304 15.3017C21.734 14.5793 22.3228 13.9965 23.0451 14.0001C23.7675 14.0037 24.3503 14.5924 24.3467 15.3148Z" fill="#FC4D1F" stroke="white"/>
</svg>
