<svg width="219" height="38" viewBox="0 0 219 38" fill="none" xmlns="http://www.w3.org/2000/svg">
<path d="M16.7817 15.56C19.5817 14.64 21.4617 12.48 21.4617 9.16C21.4617 4.52 17.8217 2 11.8217 2H0.141719V30H12.6217C19.5017 30 22.9417 27.32 22.9417 22.6C22.9417 18.72 20.7417 16.32 16.7817 15.56ZM11.7417 3.76C16.5817 3.76 19.3817 5.64 19.3817 9.32C19.3817 13.04 16.5817 14.92 11.7417 14.92H2.18172V3.76H11.7417ZM12.6217 28.24H2.18172V16.68H12.6217C17.9817 16.68 20.9017 18.44 20.9017 22.44C20.9017 26.48 17.9817 28.24 12.6217 28.24ZM37.7398 30.16C43.7398 30.16 48.1798 25.76 48.1798 19.56C48.1798 13.36 43.7398 8.96 37.7398 8.96C31.7398 8.96 27.2998 13.36 27.2998 19.56C27.2998 25.76 31.7398 30.16 37.7398 30.16ZM37.7398 28.36C32.9398 28.36 29.3398 24.8 29.3398 19.56C29.3398 14.32 32.9398 10.76 37.7398 10.76C42.5398 10.76 46.1398 14.32 46.1398 19.56C46.1398 24.8 42.5398 28.36 37.7398 28.36ZM70.9445 0.319998V13.96C69.2645 10.8 66.1445 8.96 62.4245 8.96C56.5445 8.96 52.1045 13.28 52.1045 19.56C52.1045 25.8 56.5445 30.16 62.4245 30.16C66.1845 30.16 69.3445 28.32 70.9845 25.08V30H72.9445V0.319998H70.9445ZM62.5445 28.36C57.7445 28.36 54.1445 24.8 54.1445 19.56C54.1445 14.32 57.7445 10.76 62.5445 10.76C67.3445 10.76 70.9445 14.32 70.9445 19.56C70.9445 24.8 67.3445 28.36 62.5445 28.36ZM96.0967 9.12L87.7367 27.8L79.3767 9.12H77.2567L86.6567 29.92L85.5367 32.44C84.2567 35.28 82.8567 36.16 80.9367 36.16C79.3767 36.16 78.1367 35.64 77.0567 34.52L76.0567 36.04C77.2567 37.28 79.0167 37.92 80.8967 37.92C83.6567 37.92 85.7367 36.68 87.4167 32.84L98.1367 9.12H96.0967ZM122.75 7.2V2H101.59V30H108.07V19.8H121.03V14.6H108.07V7.2H122.75ZM167.6 30L161.32 21C164.96 19.44 167.08 16.36 167.08 12.16C167.08 5.88 162.4 2 154.92 2H142.8V30H149.28V22.2H154.92H155.24L160.64 30H167.6ZM160.52 12.16C160.52 15.2 158.52 17.04 154.56 17.04H149.28V7.28H154.56C158.52 7.28 160.52 9.08 160.52 12.16ZM181.415 30.48C189.415 30.48 193.295 26.48 193.295 21.8C193.295 11.52 177.015 15.08 177.015 9.92C177.015 8.16 178.495 6.72 182.335 6.72C184.815 6.72 187.495 7.44 190.095 8.92L192.095 4C189.495 2.36 185.895 1.52 182.375 1.52C174.415 1.52 170.575 5.48 170.575 10.24C170.575 20.64 186.855 17.04 186.855 22.28C186.855 24 185.295 25.28 181.455 25.28C178.095 25.28 174.575 24.08 172.215 22.36L170.015 27.24C172.495 29.16 176.975 30.48 181.415 30.48ZM203.132 30H209.612V7.28H218.572V2H194.172V7.28H203.132V30Z" fill="#371B34"/>
<path d="M124.096 2V7.2H129.696V30H136.176V2H124.096Z" fill="#FC4D1F"/>
</svg>
