<svg width="24" height="20" viewBox="0 0 24 20" fill="none" xmlns="http://www.w3.org/2000/svg">
<g clip-path="url(#clip0_585_642)">
<path d="M8.05826 5.42155H2.12881C1.84927 5.42142 1.57244 5.47636 1.31413 5.58324C1.05583 5.69013 0.821119 5.84685 0.623404 6.04447C0.42569 6.24209 0.268848 6.47673 0.161841 6.73498C0.054833 6.99323 -0.000244174 7.27003 -0.000244141 7.54958C-0.000244145 8.11392 0.223922 8.65515 0.622948 9.05422C1.02197 9.4533 1.56318 9.67753 2.12752 9.6776H8.05826C8.62264 9.6776 9.16391 9.4534 9.56299 9.05431C9.96208 8.65523 10.1863 8.11396 10.1863 7.54958C10.1863 6.98519 9.96208 6.44392 9.56299 6.04484C9.16391 5.64576 8.62264 5.42155 8.05826 5.42155ZM18.5719 5.95233H20.8282C21.3926 5.95233 21.9339 5.72813 22.3329 5.32905C22.732 4.92997 22.9562 4.3887 22.9562 3.82431C22.9562 3.25992 22.732 2.71865 22.3329 2.31957C21.9339 1.92049 21.3926 1.69629 20.8282 1.69629H18.5719C18.0076 1.69649 17.4665 1.92079 17.0676 2.31985C16.6687 2.71891 16.4446 3.26006 16.4446 3.82431C16.4446 4.38856 16.6687 4.92972 17.0676 5.32878C17.4665 5.72784 18.0076 5.95213 18.5719 5.95233ZM20.9503 13.4062H17.9332C17.6518 13.4031 17.3725 13.4559 17.1116 13.5614C16.8508 13.667 16.6134 13.8232 16.4133 14.0211C16.2132 14.219 16.0544 14.4546 15.946 14.7143C15.8375 14.9741 15.7817 15.2527 15.7817 15.5341C15.7817 15.8155 15.8375 16.0942 15.946 16.3539C16.0544 16.6136 16.2132 16.8492 16.4133 17.0471C16.6134 17.245 16.8508 17.4013 17.1116 17.5068C17.3725 17.6124 17.6518 17.6651 17.9332 17.662H20.95C21.2315 17.6651 21.5107 17.6124 21.7716 17.5068C22.0325 17.4013 22.2698 17.245 22.4699 17.0471C22.67 16.8492 22.8289 16.6136 22.9373 16.3539C23.0457 16.0942 23.1015 15.8155 23.1015 15.5341C23.1015 15.2527 23.0457 14.9741 22.9373 14.7143C22.8289 14.4546 22.67 14.219 22.4699 14.0211C22.2698 13.8232 22.0325 13.667 21.7716 13.5614C21.5107 13.4559 21.2315 13.4031 20.95 13.4062H20.9503Z" fill="#D4EBDF"/>
<path d="M14.5019 2.59619H4.45171C4.1868 2.59619 3.93275 2.70142 3.74543 2.88874C3.55811 3.07606 3.45288 3.33011 3.45288 3.59502V17.0039C3.45288 17.2688 3.55811 17.5229 3.74543 17.7102C3.93275 17.8975 4.1868 18.0027 4.45171 18.0027H14.5019C14.7668 18.0027 15.0209 17.8975 15.2082 17.7102C15.3955 17.5229 15.5007 17.2688 15.5007 17.0039V3.59502C15.5007 3.33011 15.3955 3.07606 15.2082 2.88874C15.0209 2.70142 14.7668 2.59619 14.5019 2.59619Z" fill="#66C190" stroke="#343434"/>
<path d="M4.4856 16.4664V4.56959C4.4856 4.43601 4.53866 4.3079 4.63312 4.21344C4.72757 4.11898 4.85569 4.06592 4.98927 4.06592H13.9645C14.0981 4.06592 14.2262 4.11898 14.3206 4.21344C14.4151 4.3079 14.4682 4.43601 14.4682 4.56959V16.4664C14.4682 16.6 14.4151 16.7281 14.3206 16.8226C14.2262 16.917 14.0981 16.9701 13.9645 16.9701H4.98927C4.85569 16.9701 4.72757 16.917 4.63312 16.8226C4.53866 16.7281 4.4856 16.6 4.4856 16.4664Z" fill="white"/>
<path d="M14.6925 15.6751C14.8628 15.6751 15.0008 15.5371 15.0008 15.3668C15.0008 15.1966 14.8628 15.0586 14.6925 15.0586C14.5223 15.0586 14.3843 15.1966 14.3843 15.3668C14.3843 15.5371 14.5223 15.6751 14.6925 15.6751Z" fill="white"/>
<path d="M16.5848 16.362C16.6802 16.362 16.7575 16.2847 16.7575 16.1893C16.7575 16.0939 16.6802 16.0166 16.5848 16.0166C16.4894 16.0166 16.4121 16.0939 16.4121 16.1893C16.4121 16.2847 16.4894 16.362 16.5848 16.362Z" fill="white"/>
<path d="M17.6336 15.1965C17.729 15.1965 17.8064 15.1192 17.8064 15.0238C17.8064 14.9284 17.729 14.8511 17.6336 14.8511C17.5383 14.8511 17.4609 14.9284 17.4609 15.0238C17.4609 15.1192 17.5383 15.1965 17.6336 15.1965Z" fill="white"/>
<path d="M15.467 13.5389C15.6302 13.5389 15.7626 13.4066 15.7626 13.2433C15.7626 13.0801 15.6302 12.9478 15.467 12.9478C15.3037 12.9478 15.1714 13.0801 15.1714 13.2433C15.1714 13.4066 15.3037 13.5389 15.467 13.5389Z" fill="#66C190"/>
<path d="M16.4619 11.3514C16.6251 11.3514 16.7574 11.2191 16.7574 11.0558C16.7574 10.8926 16.6251 10.7603 16.4619 10.7603C16.2986 10.7603 16.1663 10.8926 16.1663 11.0558C16.1663 11.2191 16.2986 11.3514 16.4619 11.3514Z" fill="#66C190"/>
<path d="M12.8966 5.86136H6.0569C6.00555 5.86136 5.9563 5.84096 5.91999 5.80465C5.88368 5.76834 5.86328 5.71909 5.86328 5.66774C5.86328 5.61639 5.88368 5.56714 5.91999 5.53083C5.9563 5.49452 6.00555 5.47412 6.0569 5.47412H12.8966C12.948 5.47412 12.9972 5.49452 13.0335 5.53083C13.0698 5.56714 13.0902 5.61639 13.0902 5.66774C13.0902 5.71909 13.0698 5.76834 13.0335 5.80465C12.9972 5.84096 12.948 5.86136 12.8966 5.86136ZM12.8966 7.8017H6.0569C6.00555 7.8017 5.9563 7.7813 5.91999 7.74499C5.88368 7.70868 5.86328 7.65943 5.86328 7.60808C5.86328 7.55673 5.88368 7.50748 5.91999 7.47117C5.9563 7.43486 6.00555 7.41446 6.0569 7.41446H12.8966C12.948 7.41446 12.9972 7.43486 13.0335 7.47117C13.0698 7.50748 13.0902 7.55673 13.0902 7.60808C13.0902 7.65943 13.0698 7.70868 13.0335 7.74499C12.9972 7.7813 12.948 7.8017 12.8966 7.8017ZM12.8966 9.74204H6.0569C6.00555 9.74204 5.9563 9.72164 5.91999 9.68533C5.88368 9.64902 5.86328 9.59977 5.86328 9.54842C5.86328 9.49707 5.88368 9.44782 5.91999 9.41151C5.9563 9.3752 6.00555 9.3548 6.0569 9.3548H12.8966C12.948 9.3548 12.9972 9.3752 13.0335 9.41151C13.0698 9.44782 13.0902 9.49707 13.0902 9.54842C13.0902 9.59977 13.0698 9.64902 13.0335 9.68533C12.9972 9.72164 12.948 9.74204 12.8966 9.74204ZM12.8966 11.6821H6.0569C6.00555 11.6821 5.9563 11.6617 5.91999 11.6254C5.88368 11.5891 5.86328 11.5399 5.86328 11.4885C5.86328 11.4371 5.88368 11.3879 5.91999 11.3516C5.9563 11.3153 6.00555 11.2949 6.0569 11.2949H12.8966C12.948 11.2949 12.9972 11.3153 13.0335 11.3516C13.0698 11.3879 13.0902 11.4371 13.0902 11.4885C13.0902 11.5399 13.0698 11.5891 13.0335 11.6254C12.9972 11.6617 12.948 11.6821 12.8966 11.6821ZM11.012 13.6225H6.0569C6.00555 13.6225 5.9563 13.6021 5.91999 13.5657C5.88368 13.5294 5.86328 13.4802 5.86328 13.4288C5.86328 13.3775 5.88368 13.3282 5.91999 13.2919C5.9563 13.2556 6.00555 13.2352 6.0569 13.2352H11.0123C11.0637 13.2352 11.1129 13.2556 11.1492 13.2919C11.1855 13.3282 11.2059 13.3775 11.2059 13.4288C11.2059 13.4802 11.1855 13.5294 11.1492 13.5657C11.1129 13.6021 11.0637 13.6225 11.0123 13.6225H11.012ZM11.012 15.5628H6.0569C6.00555 15.5628 5.9563 15.5424 5.91999 15.5061C5.88368 15.4698 5.86328 15.4205 5.86328 15.3692C5.86328 15.3178 5.88368 15.2686 5.91999 15.2323C5.9563 15.196 6.00555 15.1756 6.0569 15.1756H11.0123C11.0637 15.1756 11.1129 15.196 11.1492 15.2323C11.1855 15.2686 11.2059 15.3178 11.2059 15.3692C11.2059 15.4205 11.1855 15.4698 11.1492 15.5061C11.1129 15.5424 11.0637 15.5628 11.0123 15.5628H11.012Z" fill="#66C190"/>
<path d="M1.35281 14.1392C1.74533 14.1392 2.06353 13.821 2.06353 13.4285C2.06353 13.036 1.74533 12.7178 1.35281 12.7178C0.960289 12.7178 0.64209 13.036 0.64209 13.4285C0.64209 13.821 0.960289 14.1392 1.35281 14.1392Z" fill="#F6E2EE"/>
<path d="M21.8932 10.867C22.0857 10.867 22.2417 10.7109 22.2417 10.5184C22.2417 10.326 22.0857 10.1699 21.8932 10.1699C21.7007 10.1699 21.5447 10.326 21.5447 10.5184C21.5447 10.7109 21.7007 10.867 21.8932 10.867Z" fill="#84B0DE"/>
<path d="M16.7572 0.697035C16.9497 0.697035 17.1057 0.540998 17.1057 0.348517C17.1057 0.156037 16.9497 0 16.7572 0C16.5647 0 16.4087 0.156037 16.4087 0.348517C16.4087 0.540998 16.5647 0.697035 16.7572 0.697035Z" fill="#F3765D"/>
<path d="M2.41199 2.59645C2.60447 2.59645 2.76051 2.44041 2.76051 2.24793C2.76051 2.05545 2.60447 1.89941 2.41199 1.89941C2.21951 1.89941 2.06348 2.05545 2.06348 2.24793C2.06348 2.44041 2.21951 2.59645 2.41199 2.59645Z" fill="#5DCAE7"/>
<path d="M7.62952 19.9998C7.822 19.9998 7.97804 19.8437 7.97804 19.6513C7.97804 19.4588 7.822 19.3027 7.62952 19.3027C7.43704 19.3027 7.28101 19.4588 7.28101 19.6513C7.28101 19.8437 7.43704 19.9998 7.62952 19.9998Z" fill="#FDBE5C"/>
</g>
<defs>
<clipPath id="clip0_585_642">
<rect width="23.0773" height="20" fill="white"/>
</clipPath>
</defs>
</svg>
