<svg width="46" height="46" viewBox="0 0 46 46" fill="none" xmlns="http://www.w3.org/2000/svg">
<circle cx="23" cy="23" r="23" fill="#E5E5E5"/>
<path d="M18.5294 16.6057L23.0126 21.1502L27.557 16.667C28.0713 16.1596 28.8996 16.1652 29.4071 16.6795C29.9144 17.1938 29.9088 18.0222 29.3945 18.5296L24.8501 23.0128L29.3332 27.5571C29.8406 28.0714 29.835 28.8997 29.3207 29.4071C28.8065 29.9144 27.978 29.9089 27.4707 29.3946L22.9876 24.8503L18.4432 29.3334C17.929 29.8407 17.1004 29.8351 16.5932 29.3209C16.0857 28.8065 16.0915 27.9782 16.6057 27.4709L21.1501 22.9877L16.6668 18.4432C16.1594 17.9289 16.1651 17.1005 16.6794 16.5932C17.1936 16.0858 18.022 16.0914 18.5294 16.6057Z" fill="#FC4D1F" stroke="white"/>
</svg>
