<svg width="46" height="46" viewBox="0 0 46 46" fill="none" xmlns="http://www.w3.org/2000/svg">
<path d="M46 23C46 35.7025 35.7025 46 23 46C10.2975 46 0 35.7025 0 23C0 10.2975 10.2975 0 23 0C35.7025 0 46 10.2975 46 23Z" fill="#FC4D1F"/>
<path d="M15.3082 21.6918H21.6919V15.3082C21.6919 14.5858 22.2776 14 23.0001 14C23.7224 14 24.3083 14.5858 24.3083 15.3082V21.6918H30.6918C31.4142 21.6918 32 22.2776 32 23C32 23.7223 31.4142 24.3082 30.6918 24.3082H24.3083V30.6918C24.3083 31.4141 23.7224 32 23.0001 32C22.2776 32 21.6919 31.4141 21.6919 30.6918V24.3082H15.3082C14.5858 24.3082 14 23.7223 14 23C14 22.2776 14.5858 21.6918 15.3082 21.6918Z" fill="white" stroke="white"/>
</svg>
