<svg width="50" height="50" viewBox="0 0 50 50" fill="none" xmlns="http://www.w3.org/2000/svg">
<path d="M25 50C38.8071 50 50 38.8071 50 25C50 11.1929 38.8071 0 25 0C11.1929 0 0 11.1929 0 25C0 38.8071 11.1929 50 25 50Z" fill="#68B42E"/>
<path d="M32.2366 28.6285L29.7164 28.2079C29.4186 28.1576 29.1133 28.1753 28.8232 28.2596C28.5332 28.3439 28.266 28.4927 28.0415 28.6947L26.1105 30.4358C23.3509 28.8461 21.166 26.4228 19.8695 23.5139L21.8079 21.7662C22.032 21.5637 22.2076 21.3133 22.3214 21.0335C22.4351 20.7537 22.4842 20.4518 22.465 20.1504L22.3059 17.6144C22.2758 17.124 22.0663 16.6617 21.7172 16.3159C21.3681 15.97 20.904 15.7648 20.4132 15.7393L18.6902 15.6502C18.4212 15.6338 18.1516 15.6724 17.898 15.7636C17.6444 15.8548 17.412 15.9967 17.215 16.1806C17.018 16.3645 16.8606 16.5866 16.7522 16.8334C16.6438 17.0802 16.5868 17.3464 16.5847 17.6159C16.6316 21.7542 18.1866 25.7333 20.9579 28.807C23.7293 31.8807 27.5267 33.8379 31.6382 34.3115C31.9064 34.3372 32.1771 34.308 32.4338 34.2257C32.6904 34.1434 32.9276 34.0096 33.1308 33.8327C33.3341 33.6557 33.4992 33.4392 33.6161 33.1963C33.7329 32.9535 33.7991 32.6894 33.8106 32.4201L33.8997 30.6971C33.9258 30.208 33.7705 29.7265 33.4637 29.3448C33.1568 28.9631 32.7198 28.7081 32.2366 28.6285Z" fill="white"/>
</svg>
