<svg width="50" height="50" viewBox="0 0 50 50" fill="none" xmlns="http://www.w3.org/2000/svg">
<rect x="0.4" y="0.4" width="49.2" height="49.2" rx="13.6" stroke="#DDDADA" stroke-width="0.8"/>
<path d="M25.828 16.7404C27.1176 15.0084 28.9103 15 28.9103 15C28.9103 15 29.177 16.6284 27.8959 18.197C26.528 19.872 24.9733 19.5979 24.9733 19.5979C24.9733 19.5979 24.6813 18.2806 25.828 16.7404ZM25.1373 20.7386C25.8007 20.7386 27.0319 19.8093 28.6345 19.8093C31.3932 19.8093 32.4784 21.8096 32.4784 21.8096C32.4784 21.8096 30.3559 22.9155 30.3559 25.5989C30.3559 28.626 33 29.6692 33 29.6692C33 29.6692 31.1517 34.9706 28.6551 34.9706C27.5084 34.9706 26.6169 34.1832 25.4087 34.1832C24.1775 34.1832 22.9557 35 22.1599 35C19.8801 35.0001 17 29.9711 17 25.9286C17 21.9514 19.4378 19.865 21.7244 19.865C23.2109 19.865 24.3645 20.7386 25.1373 20.7386Z" fill="black"/>
</svg>
