<svg width="50" height="50" viewBox="0 0 50 50" fill="none" xmlns="http://www.w3.org/2000/svg">
<circle opacity="0.3" cx="25" cy="25" r="25" fill="#FF9F8A"/>
<path d="M32.2293 23.7706H26.2296V17.771C26.2296 17.092 25.6792 16.5415 25.0001 16.5415C24.3212 16.5415 23.7706 17.092 23.7706 17.771V23.7706H17.7711C17.0921 23.7706 16.5416 24.3211 16.5416 25.0001C16.5416 25.679 17.0921 26.2296 17.7711 26.2296H23.7706V32.2291C23.7706 32.908 24.3212 33.4586 25.0001 33.4586C25.6792 33.4586 26.2296 32.908 26.2296 32.2291V26.2296H32.2293C32.9082 26.2296 33.4588 25.679 33.4588 25.0001C33.4588 24.3211 32.9082 23.7706 32.2293 23.7706Z" fill="#FC4D1F"/>
</svg>
