<svg width="22" height="20" viewBox="0 0 22 20" fill="none" xmlns="http://www.w3.org/2000/svg">
<path d="M4.59737 0H1.40133C0.682457 0 0.0976257 0.58483 0.0976257 1.30347V4.49951C0.0976257 5.21841 0.682457 5.80297 1.40133 5.80297H4.59737C5.31624 5.80297 5.90084 5.21814 5.90084 4.49951V1.30347C5.90061 0.584596 5.31601 0 4.59737 0Z" fill="#E5E5E5"/>
<path d="M20.5987 0H8.35414C7.63523 0 7.05067 0.58483 7.05067 1.30347V4.49951C7.05067 5.21841 7.63527 5.80297 8.35414 5.80297H20.5987C21.3176 5.80297 21.9024 5.21814 21.9024 4.49951V1.30347C21.9024 0.584596 21.3173 0 20.5987 0Z" fill="#E5E5E5"/>
<path d="M4.59736 7.03076H1.40131C0.682441 7.03076 0.0976105 7.61559 0.0976105 8.33423V11.5303C0.0976105 12.2491 0.682441 12.8337 1.40131 12.8337H4.59736C5.31623 12.8337 5.90082 12.2491 5.90082 11.5303V8.33423C5.90059 7.61536 5.31599 7.03076 4.59736 7.03076Z" fill="#E5E5E5"/>
<path d="M20.5987 7.03076H8.35414C7.63523 7.03076 7.05067 7.61559 7.05067 8.33423V11.5303C7.05067 12.2491 7.63527 12.8337 8.35414 12.8337H20.5987C21.3176 12.8337 21.9024 12.2491 21.9024 11.5303V8.33423C21.9024 7.61536 21.3173 7.03076 20.5987 7.03076Z" fill="#E5E5E5"/>
<path d="M4.59736 14.0625H1.40131C0.682441 14.0625 0.0976105 14.6473 0.0976105 15.3662V18.5622C0.0976105 19.2811 0.682441 19.8657 1.40131 19.8657H4.59736C5.31623 19.8657 5.90082 19.2811 5.90082 18.5622V15.3662C5.90059 14.6473 5.31599 14.0625 4.59736 14.0625Z" fill="#E5E5E5"/>
<path d="M20.5987 14.0625H8.35414C7.63523 14.0625 7.05067 14.6473 7.05067 15.3662V18.5622C7.05067 19.2811 7.63527 19.8657 8.35414 19.8657H20.5987C21.3176 19.8657 21.9024 19.2811 21.9024 18.5622V15.3662C21.9024 14.6473 21.3173 14.0625 20.5987 14.0625Z" fill="#E5E5E5"/>
</svg>
