<svg width="20" height="18" viewBox="0 0 20 18" fill="none" xmlns="http://www.w3.org/2000/svg">
<path d="M0.374646 3.80371C0.374646 3.80371 0.2163 4.5333 0.163717 4.87927C0.0748997 5.17666 0.0217449 5.48355 0.00537109 5.79349C0.103681 6.16627 0.257793 6.52204 0.462483 6.84874C0.673412 7.22697 0.884341 7.36739 0.893304 7.86872C0.902267 8.05336 0.779175 8.29058 0.945887 8.36109C1.11309 8.42097 1.29537 8.42411 1.46454 8.37005C1.58764 8.32583 1.60496 7.67572 1.60496 7.58729C1.60496 7.49885 1.35878 7.48152 1.3062 7.28852C1.13908 6.83483 1.00704 6.36898 0.91123 5.89507C0.937521 5.70147 1.24525 4.75976 1.24525 4.75976L0.374646 3.80371Z" fill="#FBD7C7"/>
<path opacity="0.2" d="M5.55347 17.6696C7.32097 16.9926 6.30935 16.0252 4.62132 15.7264C3.88277 15.5944 3.11793 14.091 1.27156 15.2693C-0.214505 16.2188 1.13114 16.7817 1.89598 17.1336C2.94226 17.6266 3.90906 18.303 5.55347 17.6696Z" fill="black"/>
<path d="M1.26318 2.9161C1.40016 2.83197 1.51739 2.71929 1.6069 2.58576C1.6964 2.45223 1.75607 2.30097 1.78184 2.1423C1.73762 1.89611 0.849691 0.383761 2.3973 0.067069C2.53772 0.0430702 2.68153 0.0473187 2.82029 0.0795647C2.95905 0.111811 3.08999 0.171407 3.20544 0.254867C3.3209 0.338327 3.41855 0.443976 3.49268 0.565629C3.56681 0.687283 3.61593 0.822499 3.63718 0.963367C3.69693 1.49099 3.67243 2.27316 3.46987 2.36996C3.26731 2.46676 3.13585 2.40521 2.99483 2.57192C2.92841 2.66045 2.88769 2.76557 2.87715 2.87573C2.86661 2.9859 2.88665 3.09683 2.93508 3.19635C2.96343 3.26731 3.00736 3.33099 3.06362 3.3827C3.11988 3.43441 3.18704 3.47283 3.26014 3.49511H1.3074L1.26318 2.9161Z" fill="#FBD7C7"/>
<path d="M2.37926 0.0148549C0.825681 0.278367 1.77277 2.20421 1.76381 2.23947C1.86036 2.281 1.96505 2.3002 2.07006 2.29565C2.17507 2.2911 2.2777 2.26291 2.3703 2.21318C2.52865 2.09905 2.61649 1.69452 2.79216 1.54513C2.96783 1.39575 3.06463 1.53617 3.0736 1.58935C3.07925 1.62714 3.08225 1.66528 3.08256 1.70348L3.20565 1.65926C3.25324 1.49335 3.27974 1.32211 3.28453 1.14957C3.29349 0.850802 3.22477 0.552036 3.24927 0.492283C3.27377 0.43253 3.37236 0.48332 3.43391 0.465991C3.3204 0.297043 3.16042 0.164551 2.97328 0.0845009C2.78615 0.00445068 2.57984 -0.0197369 2.37926 0.0148549Z" fill="#825012"/>
<path d="M1.13062 16.2629C1.13184 16.3257 1.14787 16.3873 1.1774 16.4427C1.20694 16.4981 1.24914 16.5457 1.30056 16.5817C1.35199 16.6177 1.41119 16.641 1.47335 16.6498C1.5355 16.6586 1.59885 16.6525 1.65824 16.6322C1.98464 16.4899 2.30372 16.3314 2.61429 16.1572C3.00985 15.9899 3.34387 15.8847 3.43171 15.6295C3.51955 15.3744 3.38749 15.0667 2.78996 15.0918C2.40278 15.1289 2.04284 15.3074 1.77894 15.5931L1.13062 16.2629Z" fill="#262626"/>
<path d="M1.25415 16.4304C1.61845 16.3405 1.96784 16.1984 2.29147 16.0085C2.48507 15.9028 3.21465 15.6919 3.32042 15.4546C3.42618 15.2174 2.89856 14.9975 2.52032 15.1296C2.14208 15.2616 1.76444 15.3686 1.76444 15.3686L1.25415 16.4304Z" fill="white"/>
<path d="M3.26733 17.2831C3.29363 17.4504 3.22312 17.6786 3.55773 17.6613C3.89235 17.644 4.51379 17.5209 4.76236 17.503C5.01093 17.485 5.9144 17.3709 6.09904 17.0459C6.14197 16.9875 6.16946 16.9192 6.17895 16.8474C6.18845 16.7755 6.17965 16.7025 6.15337 16.6349C6.12708 16.5674 6.08417 16.5076 6.0286 16.4611C5.97304 16.4146 5.90663 16.3828 5.83553 16.3689C5.56305 16.3426 5.22007 16.5625 4.9213 16.4919C4.67263 16.4301 4.42879 16.3502 4.19171 16.2529L3.26733 17.2831Z" fill="#262626"/>
<path d="M3.46923 17.3001C3.84534 17.3197 4.22246 17.2997 4.59439 17.2404C5.01624 17.1806 5.8492 17.082 6.02846 16.748C6.16052 16.4929 5.97588 16.3082 5.62393 16.3525C5.27199 16.3967 5.33353 16.4756 5.01744 16.4756C4.75944 16.4637 4.50466 16.4134 4.26156 16.3262L3.4519 17.2918L3.46923 17.3001Z" fill="white"/>
<path d="M1.15743 7.38243C0.950428 7.68984 0.814587 8.03956 0.759803 8.4061C0.705018 8.77264 0.732668 9.14678 0.840741 9.50128C1.09589 10.7561 1.35044 11.7169 1.18372 12.174C0.998116 12.6633 0.897087 13.1806 0.884959 13.7037C0.905031 14.0204 0.896231 14.3382 0.858667 14.6532C0.783915 15.1722 0.783915 15.6992 0.858667 16.2181C0.881804 16.2849 0.91802 16.3464 0.965198 16.399C1.01238 16.4517 1.06957 16.4944 1.13344 16.5246C1.1973 16.5549 1.26656 16.5721 1.33716 16.5753C1.40777 16.5785 1.4783 16.5676 1.54463 16.5432C1.89358 16.4524 2.19702 16.2365 2.39731 15.9367C2.52937 15.5148 2.30948 14.6442 2.4236 14.1871C2.52208 13.8571 2.58969 13.5186 2.62557 13.1761C2.6987 12.5138 2.80963 11.8563 2.9578 11.2066C3.15976 10.2924 3.55533 9.24614 3.49558 8.55121C3.43582 7.85628 1.15684 7.38184 1.15684 7.38184L1.15743 7.38243Z" fill="#06547A"/>
<path opacity="0.2" d="M1.15743 7.38243C0.950428 7.68984 0.814587 8.03956 0.759803 8.4061C0.705018 8.77264 0.732668 9.14678 0.840741 9.50128C1.09589 10.7561 1.35044 11.7169 1.18372 12.174C0.998116 12.6633 0.897087 13.1806 0.884959 13.7037C0.905031 14.0204 0.896231 14.3382 0.858667 14.6532C0.783915 15.1722 0.783915 15.6992 0.858667 16.2181C0.881804 16.2849 0.91802 16.3464 0.965198 16.399C1.01238 16.4517 1.06957 16.4944 1.13344 16.5246C1.1973 16.5549 1.26656 16.5721 1.33716 16.5753C1.40777 16.5785 1.4783 16.5676 1.54463 16.5432C1.89358 16.4524 2.19702 16.2365 2.39731 15.9367C2.52937 15.5148 2.30948 14.6442 2.4236 14.1871C2.52208 13.8571 2.58969 13.5186 2.62557 13.1761C2.6987 12.5138 2.80963 11.8563 2.9578 11.2066C3.15976 10.2924 3.55533 9.24614 3.49558 8.55121C3.43582 7.85628 1.15684 7.38184 1.15684 7.38184L1.15743 7.38243Z" fill="black"/>
<path d="M1.80818 7.84863C1.57511 8.38049 1.55374 8.98122 1.74843 9.52829C2.03294 9.92447 2.28302 10.3443 2.49594 10.7831C2.71351 11.2242 2.88434 11.6868 3.00563 12.1634C2.90749 12.9949 2.86935 13.8325 2.89151 14.6695C2.97038 15.5837 3.07614 16.5684 3.04985 16.8062C3.02356 17.0441 3.1096 17.6326 3.42809 17.6428C3.96398 17.5903 4.45982 17.3359 4.81496 16.9311C4.9996 16.6324 4.91176 16.5003 4.81496 16.4298C4.64504 16.25 4.53991 16.0187 4.5162 15.7725C4.47089 14.9182 4.5063 14.0615 4.62196 13.2139C4.75038 12.8439 4.78064 12.447 4.70979 12.0618C4.62196 11.6047 4.32319 9.74938 4.24372 9.17814C4.16425 8.6069 4.1033 8.1229 4.1033 8.1229L1.80818 7.84863Z" fill="#06547A"/>
<path d="M1.36841 2.85439C1.21359 2.8085 1.05014 2.79973 0.891305 2.8288C0.732468 2.85787 0.582715 2.92395 0.454185 3.0217C0.120165 3.35572 0.243257 3.71603 0.383677 4.16478C0.524097 4.61353 1.25428 6.37146 1.21006 6.75867C1.16585 7.14587 0.885006 7.73444 0.902335 7.88382C1.3118 8.37778 1.89936 8.69056 2.53778 8.75443C3.46993 8.88648 4.05013 8.72813 4.0591 8.63133C4.08217 8.01774 4.0558 7.40328 3.98022 6.79392C3.85901 6.29545 3.87117 5.77385 4.01548 5.28157C4.18931 4.89918 4.24146 4.47262 4.16486 4.05961C4.11213 3.93583 4.03516 3.82384 3.9385 3.73026C3.84183 3.63667 3.72741 3.56336 3.60198 3.51467C3.41278 3.43426 3.21516 3.37533 3.01282 3.33899C2.60094 3.44245 2.16988 3.44245 1.758 3.33899C1.05471 3.09998 1.3714 2.85559 1.3714 2.85559L1.36841 2.85439Z" fill="#E5E5E5"/>
<path d="M2.84732 4.91864C3.09405 4.98142 3.34968 5.00163 3.6032 4.97839C3.75492 4.9616 3.90308 4.92128 4.04239 4.85889C4.04239 4.85889 3.93662 5.21083 3.893 5.33392C3.80776 5.64674 3.75175 5.9668 3.7257 6.28997C3.71673 6.5009 3.69941 6.73812 3.69941 6.73812C3.8345 6.90651 3.93336 7.10099 3.98981 7.30937C4.0486 7.58374 4.13405 7.8517 4.24495 8.10946C4.37299 8.28083 4.4493 8.48527 4.46484 8.69863C4.48217 8.95377 4.53535 9.44614 4.35908 9.5776C4.1737 9.72617 3.93861 9.7984 3.70179 9.77956C3.56137 9.70906 3.49983 9.59493 3.52612 9.55071C3.55241 9.50649 3.65817 9.66484 3.7723 9.53338C3.88643 9.40192 3.87807 9.2872 3.82489 9.05834C3.77171 8.82949 3.88464 8.66277 3.85118 8.5833C3.47648 8.10093 3.16615 7.57186 2.92799 7.0094C2.86577 6.3141 2.83945 5.61606 2.84912 4.91804L2.84732 4.91864Z" fill="#FBD7C7"/>
<path opacity="0.2" d="M19.1411 17.7165C20.8907 17.2295 19.7518 15.7607 17.6723 15.5791C16.9553 15.5134 16.641 14.4814 14.8639 15.6119C13.4364 16.5196 14.7564 16.957 15.483 17.3036C16.0307 17.6225 16.6388 17.8239 17.2686 17.895C17.8984 17.9661 18.5361 17.9053 19.1411 17.7165Z" fill="black"/>
<path d="M14.4617 3.84521C14.3214 4.39626 14.2385 4.96035 14.2144 5.52846C14.2556 5.72625 14.5938 7.03843 14.6434 7.26967C14.6701 7.4445 14.6838 7.62104 14.6846 7.79789L15.508 7.04679L15.079 4.62918L14.4617 3.84521Z" fill="#FBD7C7"/>
<path d="M14.6686 15.9177C14.619 16.0826 14.4296 16.5529 14.8007 16.6604C15.2297 16.7841 15.4281 16.6007 15.8165 16.4543C16.2434 16.3469 16.6541 16.1832 17.0378 15.9673C17.2171 15.8024 16.889 15.4803 16.5425 15.4391C16.1959 15.3979 16.1051 15.5544 16.0047 15.5216C15.9437 15.5051 15.8891 15.4705 15.8481 15.4224C15.8156 15.5375 15.7535 15.6422 15.6681 15.726C15.5827 15.8099 15.4769 15.87 15.3611 15.9004C15.1335 15.9502 14.8984 15.9561 14.6686 15.9177Z" fill="#825012"/>
<path d="M14.9655 7.11328C14.7981 7.29398 14.6704 7.50781 14.5909 7.74095C14.5113 7.97409 14.4816 8.22134 14.5036 8.46669C14.5281 9.21779 14.5281 10.4386 14.6189 10.959C14.6914 11.5265 14.6858 12.1013 14.6022 12.6673C14.5365 13.2864 14.396 14.3177 14.4122 14.7551C14.4289 15.2995 14.4863 15.9352 14.4946 16.1892C14.503 16.3953 14.7671 16.519 15.0557 16.4449C15.3631 16.3288 15.6543 16.1736 15.9221 15.9831C15.9962 15.9233 16.1695 15.7518 16.0871 15.5648C16.0085 15.0371 16.0056 14.5009 16.0787 13.9724C16.1444 13.5433 16.3099 12.2562 16.3099 11.8846C16.3099 11.5129 16.9535 10.6298 16.9786 9.88762C17.0037 9.14549 17.0031 7.2304 17.0031 7.2304L14.9655 7.11328Z" fill="#06547A"/>
<path opacity="0.2" d="M14.9655 7.11328C14.7981 7.29398 14.6704 7.50781 14.5909 7.74095C14.5113 7.97409 14.4816 8.22134 14.5036 8.46669C14.5281 9.21779 14.5281 10.4386 14.6189 10.959C14.6914 11.5265 14.6858 12.1013 14.6022 12.6673C14.5365 13.2864 14.396 14.3177 14.4122 14.7551C14.4289 15.2995 14.4863 15.9352 14.4946 16.1892C14.503 16.3953 14.7671 16.519 15.0557 16.4449C15.3631 16.3288 15.6543 16.1736 15.9221 15.9831C15.9962 15.9233 16.1695 15.7518 16.0871 15.5648C16.0085 15.0371 16.0056 14.5009 16.0787 13.9724C16.1444 13.5433 16.3099 12.2562 16.3099 11.8846C16.3099 11.5129 16.9535 10.6298 16.9786 9.88762C17.0037 9.14549 17.0031 7.2304 17.0031 7.2304L14.9655 7.11328Z" fill="black"/>
<path opacity="0.4" d="M16.319 16.0994C15.9557 16.1902 15.3946 16.4459 15.0815 16.5117C14.9052 16.5388 14.7252 16.4975 14.5784 16.3963C14.583 16.4582 14.607 16.5171 14.647 16.5645C14.687 16.6119 14.741 16.6455 14.8012 16.6604C15.2303 16.7841 15.4287 16.6007 15.8171 16.4543C16.244 16.3469 16.6547 16.1832 17.0384 15.9673C17.146 15.8681 17.0796 15.7199 16.9309 15.604C16.9507 15.6353 16.9673 15.6685 16.9804 15.7032C17.0778 15.9177 16.6817 16.0085 16.319 16.0994Z" fill="black"/>
<path d="M16.7813 16.8498C16.6904 17.0726 16.6247 17.5017 16.9462 17.5668C17.3909 17.5707 17.8353 17.5376 18.2745 17.4676C18.5966 17.4593 19.3638 17.3356 19.463 17.1043C19.5622 16.8731 19.3638 16.5761 18.9019 16.609C18.6716 16.6416 18.4368 16.6071 18.2255 16.5098C18.0217 16.6956 17.7755 16.8287 17.5085 16.8976C17.2651 16.9234 17.0191 16.9072 16.7813 16.8498Z" fill="#825012"/>
<path opacity="0.4" d="M19.4553 17.1063C19.4782 17.0533 19.4856 16.995 19.4769 16.9381C19.4681 16.8811 19.4434 16.8278 19.4057 16.7842C19.4262 16.8319 19.4324 16.8846 19.4236 16.9358C19.4148 16.987 19.3913 17.0346 19.3561 17.0728C19.1171 17.3285 18.7287 17.2293 17.9119 17.3285C17.5145 17.4202 17.1006 17.4118 16.7073 17.304C16.7096 17.3688 16.7337 17.4309 16.7757 17.4804C16.8176 17.5298 16.875 17.5637 16.9385 17.5765C17.3834 17.5845 17.8281 17.5513 18.2668 17.4773C18.5883 17.4606 19.3555 17.3369 19.4553 17.1063Z" fill="black"/>
<path d="M15.7399 7.18701C15.6603 7.71583 15.6714 8.25435 15.7728 8.77944C16.0376 9.32456 16.2318 9.90126 16.3506 10.4955C16.4807 11.2226 16.5443 11.96 16.5406 12.6986C16.4613 13.4634 16.4414 14.2331 16.4809 15.0009C16.5137 15.6361 16.6213 16.9483 16.6296 17.1383C16.638 17.452 17.2403 17.4682 17.5702 17.3361C17.9992 17.1628 18.4533 16.8246 18.3954 16.6926C18.3067 16.3 18.2568 15.8998 18.2466 15.4975C18.1888 14.5495 18.1888 13.5988 18.2466 12.6508C18.4243 11.745 18.5209 10.8252 18.5352 9.9022C18.568 8.55715 18.6093 7.95484 18.5764 7.6991C18.5435 7.44335 15.7399 7.18701 15.7399 7.18701Z" fill="#06547A"/>
<path d="M15.8648 2.4841C15.661 2.37489 15.4283 2.33208 15.199 2.36165C14.9697 2.39122 14.7554 2.49169 14.5861 2.64902C14.0662 3.11091 14.5263 4.56112 14.6769 4.92622C14.8115 5.26955 14.8868 5.63323 14.8998 6.00178C14.8914 6.20792 14.7844 6.27425 14.7432 6.48876C14.7264 6.75557 14.6878 7.02056 14.6279 7.28109C14.5538 7.42151 14.4713 7.69339 14.6195 7.74298C15.4565 8.00886 16.3198 8.18316 17.1943 8.26284C17.6706 8.27628 18.1389 8.1375 18.531 7.86667C18.6695 7.23311 18.7168 6.58299 18.6714 5.93605C18.6398 5.51596 18.6316 5.09445 18.6469 4.67346C18.6582 4.48251 18.6279 4.29137 18.5581 4.1133C18.4882 3.93522 18.3805 3.77445 18.2424 3.64212C17.9226 3.39965 17.5862 3.18002 17.2355 2.98483C16.7886 2.79428 16.3314 2.6289 15.866 2.48948L15.8648 2.4841Z" fill="#999999"/>
<path d="M15.3862 2.45074C15.4854 2.42624 15.7824 2.17827 15.7824 2.00498C15.7824 1.8317 15.4526 1.22819 15.5846 0.841588C15.7064 0.561424 15.9258 0.335015 16.202 0.204448C16.4782 0.0738809 16.7924 0.0480374 17.0862 0.13172C17.8289 0.362965 17.6802 1.02264 17.5977 1.55922C17.5152 2.09581 17.4573 2.16154 17.3587 2.22786C17.2601 2.29419 17.1197 2.34319 17.1197 2.48361C17.121 2.64571 17.1459 2.80675 17.1938 2.96163C17.2434 3.06082 16.4427 3.14089 15.964 2.95327C15.8376 2.91503 15.7208 2.85041 15.6212 2.76368C15.5216 2.67696 15.4415 2.57009 15.3862 2.45014V2.45074Z" fill="#FBD7C7"/>
<path d="M15.5929 1.76584C15.6204 1.87938 15.6777 1.98352 15.7589 2.06754C15.8401 2.15156 15.9422 2.21243 16.0548 2.24386C16.2139 2.24896 16.3712 2.20905 16.5086 2.12871C16.646 2.04838 16.7579 1.93088 16.8315 1.78974C16.8913 1.61645 16.914 1.45153 17.0706 1.42644C17.2271 1.40134 17.211 1.6057 17.211 1.6057C17.2837 1.5561 17.3435 1.48969 17.3851 1.41208C17.4267 1.33448 17.4489 1.24799 17.45 1.15994C17.4667 1.01952 17.4416 0.780507 17.5904 0.681914C17.7392 0.583322 17.4416 -0.0112241 16.7569 -0.00285866C16.5066 -0.0364901 16.2523 0.0166951 16.0364 0.147829C15.8206 0.278964 15.6562 0.480123 15.5708 0.717766C15.4631 1.06012 15.4709 1.42833 15.5929 1.76584Z" fill="#2D3134"/>
<path d="M18.9098 8.50798C18.8441 8.30184 18.4916 7.20417 18.3984 6.97292C18.3274 6.68708 18.3072 6.39098 18.3386 6.09814C18.3386 5.94935 18.3302 5.62788 18.3057 5.27295C17.9646 5.31118 17.6276 5.38017 17.2989 5.47909C17.1752 5.51196 17.0599 5.55319 16.9607 5.58665C16.9852 5.68584 17.0204 5.77667 17.0264 5.84239C17.1521 6.29404 17.3119 6.73549 17.5044 7.16294C17.5869 7.31949 17.5953 7.52624 17.7931 7.95527C17.9908 8.3843 18.4695 9.06907 18.5191 9.17663C18.5687 9.28418 18.4115 9.55606 18.4115 9.67198C18.4115 9.7879 18.4031 10.389 18.4031 10.4643C18.4031 10.5396 18.1044 10.6376 18.1474 10.7368C18.1904 10.836 18.5107 10.6956 18.6254 10.6215C18.774 10.4444 18.8861 10.2397 18.9553 10.0191C19.0191 9.71492 19.0551 9.40552 19.0628 9.09476C19.0348 8.89389 18.9835 8.69696 18.9098 8.50798Z" fill="#FBD7C7"/>
<path d="M14.3548 3.25977C14.3303 3.50714 14.3052 4.29947 14.3052 4.29947L14.7922 4.67054L14.3548 3.25977Z" fill="#999999"/>
<path d="M9.2889 4.73533L8.84792 5.17272L9.32953 5.65433L10.3453 4.63853C10.3771 4.60698 10.4023 4.56947 10.4195 4.52814C10.4367 4.48681 10.4456 4.44249 10.4456 4.39772C10.4456 4.35296 10.4367 4.30864 10.4195 4.26731C10.4023 4.22598 10.3771 4.18846 10.3453 4.15692L9.32953 3.14111L8.84792 3.62272L9.2889 4.06012H9.08872C8.18962 4.06028 7.32735 4.41731 6.69131 5.05279C6.05527 5.68826 5.69748 6.55022 5.69653 7.44932H6.37473C6.37473 6.72953 6.66067 6.03921 7.16964 5.53024C7.67861 5.02127 8.36893 4.73533 9.08872 4.73533H9.2889ZM13.1597 7.78872H12.4815C12.4815 8.14513 12.4113 8.49804 12.2749 8.82732C12.1385 9.15659 11.9386 9.45578 11.6866 9.7078C11.4346 9.95982 11.1354 10.1597 10.8061 10.2961C10.4768 10.4325 10.1239 10.5027 9.76752 10.5027H9.56735L10.0083 10.0653L9.52671 9.58371L8.51091 10.5995C8.47915 10.6311 8.45394 10.6686 8.43674 10.7099C8.41954 10.7512 8.41068 10.7956 8.41068 10.8403C8.41068 10.8851 8.41954 10.9294 8.43674 10.9707C8.45394 11.0121 8.47915 11.0496 8.51091 11.0811L9.52671 12.0969L10.0083 11.6153L9.56735 11.1779H9.76752C10.6673 11.1779 11.5303 10.8205 12.1666 10.1842C12.8029 9.54793 13.1603 8.68496 13.1603 7.78513L13.1597 7.78872Z" fill="black"/>
</svg>
