<svg width="33" height="32" viewBox="0 0 33 32" fill="none" xmlns="http://www.w3.org/2000/svg">
<circle cx="16.6667" cy="16" r="16" fill="#FC4D1F" fill-opacity="0.08"/>
<path d="M21.2668 13.3802C21.3606 13.2865 21.4132 13.1593 21.4132 13.0267C21.4132 12.8941 21.3606 12.767 21.2668 12.6732L19.9938 11.4002C19.9477 11.3525 19.8926 11.3144 19.8316 11.2882C19.7705 11.262 19.7049 11.2482 19.6385 11.2476C19.5722 11.247 19.5063 11.2597 19.4449 11.2848C19.3834 11.31 19.3276 11.3471 19.2807 11.394C19.2337 11.441 19.1966 11.4968 19.1714 11.5583C19.1463 11.6197 19.1336 11.6855 19.1342 11.7519C19.1348 11.8183 19.1486 11.8839 19.1748 11.9449C19.201 12.0059 19.2391 12.0611 19.2868 12.1072L20.5598 13.3802C20.6536 13.474 20.7808 13.5266 20.9133 13.5266C21.0459 13.5266 21.1731 13.474 21.2668 13.3802V13.3802ZM14.4768 19.4612C14.5246 19.5074 14.5627 19.5625 14.5889 19.6235C14.6151 19.6845 14.6289 19.7501 14.6295 19.8165C14.6301 19.8829 14.6174 19.9488 14.5923 20.0102C14.5671 20.0717 14.53 20.1275 14.483 20.1744C14.4361 20.2214 14.3803 20.2585 14.3188 20.2836C14.2574 20.3088 14.1915 20.3214 14.1251 20.3209C14.0588 20.3203 13.9931 20.3065 13.9321 20.2803C13.8711 20.2541 13.816 20.216 13.7698 20.1682L12.4978 18.8962C12.404 18.8025 12.3512 18.6753 12.3511 18.5426C12.351 18.4099 12.4036 18.2826 12.4973 18.1887C12.5911 18.0948 12.7183 18.042 12.851 18.042C12.9837 18.0419 13.111 18.0945 13.2048 18.1882L14.4768 19.4612ZM23.8368 8.84723C23.5619 8.57238 23.1891 8.41797 22.8003 8.41797C22.4116 8.41797 22.0388 8.57238 21.7638 8.84723L21.1438 9.46723L20.8988 9.22323C20.7056 9.02988 20.4719 8.8818 20.2146 8.78967C19.9572 8.69753 19.6826 8.66363 19.4106 8.69041C19.1386 8.7172 18.8759 8.80399 18.6414 8.94455C18.407 9.0851 18.2067 9.27591 18.0548 9.50323C17.5751 9.39907 17.0744 9.45306 16.6279 9.65711C16.1813 9.86117 15.8129 10.2043 15.5776 10.6353C15.3423 11.0662 15.2529 11.5617 15.3227 12.0477C15.3925 12.5336 15.6178 12.984 15.9648 13.3312L16.6228 13.9882L14.6538 15.9572L13.9958 15.2992C13.6486 14.9522 13.1983 14.7269 12.7123 14.6571C12.2263 14.5873 11.7308 14.6767 11.2999 14.912C10.8689 15.1472 10.5258 15.5157 10.3217 15.9623C10.1177 16.4088 10.0637 16.9094 10.1678 17.3892C9.94097 17.5414 9.75059 17.7419 9.61035 17.9763C9.47012 18.2107 9.38351 18.4733 9.35675 18.7452C9.32998 19.017 9.36372 19.2914 9.45555 19.5487C9.54737 19.806 9.695 20.0398 9.88785 20.2332L10.1328 20.4782L9.49585 21.1152C9.22082 21.3901 9.06626 21.763 9.06616 22.1519C9.06607 22.5407 9.22045 22.9137 9.49535 23.1887C9.77024 23.4638 10.1431 23.6183 10.532 23.6184C10.9209 23.6185 11.2938 23.4641 11.5688 23.1892L12.2068 22.5512L12.4508 22.7952C12.6441 22.9886 12.8778 23.1367 13.1351 23.2288C13.3925 23.3209 13.6671 23.3548 13.9391 23.328C14.2111 23.3013 14.4738 23.2145 14.7083 23.0739C14.9427 22.9334 15.143 22.7425 15.2948 22.5152C15.7746 22.6194 16.2753 22.5654 16.7218 22.3614C17.1684 22.1573 17.5368 21.8141 17.7721 21.3832C18.0074 20.9523 18.0968 20.4568 18.027 19.9708C17.9572 19.4848 17.7319 19.0345 17.3848 18.6872L16.7268 18.0302L18.6958 16.0622L19.3538 16.7192C19.7012 17.0658 20.1514 17.2907 20.6372 17.3602C21.1229 17.4298 21.6181 17.3403 22.0488 17.1051C22.4794 16.8699 22.8224 16.5017 23.0265 16.0554C23.2305 15.6091 23.2847 15.1088 23.1808 14.6292C23.4077 14.4771 23.5981 14.2766 23.7383 14.0422C23.8786 13.8077 23.9652 13.5452 23.9919 13.2733C24.0187 13.0014 23.985 12.727 23.8931 12.4698C23.8013 12.2125 23.6537 11.9787 23.4608 11.7852L23.2158 11.5412L23.8358 10.9212C23.9721 10.7851 24.0802 10.6234 24.1539 10.4455C24.2277 10.2676 24.2656 10.0768 24.2656 9.88423C24.2656 9.69162 24.2277 9.5009 24.1539 9.32297C24.0802 9.14503 23.9721 8.98338 23.8358 8.84723H23.8368ZM22.5088 10.8342L21.8498 10.1742L22.4698 9.55423C22.5574 9.46671 22.6761 9.41754 22.7998 9.41754C22.9236 9.41754 23.0423 9.46671 23.1298 9.55423C23.2174 9.64175 23.2665 9.76046 23.2665 9.88423C23.2665 10.008 23.2174 10.1267 23.1298 10.2142L22.5098 10.8342H22.5088ZM17.9888 15.3542L16.0198 17.3232L15.3608 16.6642L17.3298 14.6962L17.9888 15.3542V15.3542ZM11.4988 21.8442L10.8618 22.4812C10.7745 22.5688 10.6559 22.618 10.5322 22.6181C10.4085 22.6182 10.2899 22.5691 10.2023 22.4817C10.1148 22.3943 10.0656 22.2758 10.0655 22.1521C10.0654 22.0284 10.1145 21.9098 10.2018 21.8222L10.8408 21.1852L11.4988 21.8442V21.8442ZM18.9928 9.93023C19.0716 9.85138 19.1651 9.78882 19.2681 9.74614C19.371 9.70345 19.4814 9.68148 19.5928 9.68148C19.7043 9.68148 19.8147 9.70345 19.9176 9.74614C20.0206 9.78882 20.1141 9.85138 20.1928 9.93023L22.7548 12.4922C22.8577 12.5947 22.9325 12.7219 22.9721 12.8615C23.0117 13.0012 23.0148 13.1487 22.9811 13.2899C22.9474 13.4311 22.878 13.5613 22.7795 13.668C22.6811 13.7746 22.5569 13.8543 22.4188 13.8992C22.3519 13.921 22.2903 13.9568 22.2381 14.004C22.1859 14.0513 22.1443 14.1091 22.1159 14.1736C22.0876 14.238 22.0732 14.3078 22.0737 14.3782C22.0742 14.4486 22.0896 14.5182 22.1188 14.5822C22.2427 14.8536 22.2674 15.1598 22.1885 15.4474C22.1097 15.7351 21.9324 15.9859 21.6875 16.1562C21.4426 16.3264 21.1457 16.4053 20.8486 16.379C20.5515 16.3526 20.273 16.2229 20.0618 16.0122L16.6718 12.6232C16.4612 12.4121 16.3314 12.1336 16.3051 11.8365C16.2788 11.5394 16.3577 11.2425 16.5279 10.9976C16.6982 10.7527 16.949 10.5754 17.2367 10.4965C17.5243 10.4177 17.8305 10.4424 18.1018 10.5662C18.166 10.5956 18.2356 10.6112 18.3061 10.6117C18.3767 10.6123 18.4465 10.598 18.5111 10.5697C18.5757 10.5413 18.6336 10.4996 18.681 10.4473C18.7283 10.395 18.7641 10.3333 18.7858 10.2662C18.8273 10.1394 18.8982 10.0243 18.9928 9.93023V9.93023ZM11.4898 16.0062C11.7286 15.7676 12.0523 15.6335 12.3898 15.6335C12.7274 15.6335 13.0511 15.7676 13.2898 16.0062L16.6788 19.3952C16.8895 19.6064 17.0193 19.8848 17.0456 20.1819C17.0719 20.479 16.993 20.7759 16.8228 21.0208C16.6525 21.2657 16.4017 21.4431 16.114 21.5219C15.8264 21.6008 15.5202 21.5761 15.2488 21.4522C15.1847 21.4228 15.1151 21.4073 15.0446 21.4067C14.974 21.4061 14.9042 21.4205 14.8396 21.4488C14.775 21.4771 14.7171 21.5188 14.6697 21.5711C14.6224 21.6234 14.5866 21.6851 14.5648 21.7522C14.5198 21.8901 14.4402 22.0141 14.3336 22.1124C14.227 22.2107 14.0969 22.28 13.9559 22.3137C13.8148 22.3474 13.6675 22.3444 13.528 22.3049C13.3884 22.2654 13.2613 22.1908 13.1588 22.0882L10.5968 19.5262C10.4943 19.4237 10.4197 19.2967 10.3802 19.1571C10.3407 19.0176 10.3377 18.8703 10.3714 18.7292C10.4051 18.5882 10.4744 18.4581 10.5727 18.3515C10.671 18.2449 10.795 18.1653 10.9328 18.1202C10.9999 18.0984 11.0617 18.0627 11.114 18.0153C11.1663 17.968 11.2079 17.9101 11.2363 17.8455C11.2646 17.7809 11.2789 17.7111 11.2784 17.6405C11.2778 17.57 11.2623 17.5004 11.2328 17.4362C11.1247 17.2001 11.0914 16.9366 11.1373 16.681C11.1832 16.4254 11.3063 16.1899 11.4898 16.0062V16.0062Z" fill="#FC4D1F"/>
</svg>
