<svg width="24" height="24" viewBox="0 0 24 24" fill="none" xmlns="http://www.w3.org/2000/svg">
<circle cx="12" cy="12" r="12" fill="#FC4D1F"/>
<path d="M16.5633 7.95096C16.112 7.70798 15.6087 8.17659 15.3137 8.45428C14.6368 9.1138 14.0641 9.87745 13.4219 10.5717C12.7103 11.3353 12.0508 12.099 11.3219 12.8453C10.9053 13.2619 10.4541 13.7131 10.1764 14.2338C9.55157 13.6263 9.01354 12.9668 8.31931 12.4288C7.81599 12.047 6.98291 11.7693 7.00027 12.6891C7.03498 13.8867 8.09368 15.171 8.87469 15.9867C9.20445 16.3338 9.63834 16.6983 10.1417 16.7157C10.7491 16.7504 11.3739 16.0214 11.7384 15.6222C12.3806 14.928 12.9013 14.147 13.4913 13.4354C14.255 12.4982 15.036 11.5783 15.7823 10.6238C16.2509 10.0337 17.7261 8.57574 16.5633 7.95096ZM7.76389 12.6197C7.74654 12.6197 7.72918 12.6197 7.69447 12.637C7.62505 12.6197 7.57298 12.6023 7.50356 12.5676C7.55562 12.5329 7.6424 12.5502 7.76389 12.6197Z" fill="white"/>
</svg>
