<svg width="16" height="16" viewBox="0 0 16 16" fill="none" xmlns="http://www.w3.org/2000/svg">
<path d="M14.3813 12.5656H11.9156V10.1562C12.3875 9.62187 12.6719 8.92812 12.6719 8.16875C12.6719 6.49375 11.2844 5.13438 9.57812 5.13438C7.87187 5.13438 6.48438 6.49687 6.48438 8.16875C6.48438 8.92812 6.76875 9.62187 7.24062 10.1562V12.5656H1.61875V1.61875H14.3781V12.5656H14.3813ZM9.57812 12.8813L8.525 13.6906V11.025C8.85312 11.1406 9.20938 11.2063 9.57812 11.2063C9.94687 11.2063 10.3031 11.1437 10.6313 11.025V13.6906L9.57812 12.8813ZM9.57812 9.93125C8.575 9.93125 7.75938 9.14062 7.75938 8.16875C7.75938 7.19687 8.575 6.40625 9.57812 6.40625C10.5813 6.40625 11.3969 7.19687 11.3969 8.16875C11.3969 9.14062 10.5813 9.93125 9.57812 9.93125ZM15.0188 0.34375H0.98125C0.628125 0.34375 0.34375 0.628125 0.34375 0.98125V13.2031C0.34375 13.5562 0.628125 13.8406 0.98125 13.8406H7.24062V15.0312C7.24062 15.5469 7.83437 15.8406 8.24375 15.525L9.57812 14.5L10.9125 15.525C11.3219 15.8406 11.9156 15.5469 11.9156 15.0312V13.8406H15.0188C15.3719 13.8406 15.6562 13.5562 15.6562 13.2031V0.98125C15.6562 0.628125 15.3719 0.34375 15.0188 0.34375Z" fill="#7B6F72"/>
<path d="M4.72185 4.52793H11.275C11.6281 4.52793 11.9125 4.24355 11.9125 3.89043C11.9125 3.5373 11.6281 3.25293 11.275 3.25293H4.72185C4.36873 3.25293 4.08435 3.5373 4.08435 3.89043C4.08435 4.24043 4.37185 4.52793 4.72185 4.52793Z" fill="#7B6F72"/>
</svg>
