<svg width="19" height="23" viewBox="0 0 19 23" fill="none" xmlns="http://www.w3.org/2000/svg">
<path fill-rule="evenodd" clip-rule="evenodd" d="M9.48413 0.164873L9.22154 0L8.95713 0.16193C3.36402 3.58721 0.178251 8.95855 0.0072307 13.5515C-0.0786129 15.8569 0.597852 17.9887 2.14635 19.544C3.69484 21.0992 6.05483 22.0174 9.21813 22.0174C12.6903 22.0174 15.1985 21.1072 16.793 19.5488C18.3936 17.9844 19.0005 15.8386 18.8118 13.5293C18.4368 8.94038 14.9264 3.58192 9.48413 0.164873ZM6.73563 20.7871C5.04576 20.448 3.76677 19.7542 2.855 18.8384C1.54063 17.5183 0.928798 15.6765 1.00654 13.5887C1.1601 9.46453 4.01486 4.4702 9.21506 1.17928C14.3101 4.47848 17.4779 9.48382 17.8151 13.6108C17.9854 15.6947 17.4355 17.5226 16.0941 18.8336C15.2625 19.6463 14.0991 20.2876 12.5523 20.6595C12.6601 20.5754 12.7631 20.4857 12.8613 20.3909C13.9047 19.3828 14.3027 17.8822 14.3029 16.4662C14.3031 14.8588 13.4945 12.9523 12.5904 11.2657C11.8877 9.95494 11.0908 8.71378 10.4927 7.78221C10.3142 7.5042 10.1534 7.25377 10.0181 7.03728L9.09409 5.5589V7.30229C9.09409 7.63204 8.95258 9.67545 8.53638 11.1148C8.4333 11.4713 8.31944 11.7685 8.19857 11.9858C8.07031 12.2165 7.97269 12.2873 7.93794 12.302C7.93058 12.3051 7.92909 12.3052 7.92138 12.3038C7.9083 12.3014 7.86594 12.2898 7.79277 12.2354C7.63777 12.12 7.4173 11.8675 7.14129 11.3845L6.64229 10.5113L6.24734 11.4363C5.61705 12.9124 4.98109 15.0425 4.99671 16.9521C5.00454 17.9091 5.17621 18.851 5.63238 19.6304C5.90323 20.0931 6.26781 20.4867 6.73563 20.7871ZM9.49702 11.3926C9.73011 10.5865 9.88194 9.62289 9.97415 8.82686C10.5129 9.67096 11.1399 10.6765 11.709 11.7381C12.6086 13.4163 13.303 15.1294 13.3029 16.4661C13.3027 17.7276 12.9445 18.9201 12.1665 19.6717C11.4138 20.3989 10.165 20.8105 8.14947 20.3111C7.33862 20.1102 6.82253 19.6841 6.49541 19.1252C6.15878 18.5501 6.00369 17.8006 5.99668 16.9439C5.98529 15.5527 6.3648 13.9856 6.82945 12.6906C6.94974 12.8291 7.07158 12.9452 7.19584 13.0377C7.53501 13.29 7.93339 13.3895 8.32722 13.2231C8.67138 13.0777 8.90756 12.7685 9.0725 12.4719C9.24483 12.162 9.38358 11.7849 9.49702 11.3926Z" fill="#7B6F72"/>
</svg>
