<svg width="26" height="20" viewBox="0 0 26 20" fill="none" xmlns="http://www.w3.org/2000/svg">
<path d="M7.81093 0C5.21958 0 3.11139 2.23526 3.11139 4.98275C3.11139 7.73024 5.21958 9.96551 7.81093 9.96551C10.4023 9.96551 12.5105 7.73024 12.5105 4.98275C12.5105 2.23526 10.4023 0 7.81093 0Z" fill="#E5E5E5"/>
<path d="M18.4956 0.713135C18.4849 0.713135 18.4742 0.713185 18.4636 0.713235C17.3761 0.722237 16.3603 1.18141 15.6033 2.00627C14.8597 2.81655 14.4553 3.8855 14.4646 5.01616C14.474 6.14681 14.8959 7.20893 15.6528 8.00689C16.4157 8.81103 17.4262 9.25265 18.5016 9.25265C18.5124 9.25265 18.5233 9.2526 18.5341 9.25255C19.6216 9.24355 20.6374 8.78433 21.3944 7.95952C22.138 7.14924 22.5424 6.08028 22.5331 4.94958C22.5137 2.6065 20.7056 0.713135 18.4956 0.713135Z" fill="#E5E5E5"/>
<path d="M18.6938 10.0686H18.3035C16.4862 10.0686 14.8277 10.7595 13.5755 11.892C13.8888 12.1324 14.187 12.3944 14.4696 12.677C15.3034 13.5108 15.9581 14.4823 16.4158 15.5645C16.8281 16.5391 17.0634 17.5659 17.1183 18.6235H25.747V17.1214C25.747 13.2327 22.583 10.0686 18.6938 10.0686Z" fill="#E5E5E5"/>
<path d="M15.6066 18.623C15.4643 16.3304 14.3022 14.3138 12.5678 13.0215C11.3061 12.0811 9.74113 11.5244 8.04595 11.5244H7.57626C3.39187 11.5245 0 14.9163 0 19.1007V19.9998H15.6217V19.1007C15.6217 18.9403 15.6167 18.7809 15.6066 18.623Z" fill="#E5E5E5"/>
</svg>
