<svg width="18" height="18" viewBox="0 0 18 18" fill="none" xmlns="http://www.w3.org/2000/svg">
<g clip-path="url(#clip0_605_1002)">
<path d="M8.92075 0.39565L8.92081 0.395613C8.96518 0.368767 9.03024 0.364181 9.10233 0.40641C9.17726 0.4503 9.20787 0.514891 9.20787 0.562369V5.4127V6.27566L9.83874 5.68685L12.3202 3.37079L12.3203 3.37078C12.3825 3.31267 12.4807 3.31718 12.5374 3.38122L12.5374 3.38125C13.4594 4.42346 14.1891 5.51936 14.7097 6.63729C16.162 9.75609 15.8719 12.5018 14.6724 14.4577C13.4678 16.4218 11.3268 17.625 8.99917 17.625C5.31253 17.625 2.31104 14.6175 2.31104 10.9196C2.31104 8.00277 3.63601 5.38144 5.61909 3.20504L5.3419 2.95247L5.61909 3.20503C7.25179 1.41315 8.86762 0.427772 8.92075 0.39565Z" stroke="#7B6F72" stroke-width="0.75"/>
<path d="M11.3083 15.3093V15.3093C11.3083 16.5866 10.2712 17.6249 8.99913 17.6249C7.72701 17.6249 6.68994 16.5866 6.68994 15.3093C6.68994 14.2373 7.21009 13.3687 7.77019 12.7449C8.32953 12.1218 8.90117 11.7746 8.93417 11.7548C8.98413 11.725 9.0465 11.7264 9.0952 11.7584C9.12925 11.7808 9.69342 12.1581 10.2453 12.7963C10.8001 13.4379 11.3083 14.3032 11.3083 15.3093Z" stroke="#7B6F72" stroke-width="0.75"/>
</g>
<defs>
<clipPath id="clip0_605_1002">
<rect width="18" height="18" fill="white"/>
</clipPath>
</defs>
</svg>
