<svg width="18" height="18" viewBox="0 0 18 18" fill="none" xmlns="http://www.w3.org/2000/svg">
<g clip-path="url(#clip0_606_1033)">
<path d="M7.22396 6.10122C6.52036 7.04342 6.03054 8.14873 5.76013 8.85202C5.75312 8.79014 5.74594 8.72828 5.7386 8.66645C6.02781 7.9339 6.51685 6.87802 7.21098 5.9755C7.92659 5.04505 8.83014 4.3156 9.9248 4.21892C11.0084 4.12473 11.8942 4.42737 12.5852 5.10976C13.5775 6.08983 14.0155 7.70523 14.1942 9.14692C14.3714 10.5765 14.2868 11.7751 14.2799 11.8663L14.2799 11.8664C14.2784 11.8867 14.2626 11.9029 14.2425 11.905L14.2411 11.9052L14.2377 11.9053C14.2194 11.9053 14.2027 11.8932 14.1973 11.8749L14.1973 11.8748C14.1885 11.8453 13.8443 10.7022 13.1933 9.36818C12.5473 8.0443 11.5765 6.48434 10.2957 5.66984C9.83861 5.37911 9.31416 5.27352 8.8499 5.2709H8.84989C8.19985 5.26725 7.60528 5.59058 7.22396 6.10122Z" stroke="#7B6F72" stroke-width="0.5"/>
<path d="M15.6584 6.61525C15.1667 4.96456 14.0228 3.59196 12.7117 2.6735C11.4055 1.75853 9.89734 1.27006 8.65808 1.44033L8.65806 1.44033C8.41342 1.47396 8.17486 1.58451 7.99744 1.77488C6.62594 3.24609 6.00759 5.62551 5.72504 7.60096C5.44063 9.58938 5.48851 11.2307 5.4902 11.2776L5.73972 11.2686L5.49018 11.2772C5.491 11.3009 5.4724 11.3202 5.44983 11.3209L5.44982 11.3207L5.44555 11.321C5.424 11.3199 5.4065 11.3023 5.40572 11.2803C5.40252 11.1881 5.32896 8.88688 5.84703 6.38515L5.84703 6.38515C6.54862 2.99689 7.99564 1.00372 9.95276 0.462379L9.95277 0.462376C11.5897 0.0095312 13.0728 0.289584 14.1533 1.21546L14.1533 1.21547C15.4321 2.31106 16.0201 4.207 15.7408 6.60806L15.7408 6.60813C15.7385 6.62814 15.7224 6.64358 15.7027 6.64529L15.7027 6.64528L15.6999 6.64555C15.6834 6.64717 15.6652 6.63774 15.6584 6.61525ZM15.6584 6.61525L15.4188 6.68662M15.6584 6.61525C15.6584 6.6152 15.6584 6.61516 15.6583 6.61511L15.4188 6.68662M15.4188 6.68662C15.4585 6.81958 15.5843 6.90807 15.7243 6.89436M15.4188 6.68662C14.4736 3.51356 11.0048 1.37026 8.69211 1.688C8.49773 1.71472 8.31407 1.8018 8.1803 1.94535C5.54935 4.76758 5.73726 11.1914 5.74004 11.2686C5.74559 11.4298 5.61945 11.5654 5.45822 11.5708L15.7243 6.89436M15.7243 6.89436C15.8624 6.88237 15.9731 6.77479 15.9891 6.63694L15.7243 6.89436ZM9.88763 0.226885L9.88612 0.221426L9.88763 0.226885Z" stroke="#7B6F72" stroke-width="0.5"/>
<path d="M3.64844 9.1891C3.12171 5.67088 3.45951 3.01391 3.80203 1.47905C3.90484 3.77583 4.25806 8.15563 5.47408 11.8553L4.64573 13.9262L3.64844 9.1891Z" stroke="#7B6F72" stroke-width="0.5"/>
<path d="M5.92824 16.6047L5.11656 14.1697L5.1166 14.1691C5.11919 14.1365 5.12329 14.0882 5.12922 14.0262C5.14111 13.9022 5.16036 13.7239 5.18973 13.5083C5.24856 13.0765 5.34749 12.4989 5.50773 11.9108C5.66863 11.3203 5.88781 10.7325 6.18137 10.2724C6.47587 9.81084 6.8251 9.50791 7.23792 9.42352C7.6334 9.34268 8.14554 9.48471 8.74702 9.82854C9.34035 10.1677 9.97889 10.6791 10.609 11.2658C11.4881 12.0846 12.3346 13.0346 12.998 13.8297C12.2811 13.2737 11.4234 12.6277 10.6067 12.0613C9.99851 11.6395 9.40753 11.258 8.9116 10.9905C8.66402 10.8569 8.43391 10.7484 8.23331 10.6777C8.04235 10.6105 7.84087 10.5637 7.66767 10.5945C7.53843 10.6174 7.43888 10.6955 7.36697 10.7731C7.29317 10.8527 7.22836 10.9535 7.17049 11.0628C7.0545 11.282 6.94637 11.5746 6.84575 11.9056C6.64368 12.5704 6.45877 13.4352 6.30236 14.2866C6.14697 15.1325 6.01838 15.9728 5.92824 16.6047Z" stroke="#7B6F72" stroke-width="0.5"/>
<path d="M4.56116 17.5336C2.70752 12.6169 2.28387 7.81166 2.20635 5.17533C2.89476 7.89915 4.29127 12.9542 6.24131 17.6926L6.24132 17.6926C6.25313 17.7213 6.2327 17.7498 6.2038 17.7498H4.87633C4.73602 17.7498 4.60973 17.6625 4.56116 17.5336Z" stroke="#7B6F72" stroke-width="0.5"/>
<path d="M12.7117 2.67345C11.6165 1.90622 10.3792 1.43888 9.27749 1.40835C10.0773 0.951783 11.223 0.632918 12.4388 0.928637C13.4786 1.18154 14.2548 1.89306 14.7892 2.92661C15.3 3.91457 15.5834 5.18722 15.6524 6.59509C15.1575 4.95337 14.0176 3.58818 12.7117 2.67345Z" stroke="#7B6F72" stroke-width="0.5"/>
<path d="M10.502 4.78933L10.502 4.78933C10.9014 4.79731 11.7913 4.95766 12.6022 5.91437C13.409 6.86637 14.1624 8.63605 14.241 11.9053L14.241 11.9053L14.2376 11.9054C14.2192 11.9054 14.2026 11.8933 14.1972 11.875L14.1972 11.8749C14.1884 11.8454 13.8442 10.7023 13.1932 9.3683C12.5471 8.04442 11.5763 6.48446 10.2956 5.66996C9.83849 5.37923 9.31404 5.27363 8.84978 5.27101L8.84977 5.27101C8.82392 5.27087 8.79817 5.27125 8.77251 5.27214C9.25681 4.9506 9.81591 4.7756 10.502 4.78933Z" stroke="#7B6F72" stroke-width="0.5"/>
</g>
<defs>
<clipPath id="clip0_606_1033">
<rect width="18" height="18" fill="white"/>
</clipPath>
</defs>
</svg>
