<svg width="15" height="15" viewBox="0 0 15 15" fill="none" xmlns="http://www.w3.org/2000/svg">
<circle cx="7.5" cy="7.5" r="7" stroke="#291B30"/>
<path d="M7.762 11.072C7.282 11.072 6.838 10.994 6.43 10.838C6.028 10.676 5.677 10.451 5.377 10.163C5.083 9.869 4.852 9.527 4.684 9.137C4.516 8.747 4.432 8.318 4.432 7.85C4.432 7.382 4.516 6.953 4.684 6.563C4.852 6.173 5.086 5.834 5.386 5.546C5.686 5.252 6.037 5.027 6.439 4.871C6.847 4.709 7.291 4.628 7.771 4.628C8.257 4.628 8.704 4.712 9.112 4.88C9.526 5.042 9.877 5.285 10.165 5.609L9.58 6.176C9.34 5.924 9.07 5.738 8.77 5.618C8.47 5.492 8.149 5.429 7.807 5.429C7.453 5.429 7.123 5.489 6.817 5.609C6.517 5.729 6.256 5.897 6.034 6.113C5.812 6.329 5.638 6.587 5.512 6.887C5.392 7.181 5.332 7.502 5.332 7.85C5.332 8.198 5.392 8.522 5.512 8.822C5.638 9.116 5.812 9.371 6.034 9.587C6.256 9.803 6.517 9.971 6.817 10.091C7.123 10.211 7.453 10.271 7.807 10.271C8.149 10.271 8.47 10.211 8.77 10.091C9.07 9.965 9.34 9.773 9.58 9.515L10.165 10.082C9.877 10.406 9.526 10.652 9.112 10.82C8.704 10.988 8.254 11.072 7.762 11.072Z" fill="#291B30"/>
</svg>
