<svg width="32" height="32" viewBox="0 0 32 32" fill="none" xmlns="http://www.w3.org/2000/svg">
<circle cx="16" cy="16" r="16" fill="#FC4D1F" fill-opacity="0.08"/>
<path fill-rule="evenodd" clip-rule="evenodd" d="M15.777 7.92665L15.5134 7.76025L15.2479 7.92369C11.3584 10.3185 9.1276 14.0825 9.00752 17.3246C8.94716 18.9544 9.42285 20.4754 10.5258 21.5892C11.6291 22.7032 13.2996 23.3489 15.51 23.3489C17.9286 23.3489 19.7022 22.7113 20.8393 21.594C21.982 20.4712 22.4086 18.9361 22.2758 17.3026C22.0126 14.0643 19.5575 10.3131 15.777 7.92665ZM13.2053 22.0343C12.3733 21.7776 11.7235 21.3775 11.2363 20.8855C10.3665 20.0072 9.95448 18.7754 10.0068 17.3616C10.1096 14.586 12.0124 11.2006 15.5069 8.94258C18.9381 11.2089 21.0533 14.6052 21.2791 17.3836C21.3937 18.7936 21.0231 20.0115 20.1385 20.8807C19.6961 21.3154 19.107 21.6807 18.3497 21.9381C18.9441 21.216 19.1693 20.2492 19.1694 19.3487C19.1696 18.1943 18.5952 16.8441 17.9714 15.6743C17.4841 14.7602 16.93 13.8926 16.5177 13.2471C16.3955 13.0557 16.2857 12.8839 16.1939 12.7361L15.2692 11.2487V13.0001C15.2692 13.2191 15.1726 14.6198 14.8908 15.5993C14.8214 15.8409 14.7467 16.0347 14.6712 16.1711C14.6436 16.2211 14.62 16.2557 14.6018 16.2793C14.5184 16.2094 14.3866 16.0555 14.2146 15.753L13.715 14.8739L13.3197 15.8046C12.8811 16.8372 12.4348 18.3347 12.4458 19.6866C12.4513 20.3646 12.5721 21.0464 12.9045 21.6174C12.9914 21.7667 13.0916 21.9061 13.2053 22.0343ZM15.8519 15.8758C15.9749 15.4479 16.0655 14.9585 16.1303 14.5041C16.4415 15.0023 16.7777 15.5608 17.089 16.1448C17.7082 17.306 18.1695 18.4635 18.1694 19.3486C18.1693 20.1996 17.9283 20.9787 17.4329 21.4599C16.9633 21.916 16.164 22.2003 14.8118 21.8635C14.2937 21.7345 13.9731 21.4652 13.7688 21.1143C13.5549 20.747 13.4505 20.2569 13.4458 19.6784C13.4388 18.8196 13.6519 17.8553 13.9295 17.0199C13.9603 17.047 13.9913 17.0724 14.0228 17.0959C14.2883 17.2946 14.6217 17.3858 14.9577 17.243C15.2431 17.1218 15.4272 16.8704 15.5462 16.6552C15.6728 16.4264 15.7722 16.153 15.8519 15.8758Z" fill="#FC4D1F"/>
</svg>
