<svg id="_1" data-name="1" xmlns="http://www.w3.org/2000/svg" width="25.021" height="24" viewBox="0 0 25.021 24">
  <path id="Path_560" data-name="Path 560" d="M8.811,11.936a.872.872,0,0,0,.872.872h8.139a.872.872,0,1,0,0-1.744H9.683A.872.872,0,0,0,8.811,11.936ZM1.253,8.371v6.976a6.271,6.271,0,0,0,5.814,6.642v1.65a2.034,2.034,0,0,0,3.164,1.693l4.949-3.3h4.387a6.329,6.329,0,0,0,6.686-6.686V8.371a6.33,6.33,0,0,0-6.686-6.686H7.939A6.33,6.33,0,0,0,1.253,8.371ZM3,8.371A4.63,4.63,0,0,1,7.939,3.43H19.566a4.63,4.63,0,0,1,4.942,4.942v6.976a4.63,4.63,0,0,1-4.942,4.942H14.915a.873.873,0,0,0-.484.147L9.263,23.881a.291.291,0,0,1-.452-.242V21.161a.872.872,0,0,0-.872-.872A4.63,4.63,0,0,1,3,15.348Z" transform="translate(-1.241 -1.675)" fill="#fff"/>
</svg>
