<svg width="19" height="11" viewBox="0 0 19 11" fill="none" xmlns="http://www.w3.org/2000/svg">
<path d="M16.9143 1.56383C16.7204 1.56383 16.5306 1.5911 16.3486 1.64444C16.1238 0.701272 15.3011 0 14.3236 0C13.1734 0 12.2376 0.970717 12.2376 2.16388V3.72048H6.76241V2.16388C6.76241 0.970717 5.82668 0 4.67653 0C3.69895 0 2.87629 0.701327 2.65147 1.64444C2.46945 1.59116 2.27974 1.56388 2.08577 1.56388C0.935678 1.56388 0 2.5346 0 3.72775V7.2723C0 8.46546 0.935731 9.43618 2.08582 9.43618C2.27974 9.43618 2.46945 9.4089 2.65147 9.35556C2.87629 10.2987 3.699 11 4.67653 11C5.82668 11 6.76236 10.0293 6.76236 8.83612V7.27963H12.2376V8.83612C12.2376 10.0293 13.1734 11 14.3235 11C15.3011 11 16.1237 10.2987 16.3485 9.35556C16.5305 9.4089 16.7203 9.43618 16.9142 9.43618C18.0643 9.43618 19 8.46546 19 7.2723V3.72775C19.0001 2.53454 18.0644 1.56383 16.9143 1.56383ZM2.59076 8.31977C2.43488 8.40176 2.26354 8.44436 2.08582 8.44436C1.46287 8.44436 0.95602 7.91858 0.95602 7.2723V3.72775C0.95602 3.08147 1.46282 2.5557 2.08577 2.5557C2.26359 2.5557 2.43498 2.59829 2.59076 2.68023V8.31977ZM5.80639 8.83612C5.80639 9.48241 5.29954 10.0082 4.67659 10.0082C4.05363 10.0082 3.54678 9.48241 3.54678 8.83612V8.59423C3.54678 8.59098 3.54678 8.58778 3.54678 8.58453V2.41552C3.54678 2.41227 3.54678 2.40897 3.54678 2.40566V2.16388C3.54678 1.5176 4.05358 0.99182 4.67653 0.99182C5.29954 0.99182 5.80639 1.5176 5.80639 2.16388V8.83612ZM12.2376 6.28781H6.76241V4.71236H12.2376V6.28781ZM15.4533 2.4056C15.4533 2.40896 15.4533 2.41233 15.4533 2.41563V8.58448C15.4533 8.58773 15.4533 8.59098 15.4533 8.59418V8.83607C15.4533 9.48235 14.9465 10.0081 14.3235 10.0081C13.7005 10.0081 13.1937 9.48235 13.1937 8.83607V6.78366V2.16388C13.1937 1.5176 13.7005 0.99182 14.3236 0.99182C14.9465 0.99182 15.4533 1.5176 15.4533 2.16388L15.4533 2.4056ZM18.0441 7.27225C18.0441 7.91853 17.5372 8.4443 16.9143 8.4443C16.7366 8.4443 16.5652 8.40171 16.4093 8.31972V2.68017C16.5652 2.59824 16.7366 2.55565 16.9144 2.55565C17.5373 2.55565 18.0441 3.08142 18.0441 3.7277L18.0441 7.27225Z" fill="#7B6F72"/>
</svg>
