<svg width="50" height="50" viewBox="0 0 50 50" fill="none" xmlns="http://www.w3.org/2000/svg">
<path d="M25 50C38.8071 50 50 38.8071 50 25C50 11.1929 38.8071 0 25 0C11.1929 0 0 11.1929 0 25C0 38.8071 11.1929 50 25 50Z" fill="#C41926"/>
<path d="M17.5101 28.48L19.5101 26.89C19.7468 26.7024 19.9382 26.4638 20.0698 26.1919C20.2014 25.9201 20.2698 25.622 20.2701 25.32V22.72C23.2987 21.735 26.5615 21.735 29.5901 22.72V25.33C29.5903 25.632 29.6588 25.9301 29.7904 26.2019C29.922 26.4738 30.1133 26.7124 30.3501 26.9L32.3401 28.48C32.7245 28.7861 33.2081 28.94 33.6987 28.9124C34.1893 28.8847 34.6526 28.6774 35.0001 28.33L36.2201 27.11C36.4124 26.9211 36.5642 26.6951 36.6663 26.4457C36.7684 26.1963 36.8187 25.9287 36.814 25.6592C36.8093 25.3898 36.7498 25.1241 36.6391 24.8783C36.5284 24.6326 36.3688 24.412 36.1701 24.23C33.0652 21.4936 29.0687 19.9839 24.9301 19.9839C20.7915 19.9839 16.795 21.4936 13.6901 24.23C13.4914 24.412 13.3318 24.6326 13.2211 24.8783C13.1104 25.1241 13.0509 25.3898 13.0462 25.6592C13.0415 25.9287 13.0918 26.1963 13.1939 26.4457C13.296 26.6951 13.4478 26.9211 13.6401 27.11L14.8601 28.33C15.2058 28.6769 15.6674 28.884 16.1564 28.9116C16.6454 28.9393 17.1274 28.7856 17.5101 28.48Z" fill="white"/>
</svg>
