<svg width="17" height="17" viewBox="0 0 17 17" fill="none" xmlns="http://www.w3.org/2000/svg">
<path d="M16.8287 4.1787L12.8214 0.171362C12.7117 0.0616465 12.5628 0 12.4076 0C12.2524 0 12.1035 0.0616465 11.9938 0.171362L0.297356 11.8678C0.19201 11.9733 0.130754 12.1149 0.126228 12.2638L0.000515923 16.397C-0.00440019 16.5583 0.0575584 16.7145 0.171643 16.8286C0.281593 16.9385 0.430481 17 0.585455 17C0.591386 17 0.597317 16.9999 0.603325 16.9997L4.73629 16.8738C4.88526 16.8693 5.02689 16.8081 5.13231 16.7028L16.8288 5.0064C17.0572 4.77784 17.0572 4.40726 16.8287 4.1787ZM4.46864 15.711L1.18936 15.8108L1.28916 12.5314L8.39989 5.4206L11.5798 8.59992L4.46864 15.711ZM12.4075 7.7723L9.22752 4.59306L12.4075 1.41295L15.5871 4.59259L12.4075 7.7723Z" fill="#FC4D1F"/>
</svg>
