<svg width="20" height="20" viewBox="0 0 20 20" fill="none" xmlns="http://www.w3.org/2000/svg">
<g clip-path="url(#clip0_585_582)">
<path d="M16.8282 7.77176L17.0157 7.45926C17.4862 6.67129 17.6297 5.73044 17.4153 4.83804C17.201 3.94563 16.6459 3.17257 15.8688 2.68426C15.4776 2.44864 15.0433 2.29333 14.5914 2.22741C14.1395 2.16149 13.679 2.18627 13.2368 2.30032C12.7946 2.41436 12.3795 2.61538 12.0159 2.89163C11.6522 3.16788 11.3472 3.51383 11.1188 3.90926L10.8719 4.33739C10.1009 5.66575 8.99552 6.76902 7.66566 7.53739C6.86501 8.00496 6.20067 8.67394 5.73868 9.47782C5.27669 10.2817 5.03314 11.1925 5.03223 12.1197C5.03132 13.0469 5.27309 13.9581 5.7335 14.7629C6.19391 15.5677 6.85693 16.238 7.65667 16.7071C8.4564 17.1763 9.36499 17.428 10.2921 17.4371C11.2193 17.4463 12.1327 17.2127 12.9415 16.7595C13.7504 16.3063 14.4266 15.6492 14.9028 14.8537C15.3791 14.0582 15.6388 13.1519 15.6563 12.2249C15.6647 10.6654 16.0679 9.13342 16.8282 7.77176Z" fill="#A1D51C"/>
<path d="M11.5625 5.3374V3.30615C11.3931 3.49044 11.2443 3.69268 11.1188 3.90928L10.8719 4.3374C10.1009 5.66576 8.99552 6.76903 7.66566 7.5374C6.86501 8.00498 6.20067 8.67395 5.73868 9.47784C5.27669 10.2817 5.03314 11.1925 5.03223 12.1197C5.03132 13.0469 5.27309 13.9582 5.7335 14.7629C6.19391 15.5677 6.85693 16.238 7.65667 16.7072C8.4564 17.1763 9.36499 17.428 10.2921 17.4372C11.2193 17.4463 12.1327 17.2127 12.9415 16.7595C13.7504 16.3063 14.4266 15.6493 14.9028 14.8537C15.3791 14.0582 15.6388 13.1519 15.6563 12.2249C15.6548 12.2104 15.6548 12.1957 15.6563 12.1812C14.4198 11.5161 13.3863 10.5287 12.6656 9.32384C11.9449 8.11894 11.5637 6.74142 11.5625 5.3374Z" fill="#7AB92D"/>
<path d="M10.0002 6.74076V6.36264C10.0107 5.44846 9.66432 4.56621 9.0347 3.90333C8.40508 3.24045 7.54181 2.84918 6.62831 2.81264C6.1714 2.80391 5.71733 2.88638 5.29267 3.05522C4.86801 3.22406 4.48128 3.47589 4.15509 3.79596C3.82891 4.11603 3.56982 4.49794 3.39298 4.91933C3.21614 5.34072 3.1251 5.79314 3.12518 6.25014V6.74389C3.12165 8.28013 2.71544 9.78861 1.94706 11.1189C1.48813 11.9237 1.24767 12.8346 1.24952 13.761C1.25138 14.6875 1.4955 15.5974 1.95764 16.4004C2.41979 17.2034 3.0839 17.8715 3.88406 18.3386C4.68421 18.8056 5.59259 19.0552 6.51904 19.0627C7.44549 19.0702 8.35779 18.8353 9.1654 18.3813C9.973 17.9273 10.6478 17.2699 11.1229 16.4745C11.598 15.6791 11.8568 14.7733 11.8736 13.847C11.8905 12.9207 11.6648 12.006 11.2189 11.1939C10.4424 9.83655 10.0231 8.30435 10.0002 6.74076Z" fill="#C4F236"/>
<path d="M5.62505 11.8751V2.94385C4.90535 3.14786 4.27184 3.58109 3.82066 4.17777C3.36948 4.77446 3.12526 5.50204 3.12505 6.2501V6.74385C3.12152 8.28009 2.71531 9.78857 1.94693 11.1188C1.34156 12.2 1.13318 13.4588 1.35782 14.6774C1.58246 15.8959 2.226 16.9977 3.17709 17.7919C4.12818 18.5861 5.32698 19.0229 6.56609 19.0267C7.80519 19.0305 9.00664 18.601 9.96255 17.8126C8.70483 17.4083 7.60756 16.616 6.82826 15.5492C6.04897 14.4824 5.62774 13.1962 5.62505 11.8751Z" fill="#7AB92D"/>
<path d="M6.56263 17.8125C6.40638 17.8125 6.25013 17.8125 6.09388 17.7875C5.42708 17.7098 4.78993 17.4681 4.23939 17.084C3.68885 16.6999 3.24207 16.1853 2.93901 15.5863C2.63595 14.9873 2.48605 14.3225 2.50272 13.6514C2.51938 12.9804 2.70209 12.3238 3.0345 11.7406C3.90964 10.2193 4.37179 8.49567 4.37513 6.74062V6.25C4.37513 5.66984 4.60559 5.11344 5.01583 4.7032C5.42607 4.29297 5.98247 4.0625 6.56263 4.0625H6.60325C7.19013 4.09086 7.7428 4.34704 8.14372 4.77656C8.54465 5.20608 8.7622 5.77506 8.75013 6.3625V6.74062C8.7694 8.51577 9.24276 10.2564 10.1251 11.7969C10.4643 12.4155 10.6366 13.1119 10.6249 13.8173C10.6132 14.5228 10.418 15.213 10.0585 15.8201C9.69894 16.4272 9.18752 16.9301 8.57454 17.2795C7.96157 17.6289 7.26817 17.8126 6.56263 17.8125Z" fill="#E1FF85"/>
<path d="M5.62517 11.8749V4.2749C5.25137 4.45221 4.93552 4.73188 4.71427 5.08146C4.49302 5.43104 4.37544 5.83619 4.37517 6.2499V6.74365C4.37183 8.49869 3.90968 10.2224 3.03454 11.7437C2.70282 12.3268 2.52068 12.983 2.50437 13.6537C2.48807 14.3243 2.63811 14.9886 2.9411 15.5872C3.2441 16.1857 3.6906 16.6999 4.24076 17.0839C4.79091 17.4678 5.42758 17.7095 6.09392 17.7874C6.25017 17.7874 6.40642 17.8124 6.56267 17.8124C7.30231 17.8128 8.02778 17.6095 8.65954 17.2249C7.73542 16.6704 6.97038 15.8864 6.4387 14.949C5.90702 14.0116 5.62677 12.9526 5.62517 11.8749Z" fill="#C4F236"/>
<path d="M6.5625 15.9375C7.77062 15.9375 8.75 14.9581 8.75 13.75C8.75 12.5419 7.77062 11.5625 6.5625 11.5625C5.35438 11.5625 4.375 12.5419 4.375 13.75C4.375 14.9581 5.35438 15.9375 6.5625 15.9375Z" fill="#FCBC04"/>
<path d="M5.62519 11.8749V11.7749C5.17725 11.9882 4.81514 12.3474 4.59826 12.7937C4.38138 13.2399 4.32262 13.7465 4.43163 14.2305C4.54064 14.7145 4.81094 15.1471 5.19817 15.4573C5.5854 15.7674 6.06656 15.9367 6.56269 15.9374C6.73541 15.9372 6.90748 15.9162 7.07519 15.8749C6.13611 14.7538 5.62265 13.3373 5.62519 11.8749Z" fill="#E59730"/>
<path d="M18.75 1.5625C17.8028 1.56429 16.8857 1.89576 16.1563 2.5L16.0313 2.41562C15.6045 2.15809 15.1307 1.98822 14.6375 1.91594C14.1443 1.84366 13.6417 1.87043 13.159 1.99467C12.6763 2.11891 12.2232 2.33814 11.8262 2.63953C11.4292 2.94092 11.0963 3.31844 10.8469 3.75L10.5906 4.19062L10.5625 4.24062C10.5237 4.31179 10.5141 4.39525 10.5357 4.47338C10.5572 4.55151 10.6083 4.6182 10.6781 4.65937C10.7141 4.68041 10.7539 4.69403 10.7953 4.69943C10.8366 4.70484 10.8786 4.70193 10.9188 4.69086C10.959 4.67979 10.9965 4.6608 11.0293 4.635C11.062 4.6092 11.0892 4.57711 11.1094 4.54062L11.1438 4.49062L11.3906 4.0625C11.5984 3.70303 11.8758 3.38858 12.2064 3.1375C12.5371 2.88643 12.9145 2.70377 13.3166 2.60019C13.7187 2.49662 14.1374 2.47421 14.5482 2.53427C14.959 2.59433 15.3538 2.73566 15.7094 2.95C16.4124 3.39695 16.9136 4.1002 17.1067 4.91057C17.2998 5.72094 17.1696 6.57466 16.7438 7.29063L16.5563 7.60313C15.763 9.01677 15.3455 10.6102 15.3438 12.2312C15.3217 13.2318 14.9998 14.2027 14.4198 15.0184C13.8399 15.834 13.0285 16.4568 12.0906 16.8062C12.0241 16.8322 11.9685 16.8802 11.9331 16.9422C11.8976 17.0041 11.8845 17.0764 11.8958 17.1469C11.9071 17.2174 11.9422 17.2819 11.9953 17.3296C12.0484 17.3774 12.1162 17.4055 12.1875 17.4094C12.2248 17.4097 12.2618 17.4034 12.2969 17.3906C13.3542 16.9995 14.2696 16.2996 14.9244 15.3819C15.5791 14.4641 15.943 13.3708 15.9688 12.2437C15.9717 10.7327 16.3599 9.24732 17.0969 7.92813L17.2875 7.61563C17.7216 6.87339 17.8958 6.00761 17.7826 5.15525C17.6694 4.30289 17.2753 3.51259 16.6625 2.90938C17.26 2.44566 17.9937 2.19193 18.75 2.1875C18.8329 2.1875 18.9124 2.15458 18.971 2.09597C19.0296 2.03737 19.0625 1.95788 19.0625 1.875C19.0625 1.79212 19.0296 1.71263 18.971 1.65403C18.9124 1.59542 18.8329 1.5625 18.75 1.5625ZM6.5625 11.25C6.06805 11.25 5.5847 11.3966 5.17358 11.6713C4.76245 11.946 4.44202 12.3365 4.2528 12.7933C4.06358 13.2501 4.01407 13.7528 4.11054 14.2377C4.207 14.7227 4.4451 15.1681 4.79473 15.5178C5.14437 15.8674 5.58982 16.1055 6.07478 16.202C6.55973 16.2984 7.06239 16.2489 7.51921 16.0597C7.97603 15.8705 8.36647 15.55 8.64118 15.1389C8.91588 14.7278 9.0625 14.2445 9.0625 13.75C9.0625 13.087 8.79911 12.4511 8.33027 11.9822C7.86143 11.5134 7.22554 11.25 6.5625 11.25ZM6.5625 15.625C6.19166 15.625 5.82915 15.515 5.52081 15.309C5.21246 15.103 4.97214 14.8101 4.83023 14.4675C4.68831 14.1249 4.65118 13.7479 4.72353 13.3842C4.79588 13.0205 4.97445 12.6864 5.23668 12.4242C5.4989 12.162 5.83299 11.9834 6.19671 11.911C6.56042 11.8387 6.93742 11.8758 7.28003 12.0177C7.62264 12.1596 7.91548 12.4 8.12151 12.7083C8.32753 13.0166 8.4375 13.3792 8.4375 13.75C8.4375 14.2473 8.23996 14.7242 7.88833 15.0758C7.5367 15.4275 7.05978 15.625 6.5625 15.625Z" fill="#39519D"/>
<path d="M6.60639 3.75H6.56264C5.8996 3.75 5.26371 4.01339 4.79487 4.48223C4.32603 4.95107 4.06264 5.58696 4.06264 6.25V6.74375C4.05781 8.44291 3.60971 10.1114 2.76264 11.5844C2.40451 12.2126 2.2077 12.9199 2.18982 13.6428C2.17193 14.3657 2.33352 15.0818 2.66015 15.727C2.98677 16.3722 3.46823 16.9264 4.06145 17.3399C4.65468 17.7535 5.34117 18.0136 6.05951 18.0969C6.22657 18.1156 6.39454 18.125 6.56264 18.125C7.13739 18.1264 7.70672 18.0139 8.23774 17.794C8.76876 17.5741 9.25093 17.2511 9.65639 16.8438C9.7667 16.7327 9.87101 16.6159 9.96889 16.4937C10.0203 16.4294 10.0443 16.3473 10.0355 16.2654C10.0267 16.1834 9.98593 16.1083 9.92201 16.0563C9.89024 16.0301 9.85362 16.0105 9.81426 15.9986C9.77489 15.9866 9.73355 15.9826 9.69262 15.9866C9.65168 15.9907 9.61195 16.0028 9.5757 16.0222C9.53945 16.0417 9.5074 16.0681 9.48139 16.1C9.39076 16.2125 9.30326 16.3125 9.21576 16.4125C8.57467 17.0616 7.71892 17.4548 6.80879 17.5183C5.89867 17.5818 4.9966 17.3114 4.27153 16.7576C3.54647 16.2039 3.04816 15.4048 2.86992 14.51C2.69168 13.6153 2.84575 12.6862 3.30326 11.8969C4.20569 10.3291 4.6829 8.55272 4.68764 6.74375V6.25C4.68764 5.75272 4.88518 5.27581 5.23681 4.92417C5.58844 4.57254 6.06536 4.375 6.56264 4.375H6.60014C7.10439 4.40325 7.57794 4.62634 7.92079 4.99718C8.26364 5.36802 8.44897 5.85758 8.43764 6.3625V6.74062C8.4571 8.56905 8.9433 10.3622 9.85014 11.95C10.1124 12.4287 10.267 12.9588 10.3032 13.5034C10.3393 14.048 10.2562 14.594 10.0595 15.1031C10.0411 15.142 10.0308 15.1842 10.0294 15.2271C10.028 15.2701 10.0355 15.3129 10.0514 15.3528C10.0673 15.3928 10.0913 15.429 10.1219 15.4593C10.1524 15.4895 10.1889 15.5131 10.229 15.5287C10.2691 15.5442 10.3119 15.5513 10.3549 15.5495C10.3978 15.5477 10.4399 15.537 10.4786 15.5182C10.5172 15.4994 10.5516 15.4728 10.5795 15.4401C10.6074 15.4074 10.6283 15.3693 10.6408 15.3281C10.8722 14.7341 10.9703 14.0965 10.9282 13.4604C10.886 12.8243 10.7047 12.2052 10.397 11.6469C9.54189 10.1517 9.0826 8.46296 9.06264 6.74062V6.3625C9.07389 5.69297 8.82357 5.04546 8.36489 4.5576C7.90621 4.06974 7.27534 3.78001 6.60639 3.75Z" fill="#39519D"/>
<path d="M11.4939 11.0437C10.7398 9.73349 10.3332 8.25223 10.3126 6.74062V6.3625C10.3194 5.41386 9.9748 4.49628 9.3453 3.78657C8.71579 3.07686 7.84589 2.62525 6.90323 2.51875C6.97154 2.16184 7.16212 1.83991 7.44217 1.60834C7.72222 1.37678 8.07422 1.25006 8.4376 1.25C8.52048 1.25 8.59997 1.21708 8.65857 1.15847C8.71718 1.09987 8.7501 1.02038 8.7501 0.9375C8.7501 0.85462 8.71718 0.775134 8.65857 0.716529C8.59997 0.657924 8.52048 0.625 8.4376 0.625C7.90868 0.625499 7.39785 0.81762 6.99969 1.1658C6.60153 1.51397 6.343 1.99462 6.27198 2.51875C5.78263 2.55605 5.30511 2.68763 4.86573 2.90625C4.829 2.92492 4.79631 2.95065 4.76952 2.98195C4.74273 3.01326 4.72237 3.04954 4.7096 3.08871C4.69684 3.12789 4.69191 3.16919 4.6951 3.21027C4.6983 3.25135 4.70955 3.2914 4.72823 3.32812C4.7469 3.36485 4.77262 3.39755 4.80393 3.42433C4.83524 3.45112 4.87151 3.47148 4.91069 3.48425C4.94986 3.49702 4.99117 3.50194 5.03225 3.49875C5.07333 3.49555 5.11337 3.4843 5.1501 3.46563C5.6043 3.23019 6.11052 3.11304 6.62198 3.125C7.45369 3.15989 8.23907 3.51751 8.81143 4.12197C9.3838 4.72642 9.69809 5.53012 9.6876 6.3625V6.74062C9.70453 8.35753 10.1348 9.94322 10.9376 11.3469C11.3586 12.1112 11.5723 12.9725 11.5573 13.845C11.5423 14.7175 11.2993 15.5709 10.8523 16.3204C10.4053 17.0699 9.76991 17.6893 9.00933 18.1171C8.24875 18.5449 7.38944 18.7663 6.51683 18.7591C5.64421 18.7519 4.78867 18.5164 4.03524 18.0761C3.28182 17.6358 2.65675 17.006 2.22217 16.2493C1.78759 15.4925 1.55863 14.6352 1.55805 13.7626C1.55746 12.8899 1.78528 12.0323 2.21885 11.275C3.01247 9.89637 3.43256 8.33448 3.4376 6.74375V6.25C3.4386 5.47891 3.72464 4.73542 4.24073 4.1625C4.29612 4.1011 4.32492 4.02026 4.32082 3.93767C4.31672 3.85508 4.28005 3.77748 4.21885 3.72187C4.18818 3.69416 4.15232 3.67281 4.11334 3.65905C4.07435 3.64529 4.03303 3.6394 3.99176 3.64173C3.95048 3.64405 3.91008 3.65455 3.87289 3.67259C3.8357 3.69064 3.80247 3.71589 3.7751 3.74687C3.15669 4.43408 2.81392 5.32551 2.8126 6.25V6.74375C2.80776 8.22472 2.41677 9.67882 1.67823 10.9625C1.21665 11.7705 0.962756 12.6804 0.939289 13.6107C0.915822 14.541 1.12352 15.4626 1.54376 16.2928C1.96401 17.1231 2.58368 17.8361 3.34724 18.3681C4.1108 18.9 4.9944 19.2341 5.91885 19.3406C6.1376 19.3625 6.35635 19.375 6.57198 19.375C7.95665 19.3819 9.29399 18.8714 10.322 17.9437C11.2696 17.0963 11.9022 15.9529 12.1168 14.6999C12.3313 13.4469 12.115 12.1581 11.5032 11.0437H11.4939Z" fill="#39519D"/>
</g>
<defs>
<clipPath id="clip0_585_582">
<rect width="20" height="20" fill="white"/>
</clipPath>
</defs>
</svg>
