<svg width="18" height="18" viewBox="0 0 18 18" fill="none" xmlns="http://www.w3.org/2000/svg">
<g clip-path="url(#clip0_606_1010)">
<path d="M16.0778 5.12391C15.9977 4.99991 15.8323 4.96433 15.7082 5.04446C15.5842 5.12459 15.5486 5.29005 15.6288 5.41409C16.8303 7.27376 17.4653 9.3863 17.4653 11.5233C17.4653 11.6097 17.4643 11.6971 17.4623 11.7831C17.384 15.1045 14.3686 16.6173 11.6 16.6173C8.83135 16.6173 5.81592 15.1045 5.73765 11.7831C5.73562 11.6971 5.73458 11.6097 5.73458 11.5233C5.73458 9.48575 6.284 7.54009 7.36757 5.74041C8.37696 4.0639 9.83818 2.57731 11.6 1.43257C12.9212 2.29041 14.0573 3.32222 14.9789 4.50157C15.0698 4.61791 15.2378 4.63851 15.3541 4.54762C15.4705 4.45669 15.4911 4.28871 15.4001 4.17236C14.4077 2.90231 13.1772 1.79767 11.743 0.889146C11.6556 0.833826 11.5442 0.833826 11.4569 0.889146C9.86652 1.89655 8.50378 3.17252 7.46876 4.61581C6.8404 3.97679 6.1267 3.40235 5.34272 2.90576C5.25535 2.85044 5.1439 2.85044 5.0566 2.90576C3.52517 3.87599 2.25468 5.15453 1.38252 6.60313C0.478054 8.10537 0 9.79977 0 11.5032C0 11.583 0.000819807 11.6551 0.00256635 11.7234C0.0206021 12.4885 0.214932 13.1858 0.580138 13.7959C0.630253 13.8796 0.718899 13.926 0.809755 13.926C0.85652 13.926 0.903819 13.9137 0.946841 13.888C1.07352 13.8122 1.11472 13.648 1.03891 13.5213C0.721751 12.9915 0.552906 12.3824 0.53708 11.7103C0.535441 11.6462 0.534657 11.5784 0.534657 11.5032C0.534657 9.87401 0.974037 8.3182 1.84057 6.8789C2.64291 5.54629 3.80205 4.36349 5.19975 3.44944C5.92335 3.92232 6.58144 4.46496 7.16066 5.06556C7.07436 5.19737 6.99042 5.33029 6.90958 5.46456C5.79115 7.32217 5.19996 9.4172 5.19996 11.5232C5.19996 11.6139 5.20103 11.7055 5.20317 11.7956C5.23639 13.2061 5.75736 14.4235 6.71825 15.3558C5.93654 15.559 5.08052 15.6029 4.26114 15.4764C3.2469 15.3198 2.36543 14.9253 1.71204 14.3354C1.60247 14.2365 1.43352 14.2451 1.33447 14.3547C1.23556 14.4643 1.24418 14.6333 1.35379 14.7323C2.32708 15.6109 3.74848 16.0848 5.20153 16.0848C5.87527 16.0848 6.55585 15.9827 7.20161 15.7721C7.22489 15.79 7.24795 15.808 7.27158 15.8255C8.42419 16.6809 9.96137 17.152 11.6 17.152C13.2386 17.152 14.7757 16.6809 15.9283 15.8255C17.2424 14.8503 17.9577 13.4568 17.9968 11.7957C17.9989 11.7056 18 11.6139 18 11.5233C18 9.28311 17.3354 7.07024 16.0778 5.12391Z" fill="#7B6F72"/>
</g>
<defs>
<clipPath id="clip0_606_1010">
<rect width="18" height="18" fill="white"/>
</clipPath>
</defs>
</svg>
