<svg width="21" height="22" viewBox="0 0 21 22" fill="none" xmlns="http://www.w3.org/2000/svg">
<path d="M21 3.20509C21 2.11856 19.8747 1.3099 17.5597 0.732745C15.6644 0.260225 13.1573 0 10.5001 0C7.84294 0 5.33568 0.260225 3.44037 0.732745C1.12536 1.3099 0 2.11856 0 3.20509C0 3.60713 0.154557 3.97105 0.465976 4.29936L7.61216 12.9433V21.2168C7.61216 21.4878 7.75258 21.7395 7.98347 21.8823C8.10986 21.9605 8.25342 22 8.39751 22C8.51667 22 8.63604 21.973 8.74631 21.9186L12.9427 19.8444C13.2097 19.7124 13.3788 19.441 13.3793 19.1437L13.3873 12.9438L20.5344 4.29883C20.8457 3.97063 21 3.60702 21 3.20509ZM4.17535 2.16858C5.90595 1.78023 8.15206 1.56636 10.5001 1.56636C12.848 1.56636 15.0943 1.78023 16.8246 2.16858C18.7357 2.59745 19.2729 3.05838 19.4013 3.20509C19.2727 3.35181 18.7357 3.81274 16.8246 4.24161C15.0943 4.62996 12.8479 4.84382 10.5001 4.84382C8.15216 4.84382 5.90595 4.62996 4.17535 4.24171C2.26443 3.81284 1.72715 3.35191 1.59866 3.2052C1.72715 3.05838 2.26443 2.59745 4.17535 2.16858ZM11.9965 12.164C11.8808 12.304 11.8173 12.4796 11.8171 12.6611L11.8093 18.6564L9.18296 19.9546V12.6622C9.18296 12.4804 9.11961 12.3042 9.00359 12.164L3.69011 5.73686C5.55338 6.17147 7.9574 6.41029 10.5001 6.41029C13.0428 6.41029 15.4467 6.17147 17.31 5.73686L11.9965 12.164Z" fill="#371B34"/>
</svg>
