<svg width="20" height="24" viewBox="0 0 20 24" fill="none" xmlns="http://www.w3.org/2000/svg">
<path d="M18.8885 0C19.1833 0 19.4662 0.107128 19.6746 0.297681C19.8831 0.488233 20 0.746601 20 1.01608V22.9839C20 23.2534 19.8831 23.5118 19.6746 23.7023C19.4662 23.8929 19.1833 24 18.8885 24C18.5937 24 18.3111 23.8929 18.1027 23.7023C17.8942 23.5118 17.777 23.2534 17.777 22.9839V13.1441L1.71282 22.5845C1.54496 22.6833 1.35114 22.7389 1.15165 22.7455C0.952158 22.7521 0.754332 22.7094 0.579081 22.622C0.403797 22.5345 0.257389 22.4056 0.155489 22.2486C0.0535885 22.0917 -3.69401e-05 21.9125 1.90917e-08 21.7299V2.26386C-3.69401e-05 2.08132 0.0535885 1.90214 0.155489 1.74515C0.257389 1.58817 0.403797 1.45925 0.579081 1.37181C0.754233 1.28428 0.951887 1.24134 1.15138 1.24778C1.35087 1.25421 1.54485 1.30968 1.71282 1.40828L17.777 10.8487V1.01608C17.777 0.746601 17.8942 0.488233 18.1027 0.297681C18.3111 0.107128 18.5937 0 18.8885 0ZM15.6186 11.9968L2.22406 4.12536V19.8694L15.6186 11.9968Z" fill="#8B7B89"/>
</svg>
