<svg width="20" height="19" viewBox="0 0 20 19" fill="none" xmlns="http://www.w3.org/2000/svg">
<path d="M16.1295 3.54865V5.16158H16.1069H14.0875H13.5746H13.5488V3.54865V3.54542C13.5521 2.8325 14.1263 2.2583 14.8392 2.2583C15.5521 2.2583 16.1263 2.8325 16.1295 3.54542V3.54865Z" fill="#A0D468"/>
<path d="M15.5298 12.0839C15.3234 12.4033 15.0914 12.5807 14.8395 12.5807C14.5911 12.5807 14.3556 12.4001 14.1492 12.0839C14.3911 11.8259 14.6263 11.442 14.8395 10.9678C15.0556 11.442 15.2911 11.8259 15.5298 12.0839Z" fill="#CCD1D9"/>
<path d="M14.0877 5.17775C13.9006 5.99712 13.9006 7.27133 14.1297 8.56168C14.291 9.48105 14.5426 10.3101 14.8394 10.9682C14.6264 11.4424 14.391 11.8262 14.149 12.0843C13.8874 12.365 13.6232 12.5005 13.3748 12.4585C12.578 12.3198 12.2587 10.3456 12.6651 8.05199C12.8619 6.93907 13.1945 5.86163 13.5748 5.16162H14.0877V5.17775V5.17775Z" fill="#E6E9ED"/>
<path d="M15.5296 12.0843C15.2912 11.8262 15.0554 11.4424 14.8393 10.9682C14.5425 10.3101 14.2909 9.48105 14.1296 8.56168C13.9005 7.27133 13.9005 5.99712 14.0876 5.17775V5.16162H16.107C16.488 5.86163 16.8199 6.93907 17.0167 8.05199C17.4199 10.3456 17.1006 12.3198 16.3038 12.4585C16.0551 12.5037 15.7909 12.365 15.5296 12.0843Z" fill="#F5F7FA"/>
<path d="M14.8397 2.57905C14.6613 2.57905 14.5171 2.43486 14.5171 2.25647V0.964188C14.5171 0.785798 14.6613 0.641602 14.8397 0.641602C15.0181 0.641602 15.1623 0.785798 15.1623 0.964188V2.25647C15.1623 2.43486 15.0181 2.57905 14.8397 2.57905Z" fill="#A0D468"/>
<path d="M2.8758 11.5437C2.83193 11.5437 2.78742 11.535 2.74483 11.5157C2.58193 11.4431 2.50902 11.2528 2.58161 11.0899C5.58521 4.35298 12.2956 0 19.6774 0C19.8558 0 20 0.144196 20 0.322586C20 0.500976 19.8558 0.645172 19.6774 0.645172C12.5502 0.645172 6.0707 4.84782 3.17065 11.3525C3.1171 11.4725 2.99936 11.5437 2.8758 11.5437ZM9.72979 10.5937C9.52301 14.8261 5.84585 18.5068 1.61353 18.71C2.11676 17.5971 2.50386 16.31 2.76838 14.9325C4.21357 12.4905 6.84265 10.7357 9.72979 10.5937Z" fill="#8CC152"/>
<path d="M1.61374 1.29053C3.26215 4.93898 3.64603 10.4229 2.7686 14.9327C2.50407 16.3101 2.11665 17.5973 1.61374 18.7102C-0.537912 13.9488 -0.537912 6.0519 1.61374 1.29053Z" fill="#A0D468"/>
</svg>
