<svg width="18" height="18" viewBox="0 0 18 18" fill="none" xmlns="http://www.w3.org/2000/svg">
<path fill-rule="evenodd" clip-rule="evenodd" d="M7.19351 11.405C9.96026 11.405 12.325 11.8243 12.325 13.499C12.325 15.1738 9.97601 15.605 7.19351 15.605C4.42601 15.605 2.06201 15.1895 2.06201 13.514C2.06201 11.8385 4.41026 11.405 7.19351 11.405Z" stroke="#7B6F72" stroke-width="1.2" stroke-linecap="round" stroke-linejoin="round"/>
<path fill-rule="evenodd" clip-rule="evenodd" d="M7.19355 9.01476C5.37705 9.01476 3.90405 7.54251 3.90405 5.72601C3.90405 3.90951 5.37705 2.43726 7.19355 2.43726C9.0093 2.43726 10.4823 3.90951 10.4823 5.72601C10.4891 7.53576 9.02655 9.00801 7.2168 9.01476H7.19355Z" stroke="#7B6F72" stroke-width="1.2" stroke-linecap="round" stroke-linejoin="round"/>
<path d="M12.3623 8.16121C13.5631 7.99246 14.4878 6.96196 14.4901 5.71471C14.4901 4.48546 13.5938 3.46546 12.4186 3.27271" stroke="#7B6F72" stroke-width="1.2" stroke-linecap="round" stroke-linejoin="round"/>
<path d="M13.9465 11.0491C15.1098 11.2223 15.922 11.6303 15.922 12.4703C15.922 13.0486 15.5395 13.4236 14.9215 13.6583" stroke="#7B6F72" stroke-width="1.2" stroke-linecap="round" stroke-linejoin="round"/>
</svg>
