<svg width="20" height="20" viewBox="0 0 20 20" fill="none" xmlns="http://www.w3.org/2000/svg">
<path d="M12.2727 16.606H7.72728C7.21213 16.606 6.81819 17.0303 6.81819 17.5151C6.81819 17.9697 7.15152 18.3636 7.57577 18.4242C7.54546 18.5151 7.51516 18.6363 7.51516 18.7576C7.51516 19.2727 7.9394 19.6666 8.42425 19.6666H11.5758C12.0909 19.6666 12.4849 19.2424 12.4849 18.7576C12.4849 18.6363 12.4546 18.5151 12.4243 18.4242C12.8485 18.3636 13.2121 17.9697 13.2121 17.5151C13.2121 17.0303 12.7879 16.606 12.2727 16.606ZM3.8788 8.90907C3.81819 8.90907 3.72728 8.90907 3.66668 8.87877C3.9091 10.4242 4.69698 11.8182 5.9091 12.8182C6.8788 13.6363 7.42425 14.6363 7.57577 16C7.63637 16 7.66668 16 7.72728 16H9.69698V10.5151L9.18183 11C9.06061 11.1212 8.8788 11.1212 8.75758 11L7.78789 9.99998C7.66668 9.87877 7.66668 9.69695 7.78789 9.57574C7.9091 9.45453 8.09092 9.45453 8.21213 9.57574L9.00001 10.3636L9.78789 9.57574C9.9091 9.45453 10.0909 9.45453 10.2121 9.57574L11 10.3636L11.7879 9.57574C11.9091 9.45453 12.0909 9.45453 12.2121 9.57574C12.3333 9.69695 12.3333 9.87877 12.2121 9.99998L11.2121 11C11.0909 11.1212 10.9091 11.1212 10.7879 11L10.303 10.5151V16.0303H12.303C12.3636 16.0303 12.3939 16.0303 12.4546 16.0303C12.6364 14.6666 13.1515 13.6363 14.1515 12.8182C15.3333 11.8182 16.1212 10.4242 16.3636 8.90907C16.303 8.93937 16.2121 8.93937 16.1515 8.93937H3.8788V8.90907ZM17.303 5.78786C17.0303 5.1818 16.4849 4.75756 15.8182 4.60604C16 3.48483 15.1212 2.39392 13.8485 2.36362C13.8485 0.151496 11.0606 -0.393959 10 1.2424C8.84849 -0.545474 6.00001 0.39392 6.15152 2.36362C4.9091 2.39392 4.00001 3.45453 4.18183 4.60604C3.51516 4.72725 2.96971 5.1818 2.69698 5.78786C2.27274 6.75756 2.72728 7.84846 3.72728 8.30301C3.75758 8.30301 3.81819 8.33331 3.84849 8.33331H16.1212C16.1515 8.33331 16.2121 8.33331 16.2424 8.30301C17.2424 7.87877 17.697 6.75756 17.303 5.78786ZM5.54546 5.96968C5.24243 5.96968 5.00001 6.1818 4.96971 6.48483C4.96971 6.63634 4.81819 6.75756 4.66668 6.75756C4.51516 6.75756 4.39395 6.60604 4.39395 6.45453C4.42425 5.84846 4.9394 5.36362 5.57577 5.39392C5.72728 5.39392 5.8788 5.54543 5.84849 5.69695C5.84849 5.84846 5.69698 5.96968 5.54546 5.96968ZM7.54546 5.1818C7.24243 5.1818 7.00001 5.39392 6.96971 5.69695C6.96971 5.84846 6.81819 5.96968 6.66668 5.96968C6.51516 5.96968 6.39395 5.81816 6.39395 5.66665C6.42425 5.06059 6.9394 4.57574 7.57577 4.60604C7.72728 4.60604 7.8788 4.75756 7.84849 4.90907C7.84849 5.06059 7.69698 5.1818 7.54546 5.1818ZM8.42425 3.1515C8.12122 3.1515 7.8788 3.36362 7.84849 3.66665C7.84849 3.81816 7.69698 3.93937 7.54546 3.93937C7.39395 3.93937 7.27274 3.78786 7.27274 3.63634C7.30304 3.03028 7.81819 2.54543 8.45455 2.57574C8.60607 2.57574 8.75758 2.72725 8.72728 2.87877C8.69698 3.03028 8.57577 3.1515 8.42425 3.1515ZM10.9697 5.27271L9.72728 6.63634C9.60607 6.75756 9.42425 6.75756 9.30304 6.66665C9.18183 6.54543 9.18183 6.36362 9.27274 6.2424L10.0606 5.39392H9.39395C9.27274 5.39392 9.18183 5.33331 9.12122 5.2424C9.06062 5.15149 9.09092 5.03028 9.15152 4.93937L10.2121 3.51513C10.303 3.39392 10.4849 3.36362 10.6364 3.45453C10.7576 3.54543 10.7879 3.72725 10.697 3.87877L10 4.78786H10.7576C10.8788 4.78786 10.9697 4.84846 11.0303 4.96968C11.0606 5.06059 11.0303 5.1818 10.9697 5.27271ZM12.1818 3.39392C12 3.39392 11.8788 3.27271 11.8788 3.12119C11.8788 2.81816 11.6061 2.60604 11.303 2.60604C11.1515 2.60604 11 2.48483 11 2.33331C11 2.1818 11.1212 2.03028 11.2727 2.03028C11.8788 1.99998 12.4243 2.48483 12.4546 3.09089C12.4849 3.2424 12.3333 3.39392 12.1818 3.39392ZM14.0909 4.27271C13.8182 4.81816 13.1818 5.06059 12.6061 4.81816C12.4546 4.75756 12.3939 4.57574 12.4546 4.42422C12.5152 4.27271 12.697 4.2121 12.8485 4.27271C13.1212 4.39392 13.4243 4.27271 13.5455 4.03028C13.6061 3.87877 13.7879 3.81816 13.9394 3.87877C14.0909 3.93937 14.1515 4.12119 14.0909 4.27271ZM15.4849 6.2424C15.3333 6.2424 15.2121 6.27271 15.0909 6.36362C14.9697 6.45453 14.9091 6.57574 14.9091 6.72725C14.9091 6.87877 14.7576 6.99998 14.6061 6.99998H14.5758C14.4243 6.99998 14.303 6.84846 14.303 6.66665C14.3636 6.06059 14.9091 5.60604 15.5152 5.66665C15.6667 5.66665 15.7879 5.81816 15.7879 5.99998C15.7879 6.12119 15.6364 6.2424 15.4849 6.2424Z" fill="#FC4D1F"/>
</svg>
