<svg width="28" height="24" viewBox="0 0 28 24" fill="none" xmlns="http://www.w3.org/2000/svg">
<path d="M15.3991 0.00465262C8.61371 -0.181978 3.05479 5.2703 3.05479 12.0023H0.668583C0.0686992 12.0023 -0.224577 12.7222 0.202007 13.1354L3.92129 16.868C4.1879 17.1347 4.60115 17.1347 4.86777 16.868L8.58705 13.1354C9.0003 12.7222 8.70702 12.0023 8.10714 12.0023H5.72094C5.72094 6.80333 9.96011 2.60415 15.1858 2.6708C20.1448 2.73746 24.3173 6.90998 24.384 11.869C24.4506 17.0813 20.2515 21.3339 15.0525 21.3339C12.9062 21.3339 10.9199 20.6007 9.3469 19.3609C8.81367 18.9476 8.06715 18.9876 7.58724 19.4675C7.02735 20.0274 7.06734 20.9739 7.69389 21.4538C9.72016 23.0535 12.2663 24 15.0525 24C21.7845 24 27.2368 18.4411 27.0501 11.6557C26.8768 5.40361 21.6512 0.177952 15.3991 0.00465262ZM14.7192 6.67003C14.1726 6.67003 13.7194 7.12327 13.7194 7.66983V12.5755C13.7194 13.0421 13.9727 13.482 14.3726 13.722L18.5318 16.1882C19.0117 16.4681 19.6249 16.3082 19.9049 15.8416C20.1848 15.3617 20.0248 14.7485 19.5583 14.4685L15.719 12.189V7.6565C15.719 7.12327 15.2658 6.67003 14.7192 6.67003Z" fill="#291B30"/>
</svg>
