<svg width="23" height="22" viewBox="0 0 23 22" fill="none" xmlns="http://www.w3.org/2000/svg">
<path d="M22.596 8.54415L19.7182 6.20183V2.45582C19.7182 2.03399 19.3745 1.69075 18.9521 1.69075H17.1413C16.7189 1.69075 16.3752 2.03399 16.3752 2.45582V3.48081L12.5299 0.35103C12.2517 0.124707 11.8851 0 11.4976 0C11.1116 0 10.7467 0.123942 10.4701 0.349083L0.40395 8.54408C-0.0534139 8.91625 -0.0259735 9.24043 0.0310665 9.40054C0.0879671 9.5603 0.271205 9.82836 0.858738 9.82836H2.2371V20.6053C2.2371 21.3744 2.86196 22 3.63002 22H7.98288C8.74446 22 9.34098 21.3873 9.34098 20.6053V16.1859C9.34098 15.8071 9.68956 15.4622 10.0723 15.4622H12.9974C13.3622 15.4622 13.659 15.7868 13.659 16.1859V20.6053C13.659 21.3613 14.3129 22 15.0868 22H19.37C20.138 22 20.7629 21.3743 20.7629 20.6053V9.82836H22.1413C22.7288 9.82836 22.912 9.5603 22.9689 9.40054C23.026 9.24043 23.0534 8.91625 22.596 8.54415Z" fill="#E5E5E5"/>
</svg>
