<svg width="24" height="19" viewBox="0 0 24 19" fill="none" xmlns="http://www.w3.org/2000/svg">
<path fill-rule="evenodd" clip-rule="evenodd" d="M15.7599 6.42265e-07H8.24016C6.55697 -2.38739e-05 5.20026 -4.84778e-05 4.13323 0.142832C3.0254 0.291179 2.09264 0.608528 1.35182 1.34637C0.610991 2.0842 0.292357 3.0132 0.14341 4.11656C-4.86741e-05 5.17929 -2.39705e-05 6.53052 6.44865e-07 8.20691V10.7931C-2.39705e-05 12.4695 -4.86741e-05 13.8207 0.14341 14.8835C0.292357 15.9868 0.610991 16.9158 1.35182 17.6537C2.09264 18.3915 3.0254 18.7089 4.13323 18.8572C5.20026 19 6.55696 19 8.24014 19H15.7599C17.4431 19 18.7998 19 19.8668 18.8572C20.9746 18.7089 21.9073 18.3915 22.6482 17.6537C23.389 16.9158 23.7077 15.9868 23.8566 14.8835C24 13.8207 24 12.4695 24 10.7931V8.20693C24 6.53053 24 5.1793 23.8566 4.11656C23.7077 3.0132 23.389 2.0842 22.6482 1.34637C21.9073 0.608528 20.9746 0.291179 19.8668 0.142832C18.7998 -4.84778e-05 17.4431 -2.38739e-05 15.7599 6.42265e-07ZM5.0282 5.00029C4.57222 4.77322 4.01775 4.9573 3.78976 5.41143C3.56177 5.86557 3.7466 6.41781 4.20257 6.64488L10.4864 9.77409C11.4393 10.2486 12.5607 10.2486 13.5136 9.77409L19.7974 6.64488C20.2534 6.41781 20.4383 5.86557 20.2102 5.41143C19.9823 4.9573 19.4278 4.77322 18.9718 5.00029L12.688 8.12951C12.2549 8.34517 11.7451 8.34517 11.312 8.12951L5.0282 5.00029Z" fill="#E5E5E5"/>
</svg>
