<svg width="36" height="32" viewBox="0 0 36 32" fill="none" xmlns="http://www.w3.org/2000/svg">
<path d="M3.19459 23.0586C0.665497 23.0586 0.665497 24.5894 0.665497 25.384C0.665497 30.7485 6.26742 31.241 13.1778 31.241H22.405C29.3154 31.241 34.9173 30.3049 34.9173 25.384C34.9173 24.5894 34.6751 23.0586 32.4121 23.0586H3.19459Z" fill="#FC4D1F"/>
<path d="M35.583 18.9479C35.583 19.8264 34.8643 20.5452 33.9857 20.5452H1.5973C0.71876 20.5452 0 19.8264 0 18.9479V17.7501C0 16.8716 0.71876 16.1528 1.5973 16.1528H33.9857C34.8643 16.1528 35.583 16.8716 35.583 17.7501V18.9479Z" fill="#FC4D1F"/>
<path d="M18.4119 0H17.1712C10.2609 0 0.665619 4.27092 0.665619 11.1813C0.665619 11.976 0.907865 13.5066 3.17066 13.5066H32.3884C34.9175 13.5066 34.9175 11.976 34.9175 11.1813C34.9174 4.27092 25.3221 0 18.4119 0ZM10.2943 8.86549C9.63399 9.9668 8.49667 10.4985 7.75398 10.0531C7.01129 9.60771 6.94454 8.35414 7.60488 7.25283C8.26522 6.15164 9.40254 5.61987 10.1452 6.06529C10.8878 6.5106 10.9547 7.7643 10.2943 8.86549ZM17.7915 10.4871C16.9645 10.4871 16.2939 9.40007 16.2939 8.05922C16.2939 6.71836 16.9645 5.63136 17.7915 5.63136C18.6186 5.63136 19.2891 6.71836 19.2891 8.05922C19.2891 9.40007 18.6186 10.4871 17.7915 10.4871ZM27.8291 10.0531C27.0864 10.4985 25.949 9.9668 25.2887 8.86549C24.6284 7.7643 24.6951 6.5106 25.4378 6.06529C26.1805 5.61987 27.3178 6.15164 27.9782 7.25283C28.6386 8.35414 28.5719 9.60771 27.8291 10.0531Z" fill="#FC4D1F"/>
</svg>
