<svg width="41" height="30" viewBox="0 0 41 30" fill="none" xmlns="http://www.w3.org/2000/svg">
<path d="M4.68362 4.89355C3.37079 4.89355 2.30579 5.95821 2.30579 7.27155V12.0572C0.984012 12.3819 0 13.5658 0 14.9876C0 16.4098 0.983927 17.5936 2.30579 17.9183V22.7034C2.30579 24.0169 3.37079 25.0813 4.68362 25.0813C5.99637 25.0813 7.06153 24.0169 7.06153 22.7034V7.27155C7.06153 5.95829 5.99637 4.89355 4.68362 4.89355Z" fill="#FC4D1F"/>
<path d="M28.2459 0C26.296 0 24.7153 1.58068 24.7153 3.53072V11.4569H23.6343H18.5184H16.8612L16.2847 11.4431V3.53072C16.2847 1.58077 14.7039 0 12.7539 0C10.804 0 9.22318 1.58068 9.22318 3.53072V26.4447C9.22318 28.3947 10.804 29.9754 12.7539 29.9754C14.704 29.9754 16.2847 28.3947 16.2847 26.4447V18.5364C16.2847 18.5364 16.6648 18.5185 16.8612 18.5185H18.5184H23.6343H24.7153V26.4447C24.7153 28.3947 26.296 29.9754 28.2459 29.9754C30.1961 29.9754 31.7767 28.3947 31.7767 26.4447V3.53064C31.7767 1.58077 30.1961 0 28.2459 0Z" fill="#FC4D1F"/>
<path d="M38.6941 12.0572V7.27155C38.6941 5.95829 37.629 4.89355 36.3164 4.89355C35.0036 4.89355 33.9385 5.95821 33.9385 7.27155V22.7034C33.9385 24.0169 35.0036 25.0813 36.3164 25.0813C37.629 25.0813 38.6941 24.0169 38.6941 22.7034V17.9183C40.016 17.5936 41 16.4098 41 14.9876C40.9999 13.5657 40.016 12.3819 38.6941 12.0572Z" fill="#FC4D1F"/>
</svg>
