<svg width="18" height="16" viewBox="0 0 18 16" fill="none" xmlns="http://www.w3.org/2000/svg">
<path d="M0.71167 12.1763C0.71167 11.9611 0.720373 11.78 0.810166 11.6431C0.877196 11.5409 1.05267 11.375 1.61603 11.375H16.396C16.8747 11.375 17.0647 11.5305 17.1535 11.655C17.2593 11.8036 17.2882 12.0023 17.2882 12.1763C17.2882 12.7219 17.1352 13.1323 16.8747 13.453C16.6094 13.7798 16.2105 14.0403 15.6777 14.2401C14.6012 14.6438 13.0789 14.7641 11.3338 14.7641H6.66614C4.90902 14.7641 3.39037 14.6986 2.31457 14.3215C1.78486 14.1358 1.39091 13.8837 1.1282 13.5515C0.869168 13.224 0.71167 12.7859 0.71167 12.1763Z" stroke="#7B6F72" stroke-width="0.75"/>
<path d="M17.625 9.41389C17.625 9.6512 17.4293 9.8469 17.192 9.8469H0.808007C0.570698 9.8469 0.375 9.6512 0.375 9.41389V8.80801C0.375 8.5707 0.570698 8.375 0.808007 8.375H17.192C17.4293 8.375 17.625 8.5707 17.625 8.80801V9.41389Z" stroke="#7B6F72" stroke-width="0.75"/>
<path d="M8.68616 0.375H9.31377C10.9954 0.375 13.0166 0.89758 14.6083 1.83989C16.2074 2.78659 17.2883 4.10031 17.2883 5.65617C17.2883 5.87146 17.2796 6.0525 17.1898 6.18939C17.1228 6.29158 16.9473 6.45746 16.3839 6.45746H1.60387C1.12522 6.45746 0.935172 6.30201 0.846435 6.17746C0.740588 6.0289 0.71167 5.83021 0.71167 5.65617C0.71167 4.10031 1.7925 2.78658 3.39159 1.83989C4.98328 0.89758 7.00452 0.375 8.68616 0.375Z" stroke="#7B6F72" stroke-width="0.75"/>
</svg>
