<svg width="23" height="22" viewBox="0 0 23 22" fill="none" xmlns="http://www.w3.org/2000/svg">
<g clip-path="url(#clip0_550_217)">
<path d="M20.4129 0.0644531H13.6329C12.4111 0.0644531 11.4206 0.997857 11.4206 2.14927V2.15376C11.4206 3.30517 12.4111 4.23858 13.6329 4.23858H20.4129C21.6347 4.23858 22.6252 3.30517 22.6252 2.15376V2.14927C22.6252 0.997857 21.6347 0.0644531 20.4129 0.0644531Z" fill="#FC4D1F"/>
<path d="M2.62381 0.0644531H2.56183C1.34 0.0644531 0.349518 0.997857 0.349518 2.14927V2.15376C0.349518 3.30517 1.34 4.23858 2.56183 4.23858H2.62381C3.84564 4.23858 4.83613 3.30517 4.83613 2.15376V2.14927C4.83613 0.997857 3.84564 0.0644531 2.62381 0.0644531Z" fill="#FC4D1F"/>
<path d="M20.3795 16.9541H20.3175C19.0957 16.9541 18.1052 17.8875 18.1052 19.0389V19.0434C18.1052 20.1948 19.0957 21.1282 20.3175 21.1282H20.3795C21.6013 21.1282 22.5918 20.1948 22.5918 19.0434V19.0389C22.5918 17.8875 21.6013 16.9541 20.3795 16.9541Z" fill="#FC4D1F"/>
<path d="M9.43239 16.9541H2.65241C1.43058 16.9541 0.440094 17.8875 0.440094 19.0389V19.0434C0.440094 20.1948 1.43058 21.1282 2.65241 21.1282H9.43239C10.6542 21.1282 11.6447 20.1948 11.6447 19.0434V19.0389C11.6447 17.8875 10.6542 16.9541 9.43239 16.9541Z" fill="#FC4D1F"/>
<path d="M20.4081 8.53418H2.42832C1.20649 8.53418 0.216003 9.46758 0.216003 10.619V10.6235C0.216003 11.7749 1.20649 12.7083 2.42832 12.7083H20.4081C21.63 12.7083 22.6205 11.7749 22.6205 10.6235V10.619C22.6205 9.46758 21.63 8.53418 20.4081 8.53418Z" fill="#FC4D1F"/>
</g>
<defs>
<clipPath id="clip0_550_217">
<rect width="22.4044" height="21.0638" fill="white" transform="translate(0.216003 0.0644531)"/>
</clipPath>
</defs>
</svg>
