<svg width="14" height="21" viewBox="0 0 14 21" fill="none" xmlns="http://www.w3.org/2000/svg">
<path d="M13.2138 17.2512L11.7638 15.4772C12.6662 14.0531 13.139 12.3991 13.1258 10.7132C13.1383 10.6515 13.137 10.5878 13.1218 10.5266C13.1067 10.4655 13.0782 10.4085 13.0383 10.3597C12.9985 10.3109 12.9483 10.2716 12.8914 10.2446C12.8345 10.2176 12.7723 10.2036 12.7093 10.2036C12.6463 10.2036 12.5841 10.2176 12.5272 10.2446C12.4703 10.2716 12.4201 10.3109 12.3802 10.3597C12.3404 10.4085 12.3118 10.4655 12.2967 10.5266C12.2816 10.5878 12.2802 10.6515 12.2928 10.7132C12.3038 12.1365 11.9139 13.5341 11.1678 14.7462L10.5678 14.0152C11.155 13.015 11.4617 11.875 11.4558 10.7152V5.60122C11.4508 2.80322 9.76578 0.440223 7.50378 0.0562233C5.24178 -0.327777 3.10378 1.37922 2.47178 4.06722L0.713777 1.91522C0.679822 1.86853 0.635305 1.83054 0.583861 1.80434C0.532418 1.77815 0.475506 1.76449 0.417777 1.76449C0.360047 1.76449 0.303136 1.77815 0.251692 1.80434C0.200248 1.83054 0.155731 1.86853 0.121777 1.91522C0.042456 2.01962 -0.000488281 2.14712 -0.000488281 2.27822C-0.000488281 2.40933 0.042456 2.53683 0.121777 2.64122L12.6218 17.9772C12.6556 18.0241 12.7001 18.0623 12.7515 18.0886C12.803 18.1149 12.86 18.1287 12.9178 18.1287C12.9756 18.1287 13.0326 18.1149 13.084 18.0886C13.1355 18.0623 13.18 18.0241 13.2138 17.9772C13.2931 17.8728 13.336 17.7453 13.336 17.6142C13.336 17.4831 13.2931 17.3556 13.2138 17.2512ZM6.87578 16.3362C7.87957 16.3248 8.84274 15.9381 9.57578 15.2522L8.96378 14.5212L3.13078 7.36422L2.29778 6.34222V10.7132C2.29778 13.8192 4.34978 16.3362 6.88078 16.3362H6.87578Z" fill="#7B6F72"/>
<path d="M6.87697 17.5004C5.44029 17.5004 4.06245 16.9297 3.04657 15.9138C2.03068 14.8979 1.45997 13.5201 1.45997 12.0834C1.46273 12.027 1.45401 11.9706 1.43432 11.9177C1.41464 11.8647 1.38441 11.8163 1.34546 11.7754C1.30651 11.7345 1.25966 11.702 1.20775 11.6797C1.15584 11.6575 1.09995 11.646 1.04346 11.646C0.986985 11.646 0.931094 11.6575 0.879181 11.6797C0.827269 11.702 0.780417 11.7345 0.74147 11.7754C0.702522 11.8163 0.67229 11.8647 0.652606 11.9177C0.632923 11.9706 0.6242 12.027 0.626965 12.0834C0.623427 13.6712 1.22436 15.2009 2.30773 16.3617C3.3911 17.5225 4.87568 18.2275 6.45997 18.3334V19.5834C6.4572 19.6398 6.46592 19.6962 6.48561 19.7491C6.50529 19.8021 6.53552 19.8505 6.57447 19.8914C6.61342 19.9323 6.66027 19.9648 6.71218 19.9871C6.76409 20.0094 6.81999 20.0208 6.87647 20.0208C6.93295 20.0208 6.98884 20.0094 7.04075 19.9871C7.09266 19.9648 7.13951 19.9323 7.17846 19.8914C7.21741 19.8505 7.24764 19.8021 7.26732 19.7491C7.28701 19.6962 7.29573 19.6398 7.29297 19.5834V18.3334C8.55896 18.2493 9.76884 17.7796 10.76 16.9874L10.16 16.3954C9.21555 17.1145 8.05994 17.5012 6.87297 17.4954L6.87697 17.5004Z" fill="#7B6F72"/>
</svg>
