<svg width="22" height="28" viewBox="0 0 22 28" fill="none" xmlns="http://www.w3.org/2000/svg">
<path d="M14.6 22.4001C14.6 23.3549 14.2207 24.2706 13.5456 24.9457C12.8704 25.6208 11.9547 26.0001 11 26.0001C10.0452 26.0001 9.12952 25.6208 8.45438 24.9457C7.77925 24.2706 7.39997 23.3549 7.39997 22.4001M11.8652 5.60372L10.106 5.60012C6.09317 5.59052 2.60957 8.85092 2.58197 12.8001V17.3481C2.58197 18.2961 2.46197 19.2213 1.94477 20.0097L1.60037 20.5353C1.07597 21.3321 1.63997 22.4001 2.58197 22.4001H19.418C20.36 22.4001 20.9228 21.3321 20.3996 20.5353L20.0552 20.0097C19.5392 19.2213 19.418 18.2949 19.418 17.3469V12.8013C19.37 8.85092 15.878 5.61332 11.8652 5.60372V5.60372Z" stroke="#573926" stroke-width="2.4" stroke-linecap="round" stroke-linejoin="round"/>
<path d="M11 2C11.6365 2 12.247 2.25286 12.697 2.70294C13.1471 3.15303 13.4 3.76348 13.4 4.4V5.6H8.59998V4.4C8.59998 3.76348 8.85284 3.15303 9.30293 2.70294C9.75301 2.25286 10.3635 2 11 2Z" stroke="#573926" stroke-width="2.4" stroke-linecap="round" stroke-linejoin="round"/>
</svg>
