<svg width="18" height="16" viewBox="0 0 18 16" fill="none" xmlns="http://www.w3.org/2000/svg">
<mask id="path-1-inside-1_605_1001" fill="white">
<path d="M16.67 11.2658C16.2738 10.9307 15.5489 10.5313 14.3438 10.5313C14.1548 10.5304 13.9664 10.549 13.7812 10.5866V3.78126C13.7805 3.11016 13.5136 2.46677 13.039 1.99223C12.5645 1.51769 11.9211 1.25076 11.25 1.25001H9C8.19721 1.24963 7.41672 1.51407 6.7795 2.00235C6.56307 1.77392 6.32736 1.56455 6.075 1.37657C5.53568 0.973442 4.94027 0.651398 4.3077 0.420674C4.24996 0.401442 4.18754 0.401442 4.1298 0.420674C3.49723 0.651398 2.90182 0.973442 2.3625 1.37657C1.18494 2.25977 0.5625 3.38305 0.5625 4.62501C0.5625 7.26609 1.30479 9.25509 2.83184 10.7057C2.91445 10.7845 2.98025 10.8792 3.02526 10.9842C3.07028 11.0891 3.09357 11.202 3.09375 11.3162V11.8797L2.27271 13.7955C2.25135 13.8453 2.24485 13.9003 2.25399 13.9537C2.26313 14.0072 2.28753 14.0568 2.32425 14.0967C2.36097 14.1366 2.40844 14.1651 2.46095 14.1786C2.51345 14.1922 2.56876 14.1903 2.6202 14.1731L4.21875 13.6402L5.8173 14.1731C5.86874 14.1903 5.92405 14.1922 5.97655 14.1786C6.02906 14.1651 6.07653 14.1366 6.11325 14.0967C6.14997 14.0568 6.17437 14.0072 6.18351 13.9537C6.19265 13.9003 6.18615 13.8453 6.16479 13.7955L5.34375 11.8797V11.3162C5.34393 11.202 5.36723 11.0891 5.41224 10.9841C5.45726 10.8792 5.52305 10.7845 5.60566 10.7056C5.85994 10.4642 6.09534 10.2037 6.30981 9.92636L6.78421 10.4007C6.94182 10.5593 7.03059 10.7735 7.03125 10.9971V11.0938C7.032 11.7649 7.29893 12.4083 7.77347 12.8828C8.24801 13.3573 8.8914 13.6243 9.5625 13.625H9.57568C9.66709 14.5956 10.2264 15.08 10.7023 15.318C11.0488 15.4871 11.4271 15.5811 11.8125 15.5938C12.1979 15.5811 12.5762 15.4871 12.9227 15.318C13.1376 15.2119 13.3327 15.0697 13.4995 14.8977C13.7715 14.9892 14.0568 15.0343 14.3438 15.0313C15.5489 15.0313 16.2738 14.6319 16.67 14.2967C17.1577 13.884 17.4375 13.3316 17.4375 12.7813C17.4375 12.2309 17.1577 11.6785 16.67 11.2658ZM9 1.81251H11.25C11.772 1.8131 12.2724 2.02071 12.6415 2.38979C13.0106 2.75888 13.2182 3.25929 13.2188 3.78126V10.7857C13.1944 10.7985 13.1703 10.8118 13.1466 10.8256C13.0002 10.6851 12.8352 10.5652 12.6562 10.4695V3.78126C12.6558 3.40843 12.5075 3.05099 12.2439 2.78735C11.9803 2.52372 11.6228 2.37543 11.25 2.37501H9C8.43512 2.37588 7.88664 2.565 7.44128 2.91248C7.35196 2.74643 7.25117 2.58682 7.13964 2.43481C7.67558 2.03057 8.3287 1.8121 9 1.81251ZM8.30696 9.44047L7.27829 8.4118C7.2578 8.39112 7.23841 8.36938 7.22018 8.34669C7.65865 7.28381 7.875 6.0494 7.875 4.62501C7.87555 4.22468 7.80869 3.82712 7.67721 3.449C8.03965 3.12067 8.51096 2.93843 9 2.93751H11.25C11.4737 2.93777 11.6882 3.02675 11.8463 3.18493C12.0045 3.3431 12.0935 3.55756 12.0938 3.78126V10.2746C12.0009 10.2585 11.9068 10.2503 11.8125 10.25C11.2621 10.25 10.7098 10.5298 10.297 11.0175C10.0706 11.2901 9.8962 11.6019 9.78247 11.9375H9.5625C9.3388 11.9373 9.12434 11.8483 8.96617 11.6901C8.80799 11.5319 8.71901 11.3175 8.71875 11.0938V10.4346C8.71925 10.2499 8.68312 10.0669 8.61243 9.89628C8.54175 9.72564 8.43792 9.57071 8.30696 9.44047ZM2.68794 1.83564C3.15815 1.48572 3.67305 1.20027 4.21896 0.9869C4.7602 1.19807 5.27088 1.48045 5.7375 1.82657C6.69023 2.54116 7.21463 3.38684 7.29988 4.34376H1.13762C1.22252 3.39103 1.74284 2.54844 2.68794 1.83564ZM4.78125 4.90626H5.90625V5.46876C5.90625 5.61794 5.84699 5.76102 5.7415 5.86651C5.63601 5.972 5.49293 6.03126 5.34375 6.03126C5.19457 6.03126 5.05149 5.972 4.946 5.86651C4.84051 5.76102 4.78125 5.61794 4.78125 5.46876V4.90626ZM1.1282 4.90626H2.53125V9.53103C2.16131 9.04184 1.86525 8.50095 1.65255 7.92569C1.32402 7.04924 1.15204 6.05882 1.1282 4.90626ZM4.3077 13.0769C4.24996 13.0577 4.18754 13.0577 4.1298 13.0769L3.03645 13.4414L3.56048 12.2188H4.87702L5.40102 13.4414L4.3077 13.0769ZM5.21824 10.2978C5.08042 10.4292 4.97064 10.5873 4.89554 10.7623C4.82043 10.9373 4.78156 11.1258 4.78125 11.3162V11.6563H3.65625V11.3162C3.65594 11.1258 3.61706 10.9373 3.54195 10.7623C3.46684 10.5873 3.35706 10.4293 3.21922 10.2978C3.17668 10.2574 3.13486 10.2166 3.09375 10.1754V4.90626H4.21875V5.46876C4.21875 5.76713 4.33728 6.05328 4.54825 6.26426C4.75923 6.47523 5.04538 6.59376 5.34375 6.59376C5.64212 6.59376 5.92827 6.47523 6.13925 6.26426C6.35022 6.05328 6.46875 5.76713 6.46875 5.46876V4.90626H7.3093C7.28546 6.05882 7.11348 7.04924 6.78495 7.92569C6.45345 8.82704 5.9171 9.63907 5.21824 10.2978ZM7.59375 11.0938V10.9971C7.59425 10.8124 7.55812 10.6294 7.48743 10.4588C7.41675 10.2881 7.31292 10.1332 7.18196 10.003L6.63933 9.46033C6.75675 9.27822 6.86573 9.08985 6.96628 8.89523L7.90928 9.83823C8.06687 9.99677 8.1556 10.211 8.15625 10.4346V11.0938C8.15667 11.4666 8.30496 11.824 8.56859 12.0877C8.83223 12.3513 9.18967 12.4996 9.5625 12.5H9.63527C9.6018 12.686 9.58009 12.8738 9.57027 13.0625H9.5625C9.04053 13.0619 8.54012 12.8543 8.17103 12.4852C7.80195 12.1161 7.59434 11.6157 7.59375 11.0938ZM12.6868 14.8069C12.4141 14.9416 12.1164 15.018 11.8125 15.0313C11.7436 15.0313 10.125 15.0121 10.125 13.3438C10.125 11.4997 11.1601 10.8125 11.8125 10.8125C12.4649 10.8125 13.5 11.4997 13.5 13.3438C13.5 14.0381 13.2264 14.5304 12.6868 14.8069ZM14.3438 14.4688C14.1735 14.4699 14.0037 14.4508 13.838 14.4118C13.9749 14.1305 14.0625 13.78 14.0625 13.3438C14.0625 12.3573 13.7949 11.6927 13.5141 11.2668C13.7466 11.152 14.0244 11.0938 14.3438 11.0938C16.1878 11.0938 16.875 12.1288 16.875 12.7813C16.875 13.4337 16.1878 14.4688 14.3438 14.4688Z"/>
</mask>
<path d="M16.67 11.2658C16.2738 10.9307 15.5489 10.5313 14.3438 10.5313C14.1548 10.5304 13.9664 10.549 13.7812 10.5866V3.78126C13.7805 3.11016 13.5136 2.46677 13.039 1.99223C12.5645 1.51769 11.9211 1.25076 11.25 1.25001H9C8.19721 1.24963 7.41672 1.51407 6.7795 2.00235C6.56307 1.77392 6.32736 1.56455 6.075 1.37657C5.53568 0.973442 4.94027 0.651398 4.3077 0.420674C4.24996 0.401442 4.18754 0.401442 4.1298 0.420674C3.49723 0.651398 2.90182 0.973442 2.3625 1.37657C1.18494 2.25977 0.5625 3.38305 0.5625 4.62501C0.5625 7.26609 1.30479 9.25509 2.83184 10.7057C2.91445 10.7845 2.98025 10.8792 3.02526 10.9842C3.07028 11.0891 3.09357 11.202 3.09375 11.3162V11.8797L2.27271 13.7955C2.25135 13.8453 2.24485 13.9003 2.25399 13.9537C2.26313 14.0072 2.28753 14.0568 2.32425 14.0967C2.36097 14.1366 2.40844 14.1651 2.46095 14.1786C2.51345 14.1922 2.56876 14.1903 2.6202 14.1731L4.21875 13.6402L5.8173 14.1731C5.86874 14.1903 5.92405 14.1922 5.97655 14.1786C6.02906 14.1651 6.07653 14.1366 6.11325 14.0967C6.14997 14.0568 6.17437 14.0072 6.18351 13.9537C6.19265 13.9003 6.18615 13.8453 6.16479 13.7955L5.34375 11.8797V11.3162C5.34393 11.202 5.36723 11.0891 5.41224 10.9841C5.45726 10.8792 5.52305 10.7845 5.60566 10.7056C5.85994 10.4642 6.09534 10.2037 6.30981 9.92636L6.78421 10.4007C6.94182 10.5593 7.03059 10.7735 7.03125 10.9971V11.0938C7.032 11.7649 7.29893 12.4083 7.77347 12.8828C8.24801 13.3573 8.8914 13.6243 9.5625 13.625H9.57568C9.66709 14.5956 10.2264 15.08 10.7023 15.318C11.0488 15.4871 11.4271 15.5811 11.8125 15.5938C12.1979 15.5811 12.5762 15.4871 12.9227 15.318C13.1376 15.2119 13.3327 15.0697 13.4995 14.8977C13.7715 14.9892 14.0568 15.0343 14.3438 15.0313C15.5489 15.0313 16.2738 14.6319 16.67 14.2967C17.1577 13.884 17.4375 13.3316 17.4375 12.7813C17.4375 12.2309 17.1577 11.6785 16.67 11.2658ZM9 1.81251H11.25C11.772 1.8131 12.2724 2.02071 12.6415 2.38979C13.0106 2.75888 13.2182 3.25929 13.2188 3.78126V10.7857C13.1944 10.7985 13.1703 10.8118 13.1466 10.8256C13.0002 10.6851 12.8352 10.5652 12.6562 10.4695V3.78126C12.6558 3.40843 12.5075 3.05099 12.2439 2.78735C11.9803 2.52372 11.6228 2.37543 11.25 2.37501H9C8.43512 2.37588 7.88664 2.565 7.44128 2.91248C7.35196 2.74643 7.25117 2.58682 7.13964 2.43481C7.67558 2.03057 8.3287 1.8121 9 1.81251ZM8.30696 9.44047L7.27829 8.4118C7.2578 8.39112 7.23841 8.36938 7.22018 8.34669C7.65865 7.28381 7.875 6.0494 7.875 4.62501C7.87555 4.22468 7.80869 3.82712 7.67721 3.449C8.03965 3.12067 8.51096 2.93843 9 2.93751H11.25C11.4737 2.93777 11.6882 3.02675 11.8463 3.18493C12.0045 3.3431 12.0935 3.55756 12.0938 3.78126V10.2746C12.0009 10.2585 11.9068 10.2503 11.8125 10.25C11.2621 10.25 10.7098 10.5298 10.297 11.0175C10.0706 11.2901 9.8962 11.6019 9.78247 11.9375H9.5625C9.3388 11.9373 9.12434 11.8483 8.96617 11.6901C8.80799 11.5319 8.71901 11.3175 8.71875 11.0938V10.4346C8.71925 10.2499 8.68312 10.0669 8.61243 9.89628C8.54175 9.72564 8.43792 9.57071 8.30696 9.44047ZM2.68794 1.83564C3.15815 1.48572 3.67305 1.20027 4.21896 0.9869C4.7602 1.19807 5.27088 1.48045 5.7375 1.82657C6.69023 2.54116 7.21463 3.38684 7.29988 4.34376H1.13762C1.22252 3.39103 1.74284 2.54844 2.68794 1.83564ZM4.78125 4.90626H5.90625V5.46876C5.90625 5.61794 5.84699 5.76102 5.7415 5.86651C5.63601 5.972 5.49293 6.03126 5.34375 6.03126C5.19457 6.03126 5.05149 5.972 4.946 5.86651C4.84051 5.76102 4.78125 5.61794 4.78125 5.46876V4.90626ZM1.1282 4.90626H2.53125V9.53103C2.16131 9.04184 1.86525 8.50095 1.65255 7.92569C1.32402 7.04924 1.15204 6.05882 1.1282 4.90626ZM4.3077 13.0769C4.24996 13.0577 4.18754 13.0577 4.1298 13.0769L3.03645 13.4414L3.56048 12.2188H4.87702L5.40102 13.4414L4.3077 13.0769ZM5.21824 10.2978C5.08042 10.4292 4.97064 10.5873 4.89554 10.7623C4.82043 10.9373 4.78156 11.1258 4.78125 11.3162V11.6563H3.65625V11.3162C3.65594 11.1258 3.61706 10.9373 3.54195 10.7623C3.46684 10.5873 3.35706 10.4293 3.21922 10.2978C3.17668 10.2574 3.13486 10.2166 3.09375 10.1754V4.90626H4.21875V5.46876C4.21875 5.76713 4.33728 6.05328 4.54825 6.26426C4.75923 6.47523 5.04538 6.59376 5.34375 6.59376C5.64212 6.59376 5.92827 6.47523 6.13925 6.26426C6.35022 6.05328 6.46875 5.76713 6.46875 5.46876V4.90626H7.3093C7.28546 6.05882 7.11348 7.04924 6.78495 7.92569C6.45345 8.82704 5.9171 9.63907 5.21824 10.2978ZM7.59375 11.0938V10.9971C7.59425 10.8124 7.55812 10.6294 7.48743 10.4588C7.41675 10.2881 7.31292 10.1332 7.18196 10.003L6.63933 9.46033C6.75675 9.27822 6.86573 9.08985 6.96628 8.89523L7.90928 9.83823C8.06687 9.99677 8.1556 10.211 8.15625 10.4346V11.0938C8.15667 11.4666 8.30496 11.824 8.56859 12.0877C8.83223 12.3513 9.18967 12.4996 9.5625 12.5H9.63527C9.6018 12.686 9.58009 12.8738 9.57027 13.0625H9.5625C9.04053 13.0619 8.54012 12.8543 8.17103 12.4852C7.80195 12.1161 7.59434 11.6157 7.59375 11.0938ZM12.6868 14.8069C12.4141 14.9416 12.1164 15.018 11.8125 15.0313C11.7436 15.0313 10.125 15.0121 10.125 13.3438C10.125 11.4997 11.1601 10.8125 11.8125 10.8125C12.4649 10.8125 13.5 11.4997 13.5 13.3438C13.5 14.0381 13.2264 14.5304 12.6868 14.8069ZM14.3438 14.4688C14.1735 14.4699 14.0037 14.4508 13.838 14.4118C13.9749 14.1305 14.0625 13.78 14.0625 13.3438C14.0625 12.3573 13.7949 11.6927 13.5141 11.2668C13.7466 11.152 14.0244 11.0938 14.3438 11.0938C16.1878 11.0938 16.875 12.1288 16.875 12.7813C16.875 13.4337 16.1878 14.4688 14.3438 14.4688Z" stroke="#7B6F72" stroke-width="4" mask="url(#path-1-inside-1_605_1001)"/>
</svg>
