<svg width="46" height="45" viewBox="0 0 46 45" fill="none" xmlns="http://www.w3.org/2000/svg">
<path d="M23 45C35.7025 45 46 34.9264 46 22.5C46 10.0736 35.7025 0 23 0C10.2975 0 0 10.0736 0 22.5C0 34.9264 10.2975 45 23 45Z" fill="#FC4D1F"/>
<path d="M30.4711 21.4695L19.6261 15.1974C19.402 15.0656 19.146 14.9947 18.8846 14.9918C18.6232 14.9889 18.3656 15.0542 18.1385 15.181C17.9114 15.3077 17.7229 15.4914 17.5924 15.713C17.4619 15.9346 17.3942 16.1863 17.396 16.4421V28.9827C17.3959 29.2378 17.4648 29.4884 17.5957 29.709C17.7266 29.9297 17.9148 30.1125 18.1414 30.2389C18.3679 30.3654 18.6245 30.4309 18.8853 30.4289C19.1461 30.4268 19.4017 30.3573 19.6261 30.2274L30.4711 23.9589C30.6923 23.8311 30.8757 23.6491 31.0031 23.4308C31.1305 23.2125 31.1975 22.9655 31.1975 22.7142C31.1975 22.4628 31.1305 22.2158 31.0031 21.9975C30.8757 21.7793 30.6923 21.5972 30.4711 21.4695Z" fill="white"/>
</svg>
