<svg width="20" height="20" viewBox="0 0 20 20" fill="none" xmlns="http://www.w3.org/2000/svg">
<path fill-rule="evenodd" clip-rule="evenodd" d="M0 10.0058C0 4.48625 4.48842 0 10 0C15.5116 0 20 4.48625 20 10.0058C20 15.5137 15.5116 20 10 20C4.48842 20 0 15.5137 0 10.0058ZM13.6679 11.0177C13.7741 10.9115 13.9092 10.7475 13.9381 10.7089C14.0926 10.5063 14.1698 10.2555 14.1698 10.0056C14.1698 9.72484 14.0829 9.46435 13.9188 9.2521C13.9054 9.23865 13.8791 9.20999 13.8447 9.17263C13.7805 9.10275 13.6884 9.00244 13.6003 8.91442C12.8088 8.06541 10.7432 6.67612 9.66209 6.25162C9.49799 6.18505 9.08294 6.03936 8.86093 6.02971C8.64857 6.02971 8.44587 6.07795 8.25282 6.17443C8.01151 6.3095 7.81846 6.52176 7.71228 6.7726C7.64471 6.94626 7.53853 7.46724 7.53853 7.47689C7.43236 8.04612 7.37444 8.97231 7.37444 9.99498C7.37444 10.9704 7.43236 11.857 7.51923 12.4359C7.52162 12.4383 7.52992 12.4797 7.54282 12.544C7.58203 12.7395 7.66373 13.1469 7.75089 13.3138C7.96324 13.7191 8.3783 13.9699 8.82232 13.9699H8.86093C9.1505 13.9602 9.75861 13.7094 9.75861 13.6998C10.7818 13.2753 12.7992 11.9535 13.61 11.0755L13.6679 11.0177Z" fill="#FC4D1F"/>
</svg>
