<svg width="19" height="22" viewBox="0 0 19 22" fill="none" xmlns="http://www.w3.org/2000/svg">
<path d="M9.03855 10.5975C10.4945 10.5975 11.7552 10.0753 12.7852 9.04507C13.8153 8.015 14.3375 6.75464 14.3375 5.29857C14.3375 3.84301 13.8153 2.58248 12.7851 1.55208C11.7548 0.52217 10.4943 0 9.03855 0C7.58248 0 6.32212 0.52217 5.29204 1.55224C4.26196 2.58232 3.73962 3.84284 3.73962 5.29857C3.73962 6.75464 4.26196 8.01517 5.29221 9.04524C6.32245 10.0751 7.58299 10.5975 9.03855 10.5975Z" fill="#E5E5E5"/>
<path d="M18.3103 16.917C18.2806 16.4883 18.2205 16.0207 18.132 15.5269C18.0427 15.0294 17.9277 14.5591 17.7901 14.1292C17.6479 13.6849 17.4546 13.2462 17.2156 12.8257C16.9675 12.3893 16.6761 12.0093 16.3491 11.6966C16.0072 11.3695 15.5886 11.1065 15.1046 10.9146C14.6222 10.7238 14.0876 10.6271 13.5157 10.6271C13.2911 10.6271 13.0739 10.7193 12.6545 10.9924C12.3963 11.1607 12.0944 11.3554 11.7573 11.5708C11.4692 11.7544 11.0787 11.9264 10.5965 12.0822C10.126 12.2344 9.64835 12.3116 9.17687 12.3116C8.70539 12.3116 8.22786 12.2344 7.75688 12.0822C7.27516 11.9266 6.88475 11.7545 6.59689 11.5709C6.26304 11.3576 5.96092 11.1629 5.69891 10.9922C5.27996 10.7191 5.0626 10.627 4.83802 10.627C4.266 10.627 3.73158 10.7238 3.24935 10.9148C2.76562 11.1063 2.34684 11.3693 2.0046 11.6968C1.6778 12.0097 1.38625 12.3895 1.13851 12.8257C0.89966 13.2462 0.7063 13.6848 0.563966 14.1294C0.426499 14.5593 0.311524 15.0294 0.222229 15.5269C0.133774 16.02 0.0736849 16.4878 0.0439759 16.9175C0.0147705 17.3385 0 17.7754 0 18.2166C0 19.365 0.365067 20.2947 1.08496 20.9804C1.79596 21.657 2.73675 22.0002 3.88079 22.0002H14.474C15.618 22.0002 16.5584 21.6571 17.2696 20.9804C17.9897 20.2952 18.3547 19.3654 18.3547 18.2165C18.3546 17.7732 18.3396 17.3359 18.3103 16.917Z" fill="#E5E5E5"/>
</svg>
