<svg width="13" height="13" viewBox="0 0 13 13" fill="none" xmlns="http://www.w3.org/2000/svg">
<path d="M0.944811 5.55519H5.55526V0.944811C5.55526 0.423049 5.97824 0 6.50008 0C7.02176 0 7.44489 0.423049 7.44489 0.944811V5.55519H12.0552C12.577 5.55519 13 5.97824 13 6.5C13 7.02169 12.577 7.44481 12.0552 7.44481H7.44489V12.0552C7.44489 12.5769 7.02176 13 6.50008 13C5.97824 13 5.55526 12.5769 5.55526 12.0552V7.44481H0.944811C0.423048 7.44481 0 7.02169 0 6.5C0 5.97824 0.423048 5.55519 0.944811 5.55519Z" fill="#CAC2C9"/>
</svg>
