<svg width="20" height="24" viewBox="0 0 20 24" fill="none" xmlns="http://www.w3.org/2000/svg">
<path d="M1.08827 0C1.3769 0 1.65376 0.105432 1.85785 0.292969C2.06194 0.480505 2.17655 0.734784 2.17655 1V10.6768L17.9043 1.38721C18.0687 1.29001 18.2584 1.23503 18.4537 1.22852C18.6491 1.22201 18.8428 1.2641 19.0144 1.3501C19.186 1.43615 19.3292 1.56279 19.429 1.71729C19.5287 1.87178 19.5814 2.04837 19.5813 2.22803V21.3862C19.5814 21.5659 19.5287 21.742 19.429 21.8965C19.3292 22.051 19.186 22.1781 19.0144 22.2642C18.8428 22.3502 18.6491 22.3918 18.4537 22.3853C18.2584 22.3787 18.0687 22.3242 17.9043 22.2271L2.17655 12.936V22.6211C2.17655 22.8863 2.06194 23.1406 1.85785 23.3281C1.65376 23.5157 1.3769 23.6211 1.08827 23.6211C0.799645 23.6211 0.522788 23.5157 0.318697 23.3281C0.114606 23.1406 0 22.8863 0 22.6211V1C0 0.734784 0.114606 0.480505 0.318697 0.292969C0.522788 0.105432 0.799645 0 1.08827 0ZM17.4036 19.5552V4.06006L4.28773 11.8071L17.4036 19.5552Z" fill="#8B7B89"/>
</svg>
