<svg width="20" height="20" viewBox="0 0 20 20" fill="none" xmlns="http://www.w3.org/2000/svg">
<g clip-path="url(#clip0_101_2544)">
<path d="M10 16C13.3137 16 16 13.3137 16 10C16 6.68629 13.3137 4 10 4C6.68629 4 4 6.68629 4 10C4 13.3137 6.68629 16 10 16Z" fill="#FC4D1F" fill-opacity="0.3"/>
<path d="M10 0C8.02219 0 6.08879 0.58649 4.4443 1.6853C2.79981 2.78412 1.51809 4.3459 0.761209 6.17317C0.00433284 8.00043 -0.193701 10.0111 0.192152 11.9509C0.578004 13.8907 1.53041 15.6725 2.92894 17.0711C4.32746 18.4696 6.10929 19.422 8.0491 19.8079C9.98891 20.1937 11.9996 19.9957 13.8268 19.2388C15.6541 18.4819 17.2159 17.2002 18.3147 15.5557C19.4135 13.9112 20 11.9778 20 10C20 8.68678 19.7413 7.38642 19.2388 6.17317C18.7363 4.95991 17.9997 3.85752 17.0711 2.92893C16.1425 2.00035 15.0401 1.26375 13.8268 0.761205C12.6136 0.258658 11.3132 0 10 0ZM10 16C8.81332 16 7.65328 15.6481 6.66658 14.9888C5.67989 14.3295 4.91085 13.3925 4.45673 12.2961C4.0026 11.1997 3.88378 9.99334 4.11529 8.82946C4.3468 7.66557 4.91825 6.59647 5.75736 5.75736C6.59648 4.91824 7.66558 4.3468 8.82946 4.11529C9.99335 3.88378 11.1997 4.0026 12.2961 4.45672C13.3925 4.91085 14.3295 5.67988 14.9888 6.66658C15.6481 7.65327 16 8.81331 16 10C16 11.5913 15.3679 13.1174 14.2426 14.2426C13.1174 15.3679 11.5913 16 10 16Z" fill="#FC4D1F"/>
</g>
<defs>
<clipPath id="clip0_101_2544">
<rect width="20" height="20" fill="white"/>
</clipPath>
</defs>
</svg>
