<svg width="21" height="20" viewBox="0 0 21 20" fill="none" xmlns="http://www.w3.org/2000/svg">
<path d="M11.4749 0.0659232C11.6042 0.119919 11.7179 0.205691 11.8053 0.315293C11.8927 0.424895 11.951 0.554783 11.9749 0.692923L11.9869 0.833923V19.1669C11.987 19.3191 11.9454 19.4684 11.8667 19.5986C11.788 19.7288 11.6751 19.835 11.5403 19.9056C11.4055 19.9761 11.254 20.0085 11.1021 19.999C10.9502 19.9896 10.8039 19.9387 10.6789 19.8519L10.5699 19.7609L5.68987 14.9689H2.81787C2.19644 14.9691 1.59723 14.7378 1.13706 14.3202C0.676901 13.9025 0.388777 13.3285 0.328871 12.7099L0.317871 12.4699V7.48792C0.31796 6.86667 0.54936 6.2677 0.966978 5.80775C1.3846 5.34779 1.95851 5.05981 2.57687 4.99992L2.81787 4.98792H5.69187L10.5699 0.236923C10.6872 0.12259 10.8356 0.0453871 10.9966 0.014972C11.1576 -0.0154432 11.3239 0.00227952 11.4749 0.0659232ZM16.5469 1.76592L16.6909 1.86592L16.8539 1.99992C16.9539 2.09392 17.1039 2.23092 17.2749 2.40892C18.9939 4.20304 20.053 6.52756 20.2788 9.00201C20.5046 11.4765 19.8838 13.9543 18.5179 16.0299C18.1522 16.5872 17.7358 17.1094 17.2739 17.5899L17.0379 17.8249L16.7269 18.1069L16.6719 18.1519C16.5093 18.2828 16.3036 18.3479 16.0953 18.3344C15.887 18.3208 15.6915 18.2296 15.5473 18.0787C15.403 17.9278 15.3207 17.7283 15.3166 17.5197C15.3124 17.311 15.3868 17.1084 15.5249 16.9519L15.7399 16.7519C15.8179 16.6829 15.9339 16.5739 16.0749 16.4279C17.5298 14.9069 18.4258 12.9374 18.6163 10.8413C18.8068 8.74511 18.2807 6.64631 17.1239 4.88792C16.855 4.47717 16.554 4.08829 16.2239 3.72492L15.9419 3.43092L15.6349 3.14892C15.4709 3.01988 15.3613 2.83398 15.3278 2.62802C15.2943 2.42205 15.3394 2.21101 15.454 2.03666C15.5686 1.8623 15.7446 1.73732 15.9469 1.68645C16.1493 1.63558 16.3634 1.66251 16.5469 1.76192V1.76592ZM14.8819 5.09992L15.0479 5.21592L15.2709 5.42592L15.3609 5.51992C15.6153 5.79664 15.8415 6.09814 16.0359 6.41992C16.6791 7.502 17.0097 8.74124 16.9909 9.99992C17.0087 11.2589 16.6779 12.4983 16.0349 13.5809C15.8407 13.9026 15.6149 14.2041 15.3609 14.4809L15.1919 14.6549L15.0749 14.7629L15.0089 14.8189L14.9029 14.8669C14.7299 14.9563 14.5326 14.9872 14.3405 14.9549C14.1485 14.9226 13.9721 14.829 13.8379 14.6879C13.7165 14.5364 13.652 14.3473 13.6552 14.1532C13.6585 13.9591 13.7295 13.7723 13.8559 13.6249L14.0799 13.4099L14.1369 13.3489C14.3157 13.1532 14.4744 12.9402 14.6109 12.7129C15.0949 11.8919 15.342 10.9528 15.3249 9.99992C15.3432 9.04699 15.0963 8.10772 14.6119 7.28692C14.5015 7.10489 14.3771 6.93171 14.2399 6.76892L14.0809 6.59392L13.9669 6.48592C13.8017 6.35703 13.6911 6.17061 13.6573 5.96384C13.6234 5.75706 13.6687 5.54512 13.7841 5.37026C13.8996 5.1954 14.0767 5.07046 14.2801 5.02036C14.4836 4.97026 14.6984 4.99866 14.8819 5.09992Z" fill="#7B6F72"/>
</svg>
