<svg xmlns="http://www.w3.org/2000/svg" width="20" height="20" viewBox="0 0 20 20">
  <g id="image_1_" data-name="image (1)" transform="translate(-2 -2)">
    <path id="Path_14779" data-name="Path 14779" d="M13.5,9A1.5,1.5,0,1,1,15,7.5,1.5,1.5,0,0,1,13.5,9Z" fill="#905ff2" opacity="0.6"/>
    <path id="Path_14780" data-name="Path 14780" d="M19,2H5A3.009,3.009,0,0,0,2,5v8.86L5.88,9.98a3.075,3.075,0,0,1,4.24,0l2.871,2.887.888-.888a3.008,3.008,0,0,1,4.242,0L22,15.86V5a3.009,3.009,0,0,0-3-3ZM13.5,9A1.5,1.5,0,1,1,15,7.5,1.5,1.5,0,0,1,13.5,9Z" fill="#905ff2" opacity="0.4"/>
    <path id="Path_14781" data-name="Path 14781" d="M10.12,9.98a3.075,3.075,0,0,0-4.24,0L2,13.86V19a3.009,3.009,0,0,0,3,3H19a3,3,0,0,0,2.16-.92Z" fill="#905ff2"/>
    <path id="Path_14782" data-name="Path 14782" d="M22,15.858l-3.879-3.879a3.008,3.008,0,0,0-4.242,0l-.888.888,8.165,8.209A2.965,2.965,0,0,0,22,19V15.858Z" fill="#905ff2" opacity="0.6"/>
  </g>
</svg>
