<svg id="Component_4_1" data-name="Component 4 – 1" xmlns="http://www.w3.org/2000/svg" width="30.617" height="24" viewBox="0 0 30.617 24">
  <path id="Path_566" data-name="Path 566" d="M25.07,35.675a1.327,1.327,0,0,1-1.325-1.324V29.4c-6.469.048-10.518.969-16.65,5.739a.59.59,0,0,1-.948-.543C7.612,23.6,13.37,18.155,23.742,17.958V13A1.324,1.324,0,0,1,26,12.062L36.157,22.218a2.058,2.058,0,0,1,0,2.908L26,35.281a1.32,1.32,0,0,1-.932.393Zm-.737-7.457a.59.59,0,0,1,.59.59V34.35a.143.143,0,0,0,.244.1L35.322,24.3a.876.876,0,0,0,0-1.24L25.167,12.9a.134.134,0,0,0-.156-.03.132.132,0,0,0-.089.132v5.542a.59.59,0,0,1-.59.59c-9.584,0-15.09,4.647-16.793,14.2C13.47,29.009,17.8,28.218,24.333,28.218Z" transform="translate(-6.142 -11.675)" fill="#fff"/>
</svg>
