<svg width="19" height="20" viewBox="0 0 19 20" fill="none" xmlns="http://www.w3.org/2000/svg">
<path d="M10.214 -0.000240086C10.483 -0.00751533 10.7509 0.0391725 11.0016 0.137069C11.2524 0.234966 11.481 0.382089 11.674 0.56976C11.8659 0.752741 12.0182 0.9732 12.1214 1.21747C12.2246 1.46173 12.2765 1.7246 12.274 1.98976C12.277 2.25459 12.3322 2.51622 12.4364 2.75969C12.5407 3.00315 12.6919 3.22367 12.8815 3.40861C13.0711 3.59354 13.2953 3.73927 13.5412 3.83745C13.7872 3.93563 14.0501 3.98433 14.315 3.98076C14.6689 3.97588 15.0161 3.88274 15.325 3.70976C15.7878 3.45865 16.3295 3.39543 16.8377 3.53323C17.3458 3.67103 17.7814 3.99926 18.054 4.44976L18.735 5.61976C18.9072 5.92137 18.9985 6.26242 19 6.60976C18.9989 6.96128 18.9039 7.30612 18.7247 7.60854C18.5455 7.91097 18.2888 8.15998 17.981 8.32976C17.6705 8.50248 17.4116 8.7548 17.231 9.06076C17.1048 9.28529 17.024 9.53249 16.9934 9.78823C16.9628 10.044 16.9829 10.3032 17.0526 10.5512C17.1222 10.7992 17.2401 11.031 17.3994 11.2334C17.5587 11.4358 17.7563 11.6048 17.981 11.7308C18.2078 11.8585 18.4073 12.0297 18.5678 12.2346C18.7283 12.4396 18.8469 12.6742 18.9165 12.925C18.9862 13.1759 19.0057 13.438 18.9738 13.6964C18.942 13.9548 18.8595 14.2043 18.731 14.4308L18.05 15.5618C17.871 15.8667 17.6152 16.1195 17.3082 16.295C17.0012 16.4704 16.6536 16.5624 16.3 16.5618C15.9421 16.5647 15.5901 16.4711 15.281 16.2908C14.9677 16.1189 14.6172 16.0262 14.26 16.0208C13.7211 16.0191 13.2036 16.2313 12.821 16.6108C12.6302 16.7925 12.4786 17.0114 12.3754 17.2538C12.2723 17.4963 12.2197 17.7573 12.221 18.0208C12.2128 18.5532 11.9937 19.0606 11.6118 19.4316C11.2299 19.8026 10.7164 20.007 10.184 19.9998H8.81496C8.28187 19.9989 7.77087 19.7867 7.39396 19.4098C7.20965 19.2263 7.06357 19.0081 6.96419 18.7678C6.8648 18.5275 6.81408 18.2698 6.81496 18.0098C6.81367 17.7454 6.75998 17.4839 6.65701 17.2405C6.55404 16.997 6.40383 16.7764 6.21505 16.5913C6.02628 16.4063 5.8027 16.2605 5.55723 16.1624C5.31176 16.0643 5.04928 16.0158 4.78496 16.0198C4.41769 16.0184 4.05727 16.1191 3.74396 16.3108C3.2707 16.5696 2.71741 16.641 2.19396 16.5108C1.67656 16.3714 1.23258 16.0384 0.953958 15.5808L0.314958 14.4498C0.166697 14.2216 0.0678569 13.9649 0.0247995 13.6962C-0.018258 13.4275 -0.00457825 13.1528 0.0649581 12.8898C0.136674 12.6253 0.261302 12.3782 0.431298 12.1634C0.601294 11.9485 0.813121 11.7704 1.05396 11.6398C1.36608 11.4697 1.62552 11.2172 1.80396 10.9098C2.05377 10.4552 2.11515 9.92076 1.97488 9.42141C1.83462 8.92206 1.50392 8.49774 1.05396 8.23976C0.828952 8.11413 0.631124 7.94508 0.471944 7.74242C0.312765 7.53976 0.195402 7.30751 0.12666 7.05915C0.0579175 6.81078 0.0391643 6.55124 0.0714875 6.29558C0.103811 6.03991 0.186567 5.7932 0.314958 5.56976L0.953958 4.44976C1.0887 4.21704 1.26816 4.01328 1.48201 3.85023C1.69586 3.68719 1.93986 3.56807 2.19996 3.49976C2.7273 3.36116 3.28804 3.43665 3.75996 3.70976C4.0739 3.87864 4.42448 3.96792 4.78096 3.96976C5.31774 3.97061 5.8338 3.76261 6.21996 3.38976C6.40666 3.20746 6.5551 2.98973 6.65658 2.74933C6.75806 2.50894 6.81055 2.2507 6.81096 1.98976C6.81382 1.72477 6.86901 1.46295 6.97335 1.21935C7.07769 0.975749 7.22912 0.755158 7.41896 0.570248C7.60879 0.385339 7.83329 0.239752 8.07955 0.141851C8.32581 0.0439493 8.58898 -0.0043387 8.85396 -0.000240086H10.214ZM10.614 7.48076C10.1003 7.26932 9.5361 7.21243 8.99058 7.31706C8.44505 7.42168 7.94193 7.68328 7.54296 8.06976C7.15139 8.44856 6.88357 8.93696 6.7747 9.47078C6.66583 10.0046 6.721 10.5589 6.93296 11.0608C7.1488 11.568 7.50989 12.0001 7.97076 12.3026C8.43163 12.6051 8.97169 12.7645 9.52296 12.7608H9.53396C9.9005 12.7661 10.2644 12.6981 10.6043 12.5607C10.9441 12.4233 11.2531 12.2193 11.513 11.9608C11.7747 11.7099 11.9832 11.4088 12.1258 11.0754C12.2684 10.7421 12.3423 10.3833 12.343 10.0208C12.3438 9.47272 12.1793 8.93717 11.871 8.48404C11.5627 8.03092 11.125 7.68127 10.615 7.48076H10.614Z" fill="#72777A"/>
</svg>
