<svg width="24" height="20" viewBox="0 0 24 20" fill="none" xmlns="http://www.w3.org/2000/svg">
<path d="M21.177 20H2.353C1.72919 19.9992 1.13116 19.7511 0.690055 19.31C0.248953 18.8689 0.000793822 18.2708 0 17.647L0 4.70603C0.000793822 4.08222 0.248953 3.48418 0.690055 3.04308C1.13116 2.60198 1.72919 2.35382 2.353 2.35303L21.177 2.35303C21.8008 2.35382 22.3988 2.60198 22.8399 3.04308C23.281 3.48418 23.5292 4.08222 23.53 4.70603V17.647C23.5292 18.2708 23.281 18.8689 22.8399 19.31C22.3988 19.7511 21.8008 19.9992 21.177 20ZM8.588 14.627L7.888 15.566C8.69459 16.2884 9.68568 16.7729 10.7511 16.9657C11.8165 17.1586 12.9146 17.0522 13.9232 16.6585C14.9318 16.2647 15.8115 15.599 16.4645 14.7353C17.1174 13.8716 17.5181 12.8438 17.622 11.766H19.416L17.059 8.62703L14.706 11.764H16.435C16.3298 12.6217 15.9896 13.4337 15.452 14.1102C14.9143 14.7867 14.2002 15.3014 13.3884 15.5975C12.5766 15.8937 11.6987 15.9596 10.8518 15.7882C10.0048 15.6168 9.22173 15.2146 8.589 14.626L8.588 14.627ZM4.118 10.589L6.471 13.726L8.823 10.589H7.1C7.20477 9.73133 7.54464 8.9193 8.08206 8.24269C8.61948 7.56608 9.33352 7.05124 10.1452 6.75507C10.957 6.4589 11.8348 6.39293 12.6817 6.56446C13.5285 6.73599 14.3115 7.13833 14.944 7.72703L15.65 6.78603C14.8433 6.06407 13.8522 5.57988 12.7869 5.38723C11.7216 5.19458 10.6237 5.30101 9.61523 5.6947C8.60676 6.08839 7.72716 6.75394 7.07413 7.6174C6.4211 8.48087 6.02022 9.50846 5.916 10.586L4.118 10.589Z" fill="#878787"/>
<path d="M18.2349 4.118H5.29395L6.96895 1.186C7.1747 0.825759 7.47204 0.526322 7.83083 0.31804C8.18961 0.109758 8.59709 3.76099e-05 9.01195 2.72898e-08H14.5119C14.9267 -6.31321e-05 15.3341 0.109507 15.6929 0.317607C16.0517 0.525708 16.3491 0.824946 16.5549 1.185L18.2349 4.118Z" fill="#878787"/>
</svg>
