<svg width="21" height="20" viewBox="0 0 21 20" fill="none" xmlns="http://www.w3.org/2000/svg">
<g clip-path="url(#clip0_101_2548)">
<path d="M0.43095 5.95302C0.670951 4.47833 1.39239 3.12458 2.48268 2.10303C3.57298 1.08148 4.97078 0.449606 6.45795 0.306016C8.84834 -0.105667 11.2918 -0.101946 13.681 0.317016C15.1924 0.479409 16.6061 1.14287 17.6969 2.20174C18.7877 3.26061 19.4928 4.65401 19.7 6.16002C20.2014 8.71187 20.1987 11.3372 19.6919 13.888C19.4406 15.3815 18.7132 16.7538 17.6182 17.8001C16.5232 18.8465 15.1194 19.5108 13.616 19.694C11.2256 20.1057 8.78208 20.1019 6.39295 19.683C4.8724 19.4998 3.45562 18.8173 2.36472 17.7423C1.27381 16.6673 0.570472 15.2607 0.36495 13.743C-0.142956 11.1689 -0.120498 8.51818 0.43095 5.95302Z" fill="#FC4D1F"/>
<path fill-rule="evenodd" clip-rule="evenodd" d="M12.9168 10.6369L9.5118 12.9369H9.5208C9.5208 12.9369 8.29681 13.7559 8.03081 13.9369C7.87681 14.0609 7.7518 13.9999 7.7518 13.8019V8.15488H6.8998V13.8249C6.89998 14.0119 6.95216 14.1952 7.05049 14.3544C7.14883 14.5135 7.28945 14.6421 7.45667 14.7259C7.62388 14.8097 7.8111 14.8454 7.99742 14.829C8.18374 14.8126 8.36183 14.7447 8.5118 14.6329L14.1878 10.7969C14.2253 10.7748 14.2614 10.7505 14.2958 10.7239L14.3368 10.6959C14.4739 10.5748 14.5787 10.4215 14.6417 10.2498C14.7046 10.0781 14.7238 9.89336 14.6973 9.71237C14.6709 9.53139 14.5998 9.35984 14.4904 9.21326C14.381 9.06668 14.2368 8.94969 14.0708 8.87289L7.2758 5.10889L6.86279 5.85388L12.8298 9.16189C13.2188 9.37789 13.6178 9.60089 13.6408 9.61989C13.6622 9.63494 13.6805 9.65395 13.6948 9.67589C13.725 9.70996 13.7475 9.75016 13.7607 9.79372C13.7739 9.83729 13.7776 9.88321 13.7714 9.92831C13.7652 9.97342 13.7494 10.0167 13.7249 10.0551C13.7005 10.0935 13.668 10.1262 13.6298 10.1509L12.9168 10.6369Z" fill="white"/>
</g>
<defs>
<clipPath id="clip0_101_2548">
<rect width="20.07" height="20" fill="white"/>
</clipPath>
</defs>
</svg>
