<svg width="33" height="32" viewBox="0 0 33 32" fill="none" xmlns="http://www.w3.org/2000/svg">
<circle cx="16.3333" cy="16" r="16" fill="#FC4D1F" fill-opacity="0.08"/>
<path d="M16.8332 13.3335C16.8332 13.0574 16.6093 12.8335 16.3332 12.8335C16.057 12.8335 15.8332 13.0574 15.8332 13.3335L16.8332 13.3335ZM18.3332 17.1668C18.6093 17.1668 18.8332 16.943 18.8332 16.6668C18.8332 16.3907 18.6093 16.1668 18.3332 16.1668V17.1668ZM10.0208 9.77639C9.80519 9.9489 9.77023 10.2635 9.94274 10.4792C10.1152 10.6948 10.4299 10.7298 10.6455 10.5573L10.0208 9.77639ZM12.3122 9.22393C12.5278 9.05143 12.5628 8.73678 12.3903 8.52115C12.2178 8.30552 11.9031 8.27056 11.6875 8.44306L12.3122 9.22393ZM22.0208 10.5573C22.2365 10.7298 22.5511 10.6948 22.7236 10.4792C22.8961 10.2635 22.8611 9.9489 22.6455 9.77639L22.0208 10.5573ZM20.9789 8.44306C20.7632 8.27056 20.4486 8.30552 20.2761 8.52115C20.1036 8.73678 20.1385 9.05143 20.3542 9.22393L20.9789 8.44306ZM16.3332 15.6668H15.8332H16.3332ZM15.8332 13.3335V15.6668H16.8332L16.8332 13.3335L15.8332 13.3335ZM22.4998 16.0002C22.4998 19.4059 19.7389 22.1668 16.3332 22.1668V23.1668C20.2912 23.1668 23.4998 19.9582 23.4998 16.0002H22.4998ZM16.3332 22.1668C12.9274 22.1668 10.1665 19.4059 10.1665 16.0002H9.1665C9.1665 19.9582 12.3751 23.1668 16.3332 23.1668V22.1668ZM10.1665 16.0002C10.1665 12.5944 12.9274 9.8335 16.3332 9.8335V8.8335C12.3751 8.8335 9.1665 12.0421 9.1665 16.0002H10.1665ZM16.3332 9.8335C19.7389 9.8335 22.4998 12.5944 22.4998 16.0002H23.4998C23.4998 12.0421 20.2912 8.8335 16.3332 8.8335V9.8335ZM10.6455 10.5573L12.3122 9.22393L11.6875 8.44306L10.0208 9.77639L10.6455 10.5573ZM22.6455 9.77639L20.9789 8.44306L20.3542 9.22393L22.0208 10.5573L22.6455 9.77639ZM17.3332 17.1668H18.3332V16.1668H17.3332V17.1668ZM15.8332 15.6668C15.8332 16.4953 16.5047 17.1668 17.3332 17.1668V16.1668C17.057 16.1668 16.8332 15.943 16.8332 15.6668H15.8332Z" fill="#FC4D1F"/>
</svg>
