<svg id="Layer_2" data-name="Layer 2" xmlns="http://www.w3.org/2000/svg" width="22.247" height="24" viewBox="0 0 22.247 24">
  <path id="Path_570" data-name="Path 570" d="M9.283,10.75H5.378A3.347,3.347,0,0,0,2.03,14.1v6.974A3.068,3.068,0,0,0,5.1,24.14H9.283Z" transform="translate(-2.03 -0.14)" fill="#fff" opacity="0.54"/>
  <path id="Path_571" data-name="Path 571" d="M20.808,10.177H16.75l1.267-5.072a2.665,2.665,0,0,0,.015-1.288A3.291,3.291,0,0,0,13.2,1.667,2.618,2.618,0,0,0,12.132,2.73l-5.1,9.183V21.951a3.29,3.29,0,0,0,3.289,3.29h7.861a3.347,3.347,0,0,0,3.247-2.535l2.179-8.715a3.131,3.131,0,0,0-1.9-3.652A2.249,2.249,0,0,0,20.808,10.177Z" transform="translate(-1.451 -1.241)" fill="#fff" opacity="0.54"/>
  <path id="Path_552" data-name="Path 552" d="M6.215,24.2H5.1A3.072,3.072,0,0,1,2.03,21.129V13.318A3.072,3.072,0,0,1,5.1,10.25H8.446a.837.837,0,0,1,.837.837v9.047a.837.837,0,1,1-1.674,0v-8.21H5.1A1.4,1.4,0,0,0,3.7,13.318v7.811A1.4,1.4,0,0,0,5.1,22.524H6.215a.837.837,0,1,1,0,1.674Z" transform="translate(-2.03 -0.197)" fill="#fff"/>
  <path id="Path_553" data-name="Path 553" d="M17.527,25.24H8.983A1.955,1.955,0,0,1,7.03,23.287V12.418a1.943,1.943,0,0,1,.247-.95l4.755-8.559a3.224,3.224,0,0,1,5.946,2.348l-1.229,4.92h3.88a3.069,3.069,0,0,1,2.977,3.813l-2.02,8.081A4.178,4.178,0,0,1,17.527,25.24ZM14.851,2.924a1.548,1.548,0,0,0-1.354.8L8.739,12.283a.28.28,0,0,0-.035.135V23.287a.279.279,0,0,0,.279.279h8.544a2.508,2.508,0,0,0,2.436-1.9l2.02-8.081A1.395,1.395,0,0,0,20.63,11.85H15.678a.837.837,0,0,1-.812-1.04l1.49-5.959a1.552,1.552,0,0,0-1.5-1.928Z" transform="translate(-1.451 -1.24)" fill="#fff"/>
</svg>
