<svg width="20" height="20" viewBox="0 0 20 20" fill="none" xmlns="http://www.w3.org/2000/svg">
<path d="M16.8379 0H3.16214C1.41766 0 0 1.41766 0 3.16214V16.8379C0 18.5823 1.41766 20 3.16214 20H16.8379C18.5823 20 20 18.5823 20 16.8379V3.16214C20 1.4219 18.5781 0 16.8379 0ZM18.854 16.8379C18.854 17.9499 17.9499 18.854 16.8379 18.854H3.16214C2.05008 18.854 1.14601 17.9499 1.14601 16.8379V3.16214C1.14601 2.05008 2.05008 1.14601 3.16214 1.14601H16.8379C17.9499 1.14601 18.854 2.05008 18.854 3.16214V16.8379Z" fill="#FC4D1F"/>
<path d="M10.4031 4.96999C10.1781 4.74503 9.81734 4.74503 9.59238 4.96999L6.60427 7.96235C6.37931 8.18731 6.37931 8.54809 6.60427 8.77304C6.82922 8.998 7.19 8.998 7.41496 8.77304L9.43109 6.75691V14.6262C9.43109 14.9445 9.68576 15.1992 10.0041 15.1992C10.3224 15.1992 10.5771 14.9445 10.5771 14.6262V6.75691L12.589 8.7688C12.6993 8.87916 12.8479 8.93858 12.9922 8.93858C13.1365 8.93858 13.2851 8.8834 13.3954 8.7688C13.6204 8.54384 13.6204 8.18306 13.3954 7.9581L10.4031 4.96999Z" fill="#FC4D1F"/>
</svg>
