<svg width="35" height="30" viewBox="0 0 35 30" fill="none" xmlns="http://www.w3.org/2000/svg">
<path d="M10 17.5H2.5C1.11929 17.5 0 18.6193 0 20V27.5C0 28.8807 1.11929 30 2.5 30H10C11.3807 30 12.5 28.8807 12.5 27.5V20C12.5 18.6193 11.3807 17.5 10 17.5Z" fill="#FC4D1F"/>
<path d="M6.25 11.25C5.75743 11.2514 5.26949 11.1549 4.81456 10.9661C4.35962 10.7772 3.94677 10.4998 3.6 10.15L2.35 8.9C1.82622 8.37557 1.4696 7.70768 1.32517 6.98068C1.18075 6.25369 1.25501 5.5002 1.53857 4.81538C1.82212 4.13057 2.30226 3.54514 2.91834 3.13304C3.53442 2.72094 4.2588 2.50065 5 2.5C5.28617 2.50168 5.57126 2.53522 5.85 2.6L8.45 0H2.5C1.83757 0.00197841 1.20283 0.266006 0.734419 0.734419C0.266006 1.20283 0.00197841 1.83757 0 2.5V10C0.00197841 10.6624 0.266006 11.2972 0.734419 11.7656C1.20283 12.234 1.83757 12.498 2.5 12.5H10C10.6624 12.498 11.2972 12.234 11.7656 11.7656C12.234 11.2972 12.498 10.6624 12.5 10V6.55L8.9 10.15C8.55323 10.4998 8.14038 10.7772 7.68544 10.9661C7.23051 11.1549 6.74257 11.2514 6.25 11.25ZM16.25 5H33.75C34.0815 5 34.3995 4.8683 34.6339 4.63388C34.8683 4.39946 35 4.08152 35 3.75C35 3.41848 34.8683 3.10054 34.6339 2.86612C34.3995 2.6317 34.0815 2.5 33.75 2.5H16.25C15.9185 2.5 15.6005 2.6317 15.3661 2.86612C15.1317 3.10054 15 3.41848 15 3.75C15 4.08152 15.1317 4.39946 15.3661 4.63388C15.6005 4.8683 15.9185 5 16.25 5ZM16.25 10H27.5C27.8315 10 28.1495 9.8683 28.3839 9.63388C28.6183 9.39946 28.75 9.08152 28.75 8.75C28.75 8.41848 28.6183 8.10054 28.3839 7.86612C28.1495 7.6317 27.8315 7.5 27.5 7.5H16.25C15.9185 7.5 15.6005 7.6317 15.3661 7.86612C15.1317 8.10054 15 8.41848 15 8.75C15 9.08152 15.1317 9.39946 15.3661 9.63388C15.6005 9.8683 15.9185 10 16.25 10ZM33.75 20H16.25C15.9185 20 15.6005 20.1317 15.3661 20.3661C15.1317 20.6005 15 20.9185 15 21.25C15 21.5815 15.1317 21.8995 15.3661 22.1339C15.6005 22.3683 15.9185 22.5 16.25 22.5H33.75C34.0815 22.5 34.3995 22.3683 34.6339 22.1339C34.8683 21.8995 35 21.5815 35 21.25C35 20.9185 34.8683 20.6005 34.6339 20.3661C34.3995 20.1317 34.0815 20 33.75 20ZM27.5 25H16.25C15.9185 25 15.6005 25.1317 15.3661 25.3661C15.1317 25.6005 15 25.9185 15 26.25C15 26.5815 15.1317 26.8995 15.3661 27.1339C15.6005 27.3683 15.9185 27.5 16.25 27.5H27.5C27.8315 27.5 28.1495 27.3683 28.3839 27.1339C28.6183 26.8995 28.75 26.5815 28.75 26.25C28.75 25.9185 28.6183 25.6005 28.3839 25.3661C28.1495 25.1317 27.8315 25 27.5 25Z" fill="#FC4D1F"/>
<path d="M10.3668 1.61647L6.25051 5.73272L5.88426 5.36647C5.64851 5.13878 5.33275 5.01278 5.00501 5.01563C4.67726 5.01848 4.36375 5.14994 4.13199 5.3817C3.90023 5.61346 3.76876 5.92698 3.76592 6.25472C3.76307 6.58247 3.88906 6.89822 4.11676 7.13397L5.36676 8.38397C5.60117 8.61831 5.91905 8.74996 6.25051 8.74996C6.58196 8.74996 6.89985 8.61831 7.13426 8.38397L12.1343 3.38397C12.2536 3.26866 12.3489 3.13073 12.4144 2.97823C12.4799 2.82572 12.5144 2.6617 12.5158 2.49573C12.5173 2.32975 12.4856 2.16515 12.4228 2.01153C12.3599 1.85791 12.2671 1.71835 12.1498 1.60098C12.0324 1.48361 11.8928 1.3908 11.7392 1.32795C11.5856 1.2651 11.421 1.23347 11.255 1.23491C11.089 1.23635 10.925 1.27084 10.7725 1.33635C10.62 1.40186 10.4821 1.49709 10.3668 1.61647Z" fill="#FC4D1F"/>
<g clip-path="url(#clip0_573_466)">
<path d="M6.25 20.9502C2.9695 20.9502 1.25 23.3662 1.25 23.7502C1.25 24.1332 2.9695 26.5502 6.25 26.5502C9.53 26.5502 11.25 24.1332 11.25 23.7502C11.25 23.3662 9.53 20.9502 6.25 20.9502ZM6.25 25.9037C5.0225 25.9037 4.0275 24.9397 4.0275 23.7502C4.0275 22.5607 5.0225 21.5957 6.25 21.5957C7.4775 21.5957 8.472 22.5607 8.472 23.7502C8.472 24.9397 7.4775 25.9037 6.25 25.9037ZM6.25 23.7502C6.0465 23.5267 6.5815 22.6732 6.25 22.6732C5.636 22.6732 5.1385 23.1557 5.1385 23.7502C5.1385 24.3447 5.636 24.8272 6.25 24.8272C6.8635 24.8272 7.3615 24.3447 7.3615 23.7502C7.3615 23.4767 6.423 23.9397 6.25 23.7502Z" fill="white"/>
</g>
<defs>
<clipPath id="clip0_573_466">
<rect width="10" height="10" fill="white" transform="translate(1.25 18.75)"/>
</clipPath>
</defs>
</svg>
