<svg xmlns="http://www.w3.org/2000/svg" width="35" height="35" viewBox="0 0 35 35">
  <g id="Group_11" data-name="Group 11" transform="translate(-11306 -7224)">
    <circle id="Ellipse_2" data-name="Ellipse 2" cx="17.5" cy="17.5" r="17.5" transform="translate(11306 7224)" fill="#eccfc9"/>
    <g id="_11._Dumbell_Exercise" data-name="11. Dumbell Exercise" transform="translate(11308.703 7231.5)">
      <path id="Path_2" data-name="Path 2" d="M16.515,7.1a1.092,1.092,0,0,1-1.407.88L11.054,6.71a.739.739,0,0,1-.511-.842L11.3,1.523a.63.63,0,0,1,1.248.175l-.4,3.621,3.449.53A1.092,1.092,0,0,1,16.515,7.1Z" transform="translate(-2.429 -0.675)" fill="#fff"/>
      <path id="Path_3" data-name="Path 3" d="M8.248.312V.936h2.5V.312A.312.312,0,0,1,11.055,0h.624a.312.312,0,0,1,.312.312V2.183a.312.312,0,0,1-.312.312h-.624a.312.312,0,0,1-.312-.312V1.559h-2.5v.624a.312.312,0,0,1-.312.312H7.312A.312.312,0,0,1,7,2.183V.312A.312.312,0,0,1,7.312,0h.624A.312.312,0,0,1,8.248.312Z" transform="translate(0)" fill="#a0a0a0"/>
      <path id="Path_4" data-name="Path 4" d="M39.751,6.71,35.7,7.976A1.095,1.095,0,1,1,35.2,5.849l3.449-.53L38.244,1.7a.63.63,0,1,1,1.248-.175l.777,4.345A.742.742,0,0,1,39.751,6.71Z" transform="translate(-18.769 -0.675)" fill="#fff"/>
      <path id="Path_5" data-name="Path 5" d="M28.614,16c-.515,8.24-.15,1.1-.468,14.21a.78.78,0,0,1-1.559.041l-.468-5.829H25.5l-.468,5.829a.78.78,0,0,1-1.559-.041c-.187-7.7-.156-5.686-.156-9.219L23,16h1.559l1.248.624L27.055,16Z" transform="translate(-11.01 -11.01)" fill="#fc4d1f"/>
      <circle id="Ellipse_1" data-name="Ellipse 1" cx="2.183" cy="2.183" r="2.183" transform="translate(12.614)" fill="#fff"/>
      <path id="Path_6" data-name="Path 6" d="M30.5,16A1.248,1.248,0,0,1,28,16Z" transform="translate(-14.45 -11.01)" fill="#fff"/>
      <path id="Path_7" data-name="Path 7" d="M44.743.312V.936h-2.5V.312A.312.312,0,0,0,41.936,0h-.624A.312.312,0,0,0,41,.312V2.183a.312.312,0,0,0,.312.312h.624a.312.312,0,0,0,.312-.312V1.559h2.5v.624a.312.312,0,0,0,.312.312h.624a.312.312,0,0,0,.312-.312V.312A.312.312,0,0,0,45.678,0h-.624a.312.312,0,0,0-.312.312Z" transform="translate(-23.396)" fill="#a0a0a0"/>
    </g>
  </g>
</svg>
