<svg xmlns="http://www.w3.org/2000/svg" viewBox="0 0 24 24" id="group"><path d="M12 12a4 4 0 1 0-4-4 4 4 0 0 0 4 4Zm0-6a2 2 0 1 1-2 2 2 2 0 0 1 2-2Zm8 7a3 3 0 0 0-2.74 1.78A6 6 0 0 0 13 13h-2a6 6 0 0 0-4.26 1.78A3 3 0 0 0 1 16v3a1 1 0 0 0 1 1h20a1 1 0 0 0 1-1v-3a3 3 0 0 0-3-3ZM3 16a1 1 0 0 1 2 0v2H3Zm4.13 2A4 4 0 0 1 11 15h2a4 4 0 0 1 3.87 3ZM21 18h-2v-2a1 1 0 0 1 2 0Zm-1-6a3 3 0 1 0-3-3 3 3 0 0 0 3 3Zm0-4a1 1 0 1 1-1 1 1 1 0 0 1 1-1ZM4 12a3 3 0 1 0-3-3 3 3 0 0 0 3 3Zm0-4a1 1 0 1 1-1 1 1 1 0 0 1 1-1Z"></path></svg>