<svg width="22" height="22" viewBox="0 0 22 22" fill="none" xmlns="http://www.w3.org/2000/svg">
<g clip-path="url(#clip0_101_2553)">
<path opacity="0.4" d="M11 13.75C12.5188 13.75 13.75 12.5188 13.75 11C13.75 9.48122 12.5188 8.25 11 8.25C9.48122 8.25 8.25 9.48122 8.25 11C8.25 12.5188 9.48122 13.75 11 13.75Z" fill="#FC4D1F"/>
<path d="M18.333 3.66601H15.427L14.291 2.43301C14.1205 2.24467 13.9125 2.09402 13.6803 1.9907C13.4482 1.88738 13.1971 1.83367 12.943 1.83301H9.05601C8.80075 1.83455 8.54855 1.88862 8.31509 1.99184C8.08163 2.09506 7.87192 2.24524 7.69901 2.43301L6.57201 3.66601H3.66601C3.18018 3.66759 2.71472 3.86136 2.37128 4.20498C2.02784 4.54861 1.83433 5.01418 1.83301 5.50001V16.5C1.83459 16.9857 2.02822 17.451 2.37163 17.7944C2.71504 18.1378 3.18035 18.3314 3.66601 18.333H18.333C18.8187 18.3314 19.284 18.1378 19.6274 17.7944C19.9708 17.451 20.1644 16.9857 20.166 16.5V5.50001C20.1647 5.01418 19.9712 4.54861 19.6277 4.20498C19.2843 3.86136 18.8188 3.66759 18.333 3.66601ZM11 15.583C10.0936 15.583 9.2075 15.3142 8.45383 14.8106C7.70016 14.307 7.11274 13.5913 6.76587 12.7538C6.41899 11.9164 6.32823 10.9949 6.50507 10.1059C6.6819 9.21689 7.11839 8.40028 7.75934 7.75934C8.40028 7.11839 9.21689 6.6819 10.1059 6.50507C10.9949 6.32823 11.9164 6.41899 12.7538 6.76587C13.5913 7.11274 14.307 7.70016 14.8106 8.45383C15.3142 9.2075 15.583 10.0936 15.583 11C15.5825 12.2153 15.0995 13.3807 14.2401 14.2401C13.3807 15.0995 12.2153 15.5825 11 15.583Z" fill="#FC4D1F"/>
</g>
<defs>
<clipPath id="clip0_101_2553">
<rect width="22" height="22" fill="white"/>
</clipPath>
</defs>
</svg>
