<svg width="22" height="22" viewBox="0 0 22 22" fill="none" xmlns="http://www.w3.org/2000/svg">
<path fill-rule="evenodd" clip-rule="evenodd" d="M14.5289 2.29214C15.1073 2.29214 15.6848 2.37372 16.2339 2.55797C19.6173 3.65797 20.8364 7.37047 19.818 10.6155C19.2405 12.2737 18.2964 13.7871 17.0598 15.0237C15.2897 16.7379 13.3473 18.2596 11.2564 19.5704L11.0272 19.7088L10.7889 19.5612C8.69061 18.2596 6.73719 16.7379 4.95061 15.0146C3.72227 13.778 2.77719 12.2737 2.19052 10.6155C1.15469 7.37047 2.37386 3.65797 5.79394 2.53872C6.05977 2.44706 6.33386 2.38289 6.60886 2.34714H6.71886C6.97644 2.30956 7.23219 2.29214 7.48886 2.29214H7.58969C8.16719 2.30956 8.72636 2.41039 9.26811 2.59464H9.32219C9.35886 2.61206 9.38636 2.63131 9.40469 2.64872C9.60727 2.71381 9.79886 2.78714 9.98219 2.88797L10.3305 3.04381C10.4147 3.0887 10.5092 3.15729 10.5908 3.21657C10.6426 3.25413 10.6891 3.28795 10.7247 3.30964C10.7396 3.31846 10.7548 3.32734 10.7702 3.33628C10.8488 3.38217 10.9307 3.42996 10.9997 3.48289C12.0181 2.70464 13.2547 2.28297 14.5289 2.29214ZM16.9672 8.89214C17.343 8.88206 17.6639 8.58047 17.6914 8.19455V8.08547C17.7189 6.80122 16.9406 5.63797 15.7572 5.1888C15.3814 5.05956 14.9689 5.26214 14.8314 5.64714C14.703 6.03214 14.9047 6.4538 15.2897 6.59039C15.8773 6.81039 16.2705 7.3888 16.2705 8.02956V8.05797C16.2531 8.26789 16.3164 8.47047 16.4447 8.62631C16.573 8.78214 16.7655 8.87289 16.9672 8.89214Z" fill="#FC4D1F"/>
</svg>
